# Blender v2.79 (sub 0) OBJ File: 'untitled.blend'
# www.blender.org
mtllib level.017.mtl
o level.017_Cube.185
v -1.908180 2.017017 23.528490
v -1.908179 2.017018 18.995878
v -1.908181 5.833369 23.435717
v -1.908180 5.833370 19.036320
v -9.271987 2.017015 23.528490
v -9.271986 2.017016 18.995878
v -9.271987 5.833368 23.435717
v -9.271986 5.833369 19.036320
v -1.908180 3.925194 19.016100
v -1.908180 3.925192 23.482103
v -9.271986 3.925192 19.016100
v -9.271987 3.925191 23.482103
v -5.590082 2.017016 23.528490
v -5.590084 5.833368 23.435717
v -5.590082 5.833370 19.036320
v -5.590082 2.017017 18.995878
v -5.590082 3.925193 19.016100
v -5.590083 3.925192 23.482103
v -1.908180 2.017017 21.262182
v -1.908180 5.833370 21.236015
v -1.908179 2.971106 19.005989
v -1.908180 4.879281 23.458910
v -9.271987 2.017016 21.262182
v -9.271987 5.833368 21.236015
v -9.271986 2.971104 19.005989
v -9.271987 4.879280 23.458910
v -7.431035 2.017015 23.528490
v -3.749132 5.833369 23.435717
v -3.749131 5.833370 19.036320
v -7.431034 2.017017 18.995878
v -1.908180 4.879282 19.026209
v -1.908180 2.971105 23.505299
v -9.271986 4.879281 19.026209
v -9.271987 2.971103 23.505299
v -7.431034 3.925192 19.016100
v -7.431035 3.925191 23.482103
v -9.271987 3.925192 21.249100
v -3.749131 2.017016 23.528490
v -7.431035 5.833368 23.435717
v -7.431034 5.833369 19.036320
v -3.749131 2.017017 18.995878
v -3.749131 3.925193 19.016100
v -3.749132 3.925192 23.482103
v -5.590084 4.879280 23.458910
v -5.590082 2.971105 19.005989
v -5.590082 4.879282 19.026209
v -5.590082 2.017016 21.262182
v -5.590083 5.833369 21.236015
v -5.590082 2.971104 23.505299
v -9.271987 4.879280 21.225904
v -7.431035 2.971104 23.505299
v -7.431035 5.833369 21.236015
v -7.431035 2.017016 21.262182
v -7.431034 4.879281 19.026209
v -7.431034 2.971105 19.005989
v -7.431035 4.879280 23.458910
v -9.271987 2.971104 21.238989
v -3.749132 4.879281 23.458910
v -3.749131 2.971106 19.005989
v -3.749131 4.879282 19.026209
v -3.749131 2.017017 21.262182
v -3.749132 5.833370 21.236015
v -3.749131 2.971104 23.505299
vt 0.067979 0.820018
vt 0.053003 0.826534
vt 0.052844 0.820018
vt 0.055612 0.819155
vt 0.043133 0.812638
vt 0.055612 0.812638
vt 0.174334 0.923972
vt 0.186471 0.913890
vt 0.186471 0.923972
vt 0.168732 0.814844
vt 0.184727 0.801945
vt 0.184727 0.814843
vt 0.042376 0.799033
vt 0.054855 0.805549
vt 0.042376 0.805549
vt 0.042376 0.812064
vt 0.054855 0.818580
vt 0.042375 0.818580
vt 0.055611 0.806120
vt 0.043131 0.799602
vt 0.055610 0.799602
vt 0.068112 0.806986
vt 0.052911 0.813502
vt 0.052752 0.806986
vt 0.080567 0.793085
vt 0.068089 0.799602
vt 0.068089 0.793085
vt 0.017417 0.825095
vt 0.029896 0.818580
vt 0.029896 0.825095
vt 0.017417 0.812064
vt 0.029896 0.805549
vt 0.029896 0.812064
vt 0.168732 0.840640
vt 0.184727 0.827742
vt 0.184727 0.840640
vt 0.174334 0.944135
vt 0.186471 0.934053
vt 0.186471 0.944135
vt 0.080569 0.806120
vt 0.068090 0.812638
vt 0.068090 0.806120
vt 0.067912 0.826534
vt 0.043134 0.819155
vt 0.174334 0.913891
vt 0.168732 0.801946
vt 0.054855 0.799033
vt 0.054855 0.812064
vt 0.043132 0.806120
vt 0.068046 0.813502
vt 0.080568 0.799602
vt 0.017417 0.818580
vt 0.017417 0.805549
vt 0.168732 0.827742
vt 0.174334 0.934054
vt 0.080569 0.812638
vt 0.068091 0.819155
vt 0.080570 0.819155
vt 0.198609 0.923972
vt 0.200722 0.814843
vt 0.029896 0.799033
vt 0.017417 0.799033
vt 0.037710 0.820018
vt 0.030653 0.799602
vt 0.030652 0.793085
vt 0.030653 0.806120
vt 0.067333 0.818580
vt 0.067333 0.825095
vt 0.067334 0.812064
vt 0.067334 0.805549
vt 0.067334 0.799033
vt 0.184727 0.789047
vt 0.200722 0.789046
vt 0.168732 0.789047
vt 0.186471 0.903809
vt 0.198609 0.903809
vt 0.174334 0.903809
vt 0.030654 0.812638
vt 0.030655 0.819155
vt 0.052937 0.833049
vt 0.038028 0.833049
vt 0.067846 0.833049
vt 0.198609 0.934053
vt 0.198609 0.944135
vt 0.200722 0.827741
vt 0.200722 0.840640
vt 0.042375 0.825095
vt 0.055610 0.793085
vt 0.037551 0.813502
vt 0.037392 0.806986
vt 0.043131 0.793085
vt 0.054854 0.825095
vt 0.200722 0.801945
vt 0.198609 0.913890
vt 0.037869 0.826534
vn 1.0000 -0.0000 0.0000
vn 0.0000 -0.0243 -0.9997
vn 0.0000 -1.0000 -0.0000
vn -0.0000 1.0000 0.0000
vn 0.0000 -0.0106 0.9999
usemtl Material
s off
f 11/1/1 50/2/1 37/3/1
f 13/4/2 51/5/2 49/6/2
f 14/7/3 52/8/3 48/9/3
f 16/10/4 53/11/4 47/12/4
f 15/13/5 54/14/5 46/15/5
f 17/16/5 55/17/5 45/18/5
f 18/19/2 56/20/2 44/21/2
f 6/22/1 57/23/1 23/24/1
f 3/25/2 58/26/2 28/27/2
f 2/28/5 59/29/5 41/30/5
f 9/31/5 60/32/5 42/33/5
f 2/34/4 61/35/4 19/36/4
f 3/37/3 62/38/3 20/39/3
f 10/40/2 63/41/2 43/42/2
f 11/1/1 33/43/1 50/2/1
f 13/4/2 27/44/2 51/5/2
f 14/7/3 39/45/3 52/8/3
f 16/10/4 30/46/4 53/11/4
f 15/13/5 40/47/5 54/14/5
f 17/16/5 35/48/5 55/17/5
f 18/19/2 36/49/2 56/20/2
f 6/22/1 25/50/1 57/23/1
f 3/25/2 22/51/2 58/26/2
f 2/28/5 21/52/5 59/29/5
f 9/31/5 31/53/5 60/32/5
f 2/34/4 41/54/4 61/35/4
f 3/37/3 28/55/3 62/38/3
f 10/40/2 32/56/2 63/41/2
f 63/41/2 38/57/2 13/4/2
f 63/41/2 32/56/2 38/57/2
f 32/56/2 1/58/2 38/57/2
f 62/38/3 48/9/3 15/59/3
f 62/38/3 28/55/3 48/9/3
f 28/55/3 14/7/3 48/9/3
f 61/35/4 47/12/4 13/60/4
f 61/35/4 41/54/4 47/12/4
f 41/54/4 16/10/4 47/12/4
f 60/32/5 29/61/5 15/13/5
f 60/32/5 31/53/5 29/61/5
f 31/53/5 4/62/5 29/61/5
f 59/29/5 42/33/5 17/16/5
f 59/29/5 21/52/5 42/33/5
f 21/52/5 9/31/5 42/33/5
f 58/26/2 43/42/2 18/19/2
f 58/26/2 22/51/2 43/42/2
f 22/51/2 10/40/2 43/42/2
f 57/23/1 37/3/1 12/63/1
f 57/23/1 25/50/1 37/3/1
f 25/50/1 11/1/1 37/3/1
f 56/20/2 26/64/2 7/65/2
f 56/20/2 36/49/2 26/64/2
f 36/49/2 12/66/2 26/64/2
f 55/17/5 25/67/5 6/68/5
f 55/17/5 35/48/5 25/67/5
f 35/48/5 11/69/5 25/67/5
f 54/14/5 33/70/5 11/69/5
f 54/14/5 40/47/5 33/70/5
f 40/47/5 8/71/5 33/70/5
f 53/11/4 23/72/4 5/73/4
f 53/11/4 30/46/4 23/72/4
f 30/46/4 6/74/4 23/72/4
f 52/8/3 24/75/3 8/76/3
f 52/8/3 39/45/3 24/75/3
f 39/45/3 7/77/3 24/75/3
f 51/5/2 34/78/2 12/66/2
f 51/5/2 27/44/2 34/78/2
f 27/44/2 5/79/2 34/78/2
f 50/2/1 24/80/1 7/81/1
f 50/2/1 33/43/1 24/80/1
f 33/43/1 8/82/1 24/80/1
f 43/42/2 49/6/2 18/19/2
f 43/42/2 63/41/2 49/6/2
f 63/41/2 13/4/2 49/6/2
f 20/39/3 29/83/3 4/84/3
f 20/39/3 62/38/3 29/83/3
f 62/38/3 15/59/3 29/83/3
f 19/36/4 38/85/4 1/86/4
f 19/36/4 61/35/4 38/85/4
f 61/35/4 13/60/4 38/85/4
f 42/33/5 46/15/5 17/16/5
f 42/33/5 60/32/5 46/15/5
f 60/32/5 15/13/5 46/15/5
f 41/30/5 45/18/5 16/87/5
f 41/30/5 59/29/5 45/18/5
f 59/29/5 17/16/5 45/18/5
f 28/27/2 44/21/2 14/88/2
f 28/27/2 58/26/2 44/21/2
f 58/26/2 18/19/2 44/21/2
f 23/24/1 34/89/1 5/90/1
f 23/24/1 57/23/1 34/89/1
f 57/23/1 12/63/1 34/89/1
f 44/21/2 39/91/2 14/88/2
f 44/21/2 56/20/2 39/91/2
f 56/20/2 7/65/2 39/91/2
f 45/18/5 30/92/5 16/87/5
f 45/18/5 55/17/5 30/92/5
f 55/17/5 6/68/5 30/92/5
f 46/15/5 35/48/5 17/16/5
f 46/15/5 54/14/5 35/48/5
f 54/14/5 11/69/5 35/48/5
f 47/12/4 27/93/4 13/60/4
f 47/12/4 53/11/4 27/93/4
f 53/11/4 5/73/4 27/93/4
f 48/9/3 40/94/3 15/59/3
f 48/9/3 52/8/3 40/94/3
f 52/8/3 8/76/3 40/94/3
f 49/6/2 36/49/2 18/19/2
f 49/6/2 51/5/2 36/49/2
f 51/5/2 12/66/2 36/49/2
f 37/3/1 26/95/1 12/63/1
f 37/3/1 50/2/1 26/95/1
f 50/2/1 7/81/1 26/95/1
