# Blender v2.79 (sub 0) OBJ File: 'env.blend'
# www.blender.org
o Plane.010_Plane.028
v 4.173455 6.113532 35.537647
v 4.104897 1.568435 35.670734
v 4.523640 6.032047 34.973507
v 3.885051 6.032047 34.272167
v 4.121132 3.423421 34.885670
v 4.272129 2.255371 33.943394
v 4.056564 6.032047 33.694801
v 3.596047 4.406695 33.506088
v 3.353631 6.032047 33.250870
v 3.116300 3.624532 32.880554
v 3.609694 6.032047 32.453278
v 3.507775 2.877997 31.985685
v 2.725621 6.032047 31.757711
v 2.596593 1.672861 31.037226
v 2.648804 6.032047 31.017353
vt 0.368661 0.994278
vt 0.259440 0.852310
vt 0.386968 0.977591
vt 0.339796 0.936636
vt 0.308961 0.953932
vt 0.268771 0.858718
vt 0.347211 0.986582
vt 0.259847 0.865196
vt 0.363862 0.971404
vt 0.300602 0.947488
vt 0.283423 0.883626
vt 0.327571 0.932058
vt 0.268094 0.889991
vt 0.332553 0.960705
vt 0.247379 0.913605
vt 0.300833 0.979092
vt 0.252206 0.864704
vt 0.338126 0.958962
vt 0.260795 0.860189
vt 0.377879 0.988635
vt 0.245396 0.879543
vn 0.8498 0.0026 0.5271
vn 0.7363 -0.0910 -0.6705
vn 0.9560 0.0733 0.2840
vn 0.5332 -0.0530 -0.8443
vn 0.9428 -0.1395 0.3027
vn 0.6155 0.0961 -0.7823
vn 0.9946 -0.0124 -0.1032
s 1
f 1/1/1 2/2/1 3/3/1
f 4/4/2 3/5/2 5/6/2
f 4/7/3 6/8/3 7/9/3
f 7/10/4 8/11/4 9/12/4
f 9/13/5 10/14/5 11/15/5
f 11/16/6 12/17/6 13/18/6
f 13/19/7 14/20/7 15/21/7
o Plane.035_Plane.052
v -0.768802 1.903171 32.239532
v -0.746580 1.903171 32.458378
v -0.549958 1.903171 32.217312
v -0.705434 2.495812 31.630522
v -1.301662 2.495812 31.691063
v -0.849083 2.717150 32.378819
v -0.561591 2.717150 32.026344
v -1.067080 3.024833 31.743877
v -0.527736 1.903171 32.436153
v -0.874284 2.550787 31.196306
v -0.239436 2.494390 32.787819
v -1.103377 2.494390 32.875546
v -0.610223 2.705233 33.447517
v -0.093308 2.654875 32.003803
v -0.036413 2.654875 32.564110
v 0.387941 2.348602 32.189480
v -1.492491 2.527614 32.673199
v -1.548792 2.527614 32.118740
v -1.947258 2.639889 32.576382
vt 0.211823 0.874112
vt 0.192503 0.881407
vt 0.213061 0.876023
vt 0.192446 0.878957
vt 0.226563 0.955630
vt 0.174711 0.960598
vt 0.174031 0.956472
vt 0.231234 0.953765
vt 0.205218 0.998842
vt 0.190988 0.880879
vt 0.207542 0.869018
vt 0.188622 0.874155
vt 0.214728 0.878154
vt 0.193455 0.881822
vt 0.205515 0.999171
vt 0.215099 0.891495
vt 0.165090 0.956215
vt 0.191335 0.892563
vt 0.173616 0.956215
vt 0.232998 0.955138
vt 0.205124 0.999700
vt 0.206449 0.885394
vt 0.182174 0.960875
vt 0.185562 0.884367
vt 0.229940 0.956003
vt 0.205322 0.999265
vt 0.209498 0.884964
vt 0.174395 0.958548
vt 0.192115 0.886445
vt 0.231591 0.954224
vt 0.204556 0.999236
vt 0.224471 0.955138
vn -0.0000 1.0000 0.0000
vn 0.0710 0.7112 0.6994
vn 0.3680 0.8801 0.3001
vn 0.7653 0.1574 0.6242
vn 0.0123 0.9926 0.1209
vn -0.0851 0.5397 -0.8376
vn -0.0326 0.9466 -0.3208
vn -0.8406 0.5349 0.0854
vn 0.5513 0.8324 -0.0560
vn 0.6297 0.7742 -0.0639
vn 0.2446 0.9693 -0.0248
vn -0.0850 0.5397 -0.8376
s 1
f 16/22/8 17/23/8 18/24/8
f 16/25/9 19/26/9 20/27/9
f 21/28/10 22/29/10 23/30/10
f 18/31/8 17/32/8 24/33/8
f 18/34/11 21/28/11 17/35/11
f 20/27/12 19/26/12 25/36/12
f 17/37/13 26/38/13 24/39/13
f 26/40/14 27/41/14 28/42/14
f 24/43/15 29/44/15 18/45/15
f 29/44/16 30/46/16 31/47/16
f 16/48/17 32/49/17 17/50/17
f 32/49/18 33/51/18 34/52/18
f 16/25/9 18/24/9 19/26/9
f 18/34/11 22/29/11 21/28/11
f 17/37/13 27/53/19 26/38/13
f 24/43/15 30/46/15 29/44/15
f 16/48/17 33/51/17 32/49/17
o Plane.036_Plane.053
v -1.062586 1.901804 21.423231
v -1.264227 1.901804 21.511135
v -0.974681 1.901804 21.624872
v -0.463262 2.494445 21.297846
v -0.702755 2.494445 20.748486
v -1.219722 2.715783 21.389254
v -0.796359 2.715783 21.555553
v -0.681511 3.023466 20.988001
v -1.176322 1.901804 21.712776
v -0.101228 2.549420 21.004616
v -1.423307 2.493023 22.094591
v -1.770336 2.493023 21.298561
v -2.164660 2.703866 21.942659
v -0.632080 2.653508 21.994654
v -1.148339 2.653508 22.219717
v -0.662139 2.347235 22.509602
v -1.696299 2.526247 20.866276
v -1.185425 2.526247 20.643560
v -1.742788 2.638522 20.403646
vt 0.211823 0.874112
vt 0.192503 0.881407
vt 0.213061 0.876023
vt 0.192446 0.878957
vt 0.226563 0.955630
vt 0.174711 0.960598
vt 0.174031 0.956472
vt 0.231234 0.953765
vt 0.205218 0.998842
vt 0.190988 0.880879
vt 0.207542 0.869018
vt 0.188622 0.874155
vt 0.214728 0.878154
vt 0.193455 0.881822
vt 0.205515 0.999171
vt 0.215099 0.891495
vt 0.165090 0.956215
vt 0.191335 0.892563
vt 0.173616 0.956215
vt 0.232998 0.955138
vt 0.205124 0.999700
vt 0.206449 0.885394
vt 0.182174 0.960875
vt 0.185562 0.884367
vt 0.229940 0.956003
vt 0.205322 0.999265
vt 0.209498 0.884964
vt 0.174395 0.958548
vt 0.192115 0.886445
vt 0.231591 0.954224
vt 0.204556 0.999236
vt 0.224471 0.955138
vn -0.0000 1.0000 0.0000
vn -0.6445 0.7112 0.2809
vn -0.1736 0.8801 0.4420
vn -0.3611 0.1574 0.9192
vn -0.1114 0.9926 0.0486
vn 0.7717 0.5397 -0.3364
vn 0.2956 0.9466 -0.1289
vn -0.3377 0.5349 -0.7745
vn -0.3376 0.5349 -0.7745
vn 0.2215 0.8324 0.5080
vn 0.2529 0.7742 0.5802
vn 0.0982 0.9693 0.2254
s 1
f 35/54/20 36/55/20 37/56/20
f 35/57/21 38/58/21 39/59/21
f 40/60/22 41/61/22 42/62/22
f 37/63/20 36/64/20 43/65/20
f 37/66/23 40/60/23 36/67/23
f 39/59/24 38/58/24 44/68/24
f 36/69/25 45/70/25 43/71/25
f 45/72/26 46/73/26 47/74/26
f 43/75/27 48/76/27 37/77/28
f 48/76/29 49/78/29 50/79/29
f 35/80/30 51/81/30 36/82/30
f 51/81/31 52/83/31 53/84/31
f 35/57/21 37/56/21 38/58/21
f 37/66/23 41/61/23 40/60/23
f 36/69/25 46/85/25 45/70/25
f 43/75/27 49/78/27 48/76/27
f 35/80/30 52/83/30 51/81/30
o Plane.037_Plane.054
v -1.062586 1.901804 21.423231
v -1.264227 1.901804 21.511135
v -0.974681 1.901804 21.624872
v -0.463262 2.494445 21.297846
v -0.702755 2.494445 20.748486
v -1.219722 2.715783 21.389254
v -0.796359 2.715783 21.555553
v -0.681511 3.023466 20.988001
v -1.176322 1.901804 21.712776
v -0.101228 2.549420 21.004616
v -1.423307 2.493023 22.094591
v -1.770336 2.493023 21.298561
v -2.164660 2.703866 21.942659
v -0.632080 2.653508 21.994654
v -1.148339 2.653508 22.219717
v -0.662139 2.347235 22.509602
v -1.696299 2.526247 20.866276
v -1.185425 2.526247 20.643560
v -1.742788 2.638522 20.403646
vt 0.211823 0.874112
vt 0.192503 0.881407
vt 0.213061 0.876023
vt 0.192446 0.878957
vt 0.226563 0.955630
vt 0.174711 0.960598
vt 0.174031 0.956472
vt 0.231234 0.953765
vt 0.205218 0.998842
vt 0.190988 0.880879
vt 0.207542 0.869018
vt 0.188622 0.874155
vt 0.214728 0.878154
vt 0.193455 0.881822
vt 0.205515 0.999171
vt 0.215099 0.891495
vt 0.165090 0.956215
vt 0.191335 0.892563
vt 0.173616 0.956215
vt 0.232998 0.955138
vt 0.205124 0.999700
vt 0.206449 0.885394
vt 0.182174 0.960875
vt 0.185562 0.884367
vt 0.229940 0.956003
vt 0.205322 0.999265
vt 0.209498 0.884964
vt 0.174395 0.958548
vt 0.192115 0.886445
vt 0.231591 0.954224
vt 0.204556 0.999236
vt 0.224471 0.955138
vn -0.0000 1.0000 0.0000
vn -0.6445 0.7112 0.2809
vn -0.1736 0.8801 0.4420
vn -0.3611 0.1574 0.9192
vn -0.1114 0.9926 0.0486
vn 0.7717 0.5397 -0.3364
vn 0.2956 0.9466 -0.1289
vn -0.3377 0.5349 -0.7745
vn -0.3376 0.5349 -0.7745
vn 0.2215 0.8324 0.5080
vn 0.2529 0.7742 0.5802
vn 0.0982 0.9693 0.2254
s 1
f 54/86/32 55/87/32 56/88/32
f 54/89/33 57/90/33 58/91/33
f 59/92/34 60/93/34 61/94/34
f 56/95/32 55/96/32 62/97/32
f 56/98/35 59/92/35 55/99/35
f 58/91/36 57/90/36 63/100/36
f 55/101/37 64/102/37 62/103/37
f 64/104/38 65/105/38 66/106/38
f 62/107/39 67/108/39 56/109/40
f 67/108/41 68/110/41 69/111/41
f 54/112/42 70/113/42 55/114/42
f 70/113/43 71/115/43 72/116/43
f 54/89/33 56/88/33 57/90/33
f 56/98/35 60/93/35 59/92/35
f 55/101/37 65/117/37 64/102/37
f 62/107/39 68/110/39 67/108/39
f 54/112/42 71/115/42 70/113/42
o Plane.038_Plane.055
v -3.220960 1.901804 20.528475
v -3.422601 1.901804 20.616379
v -3.133055 1.901804 20.730116
v -2.621636 2.494445 20.403090
v -2.861129 2.494445 19.853729
v -3.378096 2.715783 20.494497
v -2.954733 2.715783 20.660797
v -2.839885 3.023466 20.093245
v -3.334696 1.901804 20.818020
v -2.259602 2.549420 20.109859
v -3.581681 2.493023 21.199835
v -3.928710 2.493023 20.403805
v -4.323034 2.703866 21.047903
v -2.790454 2.653508 21.099897
v -3.306713 2.653508 21.324961
v -2.820513 2.347235 21.614845
v -3.854673 2.526247 19.971519
v -3.343799 2.526247 19.748804
v -3.901162 2.638522 19.508890
vt 0.211823 0.874112
vt 0.192503 0.881407
vt 0.213061 0.876023
vt 0.192446 0.878957
vt 0.226563 0.955630
vt 0.174711 0.960598
vt 0.174031 0.956472
vt 0.231234 0.953765
vt 0.205218 0.998842
vt 0.190988 0.880879
vt 0.207542 0.869018
vt 0.188622 0.874155
vt 0.214728 0.878154
vt 0.193455 0.881822
vt 0.205515 0.999171
vt 0.215099 0.891495
vt 0.165090 0.956215
vt 0.191335 0.892563
vt 0.173616 0.956215
vt 0.232998 0.955138
vt 0.205124 0.999700
vt 0.206449 0.885394
vt 0.182174 0.960875
vt 0.185562 0.884367
vt 0.229940 0.956003
vt 0.205322 0.999265
vt 0.209498 0.884964
vt 0.174395 0.958548
vt 0.192115 0.886445
vt 0.231591 0.954224
vt 0.204556 0.999236
vt 0.224471 0.955138
vn -0.0000 1.0000 0.0000
vn -0.6445 0.7112 0.2809
vn -0.1736 0.8801 0.4420
vn -0.3610 0.1574 0.9192
vn -0.3611 0.1574 0.9192
vn -0.1114 0.9926 0.0486
vn 0.7717 0.5397 -0.3364
vn 0.2956 0.9466 -0.1289
vn -0.3376 0.5349 -0.7745
vn -0.3377 0.5349 -0.7745
vn 0.2215 0.8324 0.5080
vn 0.2529 0.7742 0.5802
vn 0.0982 0.9693 0.2254
s 1
f 73/118/44 74/119/44 75/120/44
f 73/121/45 76/122/45 77/123/45
f 78/124/46 79/125/46 80/126/46
f 75/127/44 74/128/44 81/129/44
f 75/130/47 78/124/48 74/131/47
f 77/123/49 76/122/49 82/132/49
f 74/133/50 83/134/50 81/135/50
f 83/136/51 84/137/51 85/138/51
f 81/139/52 86/140/53 75/141/52
f 86/140/54 87/142/54 88/143/54
f 73/144/55 89/145/55 74/146/55
f 89/145/56 90/147/56 91/148/56
f 73/121/45 75/120/45 76/122/45
f 75/130/47 79/125/48 78/124/48
f 74/133/50 84/149/50 83/134/50
f 81/139/52 87/142/53 86/140/53
f 73/144/55 90/147/55 89/145/55
o Cube.019_Cube.020
v 0.296981 1.633223 39.541496
v 0.196946 1.700726 38.508545
v 0.864482 1.516162 38.869038
v 0.592771 2.336178 38.791885
v 0.113430 2.111222 39.279984
v 0.657834 2.361364 39.311512
v 1.203429 1.977944 39.270668
v 0.777655 2.011870 38.443493
v 0.118403 1.995432 38.749943
vt 0.115597 0.971702
vt 0.003632 0.943736
vt 0.067766 0.885284
vt 0.092991 0.943392
vt 0.019798 0.893533
vt 0.096728 0.885420
vt 0.031455 0.959916
vt 0.102280 0.888138
vt 0.102280 0.998803
vt 0.075328 0.991904
vt 0.010867 0.983853
vt 0.096728 0.985552
vt 0.022132 0.983637
vt 0.109962 0.925521
vt 0.108580 0.983637
vt 0.013698 0.889769
vt 0.018308 0.953620
vt 0.029148 0.894068
vt 0.021935 0.968176
vt 0.062733 0.886227
vt 0.015861 0.926743
vt 0.115597 0.877519
vn -0.2465 -0.9684 -0.0394
vn -0.4179 0.9085 0.0083
vn 0.2108 0.1979 0.9573
vn -0.9435 -0.3239 0.0702
vn -0.3845 0.5650 -0.7300
vn 0.5659 0.8170 -0.1105
vn 0.2408 -0.6076 -0.7569
vn -0.5631 0.8062 -0.1814
vn -0.2335 0.3962 0.8880
vn -0.9522 -0.3002 0.0566
vn -0.3241 0.5463 -0.7724
vn 0.6484 0.6975 -0.3052
vn 0.8597 -0.2377 -0.4522
vn 0.4342 -0.7512 0.4972
s 1
f 92/150/57 93/151/57 94/152/57
f 95/153/58 96/154/58 97/155/58
f 97/156/59 92/157/59 98/158/59
f 96/159/60 93/151/60 92/150/60
f 93/160/61 95/153/61 99/161/61
f 98/162/62 95/163/62 97/164/62
f 93/151/63 99/165/63 94/152/63
f 95/153/64 100/166/64 96/154/64
f 97/156/65 96/167/65 92/157/65
f 96/159/66 100/168/66 93/151/66
f 93/160/67 100/166/67 95/153/67
f 98/162/68 99/169/68 95/163/68
f 99/169/69 98/162/69 94/170/69
f 98/171/70 92/150/70 94/152/70
