# Blender v2.79 (sub 0) OBJ File: ''
# www.blender.org
mtllib level.006.mtl
o level.006_Cube.174
v 29.171843 -2.155736 -6.265463
v 29.171843 4.397681 -6.265461
v 29.171843 -2.155732 -28.356804
v 29.171843 4.397686 -28.356802
v 22.230984 -2.155737 -6.265465
v 22.558971 4.397680 -6.265464
v 22.558971 4.397685 -28.356804
v 22.230984 -2.155733 -28.356804
v 29.171843 -2.155734 -17.311134
v 22.230984 -2.155735 -17.311136
v 22.558971 4.397682 -17.311134
v 29.171843 4.397683 -17.311132
v 29.171843 -2.155733 -22.776360
v 22.558971 4.397683 -22.776360
v 22.230984 -2.155734 -22.776360
v 29.171843 4.397685 -22.776358
v 22.230984 -2.155736 -11.788301
v 29.171843 4.397682 -11.788296
v 29.171843 -2.155735 -11.788298
v 22.558971 4.397681 -11.788298
v 22.394979 1.120976 -28.356804
v 29.171843 1.120972 -6.265462
v 29.171843 1.120977 -28.356804
v 22.394979 1.120971 -6.265464
v 22.394979 1.120973 -17.311134
v 29.171843 1.120975 -17.311134
v 22.394979 1.120975 -22.776360
v 29.171843 1.120976 -22.776358
v 29.171843 1.120973 -11.788297
v 22.394979 1.120972 -11.788299
v 25.865406 4.397685 -28.356804
v 25.865406 4.397680 -6.265462
v 25.701412 -2.155737 -6.265464
v 25.701412 -2.155732 -28.356804
v 25.701412 -2.155735 -17.311134
v 25.865406 4.397683 -17.311134
v 25.701412 -2.155733 -22.776360
v 25.865406 4.397684 -22.776358
v 25.865406 4.397681 -11.788297
v 25.701412 -2.155735 -11.788299
v 25.783413 1.120976 -28.356804
v 22.477800 2.775803 -9.054653
v 29.171843 1.120973 -9.316125
v 29.171843 2.678543 -9.163040
v 25.701412 -2.155736 -9.165160
v 29.171843 -2.155735 -9.637780
v 22.230984 -2.155737 -8.692357
v 22.558971 4.397680 -9.174116
v 29.171843 -0.264955 -9.452341
v 23.898832 -2.155736 -8.919677
v 22.306334 -0.650238 -8.802958
v 25.865406 4.397681 -9.084016
v 29.171843 4.397681 -8.994064
v 27.525743 4.397681 -9.038769
v 24.272383 4.397681 -9.127426
v 22.394979 1.120972 -8.933082
v 27.694036 -2.155736 -9.436524
v 27.518623 4.397686 -28.356804
v 22.312983 -0.517378 -28.356804
v 29.171843 2.759326 -6.265462
v 27.518623 4.397681 -6.265462
v 27.436628 -2.155736 -6.265464
v 27.436628 -2.155732 -28.356804
v 29.171843 2.759331 -28.356804
v 22.312983 -0.517383 -6.265465
v 29.171843 -2.155732 -25.566584
v 22.230984 -2.155737 -7.478911
v 22.558971 4.397684 -25.566584
v 29.171843 4.397681 -7.629763
v 29.171843 -2.155735 -14.549716
v 22.230984 -2.155735 -20.043745
v 22.558971 4.397681 -14.549716
v 29.171843 4.397684 -20.043743
v 22.476974 2.759328 -17.311134
v 29.171843 -0.517380 -17.311134
v 23.966198 -2.155735 -17.311134
v 27.518623 4.397683 -17.311132
v 29.171843 -2.155733 -20.043743
v 22.558971 4.397683 -20.043743
v 22.230984 -2.155733 -25.566584
v 29.171843 4.397685 -25.566578
v 22.476974 2.759329 -22.776360
v 29.171843 -0.517378 -22.776358
v 23.966198 -2.155734 -22.776360
v 27.518623 4.397684 -22.776358
v 22.230984 -2.155735 -14.549718
v 29.171843 4.397683 -14.549714
v 29.171843 -2.155735 -10.713037
v 22.558971 4.397681 -10.481206
v 27.518623 4.397682 -11.788296
v 23.966198 -2.155736 -11.788301
v 29.171843 -0.517381 -11.788298
v 22.476974 2.759326 -11.788298
v 22.476974 2.759330 -28.356804
v 29.171843 -0.517382 -6.265462
v 29.171843 -0.517377 -28.356804
v 22.476974 2.759326 -6.265464
v 22.312983 -0.517381 -17.311134
v 29.171843 2.759329 -17.311132
v 22.312983 -0.517380 -22.776360
v 29.171843 2.759330 -22.776358
v 29.171843 2.759328 -11.788296
v 22.312983 -0.517382 -11.788301
v 22.394979 1.120972 -10.360690
v 29.171843 1.120973 -10.552210
v 29.171843 1.120975 -20.043743
v 22.394979 1.120974 -20.043743
v 29.171843 1.120974 -14.549715
v 22.394979 1.120973 -14.549718
v 22.394979 1.120975 -25.566584
v 29.171843 1.120976 -25.566580
v 27.477629 1.120977 -28.356804
v 24.212191 4.397685 -28.356804
v 24.212191 4.397680 -6.265463
v 23.966198 -2.155737 -6.265465
v 23.966198 -2.155733 -28.356804
v 27.436628 -2.155734 -17.311134
v 24.212191 4.397682 -17.311134
v 27.436628 -2.155733 -22.776360
v 24.212191 4.397684 -22.776358
v 24.212191 4.397681 -11.788298
v 27.436628 -2.155735 -11.788298
v 24.089195 1.120976 -28.356804
v 25.824409 2.759331 -28.356804
v 25.701412 -2.155736 -10.476727
v 25.865406 4.397681 -10.436155
v 25.865406 4.397683 -20.043743
v 25.701412 -2.155734 -20.043743
v 25.865406 4.397682 -14.549715
v 25.701412 -2.155735 -14.549718
v 25.701412 -2.155733 -25.566584
v 25.865406 4.397685 -25.566580
v 25.742413 -0.517378 -28.356804
v 27.477629 -0.517377 -28.356804
v 24.212191 4.397684 -25.566584
v 27.436628 -2.155733 -25.566584
v 29.171843 2.759331 -25.566578
v 22.312983 -0.517379 -25.566584
v 22.312983 -0.517381 -14.549718
v 29.171843 2.759328 -14.549715
v 27.436628 -2.155735 -14.549718
v 24.212191 4.397682 -14.549715
v 22.312983 -0.517380 -20.043745
v 29.171843 2.759330 -20.043743
v 27.436628 -2.155734 -20.043743
v 24.212191 4.397683 -20.043743
v 22.558971 4.397680 -7.719790
v 26.697725 -2.155736 -7.850995
v 29.171843 3.538112 -7.714251
v 22.394979 1.120971 -7.599273
v 29.171843 -2.155736 -7.951622
v 29.171843 -0.517379 -20.043743
v 22.476974 2.759328 -20.043743
v 29.171843 -0.517380 -14.549715
v 22.476974 2.759327 -14.549718
v 22.476974 2.759330 -25.566584
v 29.171843 -0.517378 -25.566584
v 27.518623 2.759331 -28.356804
v 24.171190 2.759330 -28.356804
v 23.064909 -2.155737 -7.592571
v 25.865406 4.397681 -7.674739
v 27.518623 4.397684 -20.043743
v 23.966198 -2.155734 -20.043745
v 27.518623 4.397682 -14.549715
v 23.966198 -2.155735 -14.549718
v 23.966198 -2.155733 -25.566584
v 27.518623 4.397685 -25.566578
v 24.048195 -0.517378 -28.356804
v 29.171843 1.120973 -7.790793
v 29.171843 1.899758 -10.475667
v 25.701412 -2.155736 -7.715312
v 22.230984 -2.155736 -10.240328
v 24.800121 -2.155736 -10.353986
v 29.171843 4.397682 -10.391178
v 28.432941 -2.155735 -10.612410
v 23.064909 -2.155737 -8.806017
v 29.171843 3.538113 -9.078552
v 26.697725 -2.155736 -9.300842
v 24.800121 -2.155736 -9.042418
v 28.432941 -2.155735 -9.537152
v 28.432941 -2.155736 -7.850994
v 24.800121 -2.155737 -7.592571
v 23.064909 -2.155736 -10.353988
v 29.171843 3.538113 -10.475667
v 26.697725 -2.155735 -10.612410
vt 0.074483 0.817648
vt 0.062998 0.828838
vt 0.062998 0.817648
vt 0.210395 0.967445
vt 0.201272 0.982725
vt 0.201272 0.967445
vt 0.048501 0.779437
vt 0.057978 0.764318
vt 0.057978 0.779437
vt 0.091436 0.807361
vt 0.106443 0.798477
vt 0.106444 0.807361
vt 0.093350 0.920621
vt 0.108370 0.911730
vt 0.108365 0.920621
vt 0.034230 0.902839
vt 0.049085 0.911730
vt 0.034225 0.911730
vt 0.032335 0.807361
vt 0.047186 0.798477
vt 0.047188 0.807361
vt 0.067454 0.838977
vt 0.057978 0.824014
vt 0.067454 0.824014
vt 0.210395 0.907273
vt 0.201272 0.922395
vt 0.201272 0.907273
vt 0.063950 0.902839
vt 0.078650 0.911730
vt 0.063945 0.911730
vt 0.062038 0.789592
vt 0.076737 0.798477
vt 0.062039 0.798477
vt 0.048501 0.809051
vt 0.057978 0.794244
vt 0.057978 0.809051
vt 0.210395 0.937517
vt 0.201272 0.952481
vt 0.201272 0.937517
vt 0.200940 0.892701
vt 0.192150 0.884746
vt 0.210395 0.884993
vt 0.067454 0.868903
vt 0.062013 0.860312
vt 0.067454 0.861047
vt 0.018213 0.798915
vt 0.010833 0.807361
vt 0.010420 0.794253
vt 0.018160 0.911009
vt 0.011677 0.920621
vt 0.011039 0.902839
vt 0.019504 0.929601
vt 0.012316 0.938403
vt 0.062043 0.825131
vt 0.076740 0.816246
vt 0.076741 0.825131
vt 0.063930 0.938403
vt 0.078640 0.929512
vt 0.078635 0.938403
vt 0.032337 0.825131
vt 0.047189 0.816246
vt 0.047190 0.825131
vt 0.034220 0.920621
vt 0.049075 0.929512
vt 0.034215 0.929512
vt 0.093340 0.938403
vt 0.108360 0.929512
vt 0.108355 0.938403
vt 0.091439 0.825131
vt 0.106445 0.816246
vt 0.106447 0.825131
vt 0.073927 0.795269
vt 0.062720 0.806459
vt 0.062720 0.795269
vt 0.096340 0.795269
vt 0.085411 0.806459
vt 0.085134 0.795269
vt 0.086408 0.868903
vt 0.081853 0.861712
vt 0.086408 0.862328
vt 0.182988 0.892216
vt 0.173905 0.884500
vt 0.192150 0.937517
vt 0.183027 0.952480
vt 0.183027 0.937516
vt 0.086408 0.809051
vt 0.076931 0.794244
vt 0.086408 0.794244
vt 0.192150 0.907272
vt 0.183027 0.922395
vt 0.183027 0.907272
vt 0.086408 0.838977
vt 0.076931 0.824014
vt 0.086408 0.824014
vt 0.067454 0.779437
vt 0.076931 0.764318
vt 0.076931 0.779437
vt 0.192150 0.967445
vt 0.183027 0.982725
vt 0.183027 0.967445
vt 0.097452 0.817648
vt 0.086245 0.828838
vt 0.085967 0.817648
vt 0.074760 0.828838
vt 0.210395 0.982725
vt 0.048501 0.764317
vt 0.091435 0.798477
vt 0.093355 0.911730
vt 0.049090 0.902839
vt 0.032334 0.798477
vt 0.057978 0.838977
vt 0.210395 0.922395
vt 0.078655 0.902839
vt 0.076736 0.789592
vt 0.048501 0.794244
vt 0.210395 0.952481
vt 0.048501 0.868903
vt 0.052536 0.860311
vt 0.057978 0.868903
vt 0.002627 0.789592
vt 0.009965 0.789592
vt 0.002629 0.807361
vt 0.002630 0.816246
vt 0.062042 0.816246
vt 0.063935 0.929512
vt 0.032336 0.816246
vt 0.049080 0.920621
vt 0.093345 0.929512
vt 0.091437 0.816246
vt 0.074205 0.806459
vt 0.096896 0.806459
vt 0.072377 0.861712
vt 0.076931 0.868903
vt 0.192150 0.952481
vt 0.076931 0.809051
vt 0.192150 0.922395
vt 0.076931 0.838977
vt 0.067454 0.764318
vt 0.192150 0.982725
vt 0.098007 0.828838
vt 0.025899 0.902839
vt 0.026537 0.920621
vt 0.077299 0.854521
vt 0.081853 0.846749
vt 0.081853 0.855137
vt 0.019771 0.814877
vt 0.019038 0.807361
vt 0.025686 0.807361
vt 0.026554 0.825131
vt 0.020770 0.825131
vt 0.192150 0.899868
vt 0.173905 0.899621
vt 0.210395 0.900115
vt 0.025273 0.794253
vt 0.025274 0.803138
vt 0.056572 0.851720
vt 0.062013 0.845348
vt 0.062013 0.852455
vt 0.027176 0.938403
vt 0.072377 0.853856
vt 0.072377 0.846749
vt 0.052536 0.851175
vt 0.052536 0.845348
vt 0.192150 0.892463
vt 0.018855 0.920621
vt 0.020142 0.938403
vt 0.173905 0.891971
vt 0.048501 0.859766
vt 0.017569 0.902839
vt 0.210395 0.892957
vt 0.017758 0.794253
vt 0.048501 0.838976
vt 0.024818 0.789592
vt 0.032332 0.789592
vt 0.017303 0.789592
vt 0.067454 0.853191
vt 0.048501 0.850629
vt 0.048501 0.844803
vt 0.067454 0.846084
vt 0.034210 0.938403
vt 0.173905 0.907272
vt 0.086408 0.847365
vt 0.086408 0.855753
vt 0.086801 0.840028
vt 0.075038 0.840028
vt 0.098563 0.840028
vt 0.183027 0.998004
vt 0.173905 0.998004
vt 0.192150 0.998004
vt 0.076931 0.749199
vt 0.086408 0.749199
vt 0.067454 0.749199
vt 0.067454 0.809051
vt 0.173905 0.937516
vt 0.067454 0.794244
vt 0.173905 0.967445
vt 0.051514 0.817648
vt 0.121451 0.807361
vt 0.123381 0.920621
vt 0.063940 0.920621
vt 0.062040 0.807361
vt 0.078645 0.920621
vt 0.076738 0.807361
vt 0.011701 0.825131
vt 0.002632 0.825131
vt 0.091434 0.789592
vt 0.093360 0.902839
vt 0.048501 0.824013
vt 0.047185 0.789592
vt 0.108375 0.902839
vt 0.123390 0.902839
vt 0.106441 0.789592
vt 0.121449 0.789592
vt 0.057978 0.749198
vt 0.048501 0.749198
vt 0.201272 0.998004
vt 0.210395 0.998004
vt 0.063276 0.840028
vt 0.051513 0.840028
vt 0.173905 0.982724
vt 0.086408 0.764318
vt 0.086408 0.779437
vt 0.173905 0.922394
vt 0.173905 0.952480
vt 0.183027 0.877029
vt 0.192150 0.877029
vt 0.173905 0.877028
vt 0.051514 0.806459
vt 0.051514 0.795269
vt 0.121453 0.816246
vt 0.121454 0.825131
vt 0.123375 0.929512
vt 0.123370 0.938403
vt 0.049070 0.938403
vt 0.004494 0.929512
vt 0.004499 0.920621
vt 0.004489 0.938403
vt 0.004504 0.911730
vt 0.004509 0.902839
vt 0.002628 0.798477
vt 0.201272 0.877029
vt 0.210395 0.877029
vt 0.123385 0.911730
vt 0.121450 0.798477
vt 0.051514 0.828838
vn 0.0000 0.0000 1.0000
vn 0.0000 -1.0000 -0.0000
vn -0.0000 1.0000 0.0000
vn -1.0000 0.0000 0.0000
vn 0.9987 -0.0500 -0.0000
vn 0.9988 -0.0500 -0.0000
usemtl Material
s off
f 41/1/1 134/2/1 112/3/1
f 14/4/2 135/5/2 120/6/2
f 13/7/3 136/8/3 119/9/3
f 28/10/4 137/11/4 111/12/4
f 27/13/5 138/14/5 110/15/5
f 17/16/5 139/17/5 103/18/5
f 29/19/4 140/20/4 108/21/4
f 40/22/3 141/23/3 130/24/3
f 20/25/2 142/26/2 121/27/2
f 10/28/5 143/29/5 98/30/5
f 12/31/4 144/32/4 99/33/4
f 9/34/3 145/35/3 117/36/3
f 11/37/2 146/38/2 118/39/2
f 55/40/2 161/41/2 147/42/2
f 33/43/3 148/44/3 171/45/3
f 44/46/4 169/47/4 149/48/4
f 51/49/5 150/50/5 67/51/5
f 42/52/5 147/53/5 150/50/5
f 9/54/4 152/55/4 78/56/4
f 11/57/5 153/58/5 79/59/5
f 19/60/4 154/61/4 70/62/4
f 30/63/6 155/64/6 93/65/6
f 14/66/5 156/67/5 68/68/5
f 13/69/4 157/70/4 66/71/4
f 31/72/1 158/73/1 58/74/1
f 7/75/1 159/76/1 113/77/1
f 5/78/3 160/79/3 67/80/3
f 54/81/2 69/82/2 161/41/2
f 36/83/2 162/84/2 77/85/2
f 10/86/3 163/87/3 71/88/3
f 39/89/2 164/90/2 90/91/2
f 17/92/3 165/93/3 86/94/3
f 37/95/3 166/96/3 84/97/3
f 38/98/2 167/99/2 85/100/2
f 21/101/1 168/102/1 123/103/1
f 41/1/1 133/104/1 134/2/1
f 14/4/2 68/105/2 135/5/2
f 13/7/3 66/106/3 136/8/3
f 28/10/4 101/107/4 137/11/4
f 27/13/5 100/108/5 138/14/5
f 17/16/5 86/109/5 139/17/5
f 29/19/4 102/110/4 140/20/4
f 40/22/3 122/111/3 141/23/3
f 20/25/2 72/112/2 142/26/2
f 10/28/5 71/113/5 143/29/5
f 12/31/4 73/114/4 144/32/4
f 9/34/3 78/115/3 145/35/3
f 11/37/2 79/116/2 146/38/2
f 1/117/3 181/118/3 62/119/3
f 2/120/4 69/121/4 149/48/4
f 22/122/4 169/47/4 95/123/4
f 9/54/4 75/124/4 152/55/4
f 11/57/5 74/125/5 153/58/5
f 19/60/4 92/126/4 154/61/4
f 30/63/5 109/127/5 155/64/5
f 14/66/5 82/128/5 156/67/5
f 13/69/4 83/129/4 157/70/4
f 31/72/1 124/130/1 158/73/1
f 7/75/1 94/131/1 159/76/1
f 33/43/3 182/132/3 115/133/3
f 36/83/2 127/134/2 162/84/2
f 10/86/3 76/135/3 163/87/3
f 39/89/2 129/136/2 164/90/2
f 17/92/3 91/137/3 165/93/3
f 37/95/3 131/138/3 166/96/3
f 38/98/2 132/139/2 167/99/2
f 21/101/1 59/140/1 168/102/1
f 51/49/5 172/141/5 104/142/5
f 50/143/3 183/144/3 176/145/3
f 49/146/4 43/147/4 105/148/4
f 49/146/4 88/149/4 46/150/4
f 54/81/2 126/151/2 174/152/2
f 55/40/2 89/153/2 126/151/2
f 44/46/4 184/154/4 170/155/4
f 57/156/3 185/157/3 178/158/3
f 42/52/5 104/142/5 89/159/5
f 50/143/3 179/160/3 173/161/3
f 57/156/3 180/162/3 175/163/3
f 55/40/2 52/164/2 161/41/2
f 44/46/4 43/147/4 169/47/4
f 51/49/5 56/165/5 150/50/5
f 42/52/6 48/166/6 147/53/6
f 54/81/2 53/167/2 69/82/2
f 1/117/3 151/168/3 181/118/3
f 33/43/3 171/45/3 182/132/3
f 51/49/6 47/169/6 172/141/6
f 50/143/3 173/161/3 183/144/3
f 49/146/4 105/148/4 88/149/4
f 54/81/2 52/164/2 126/151/2
f 55/40/2 48/170/2 89/153/2
f 44/46/4 177/171/4 184/154/4
f 57/156/3 175/163/3 185/157/3
f 42/52/5 56/165/5 104/142/5
f 185/157/3 122/111/3 40/22/3
f 185/157/3 175/163/3 122/111/3
f 175/163/3 19/172/3 122/111/3
f 184/154/4 174/173/4 18/174/4
f 184/154/4 177/171/4 174/173/4
f 177/171/4 53/175/4 174/173/4
f 88/149/4 92/126/4 19/60/4
f 88/149/4 105/148/4 92/126/4
f 105/148/4 29/19/4 92/126/4
f 183/144/3 91/137/3 17/92/3
f 183/144/3 173/161/3 91/137/3
f 173/161/3 40/22/3 91/137/3
f 182/132/3 179/160/3 50/143/3
f 182/132/3 171/45/3 179/160/3
f 171/45/3 45/176/3 179/160/3
f 169/47/4 43/147/4 49/146/4
f 181/118/3 180/162/3 57/156/3
f 181/118/3 151/168/3 180/162/3
f 151/168/3 46/177/3 180/162/3
f 175/163/3 88/178/3 19/172/3
f 175/163/3 180/162/3 88/178/3
f 180/162/3 46/177/3 88/178/3
f 173/161/3 125/179/3 40/22/3
f 173/161/3 179/160/3 125/179/3
f 179/160/3 45/176/3 125/179/3
f 48/166/6 42/52/6 89/159/6
f 56/165/5 51/49/5 104/142/5
f 89/159/5 93/65/5 20/180/5
f 89/159/5 104/142/5 93/65/5
f 104/142/5 30/63/5 93/65/5
f 53/167/2 54/81/2 174/152/2
f 178/158/3 125/179/3 45/176/3
f 178/158/3 185/157/3 125/179/3
f 185/157/3 40/22/3 125/179/3
f 170/155/4 102/110/4 29/19/4
f 170/155/4 184/154/4 102/110/4
f 184/154/4 18/174/4 102/110/4
f 126/151/2 121/27/2 39/89/2
f 126/151/2 89/153/2 121/27/2
f 89/153/2 20/25/2 121/27/2
f 174/152/2 90/91/2 18/181/2
f 174/152/2 126/151/2 90/91/2
f 126/151/2 39/89/2 90/91/2
f 176/145/3 172/182/3 47/183/3
f 176/145/3 183/144/3 172/182/3
f 183/144/3 17/92/3 172/182/3
f 105/148/4 170/155/4 29/19/4
f 105/148/4 43/147/4 170/155/4
f 43/147/4 44/46/4 170/155/4
f 52/164/2 55/40/2 126/151/2
f 104/142/5 103/18/5 30/63/5
f 104/142/5 172/141/5 103/18/5
f 172/141/5 17/16/5 103/18/5
f 168/102/1 116/184/1 34/185/1
f 168/102/1 59/140/1 116/184/1
f 59/140/1 8/186/1 116/184/1
f 167/99/2 58/187/2 4/188/2
f 167/99/2 132/139/2 58/187/2
f 132/139/2 31/189/2 58/187/2
f 166/96/3 116/190/3 8/191/3
f 166/96/3 131/138/3 116/190/3
f 131/138/3 34/192/3 116/190/3
f 165/93/3 130/24/3 35/193/3
f 165/93/3 91/137/3 130/24/3
f 91/137/3 40/22/3 130/24/3
f 164/90/2 77/85/2 12/194/2
f 164/90/2 129/136/2 77/85/2
f 129/136/2 36/83/2 77/85/2
f 163/87/3 128/195/3 37/95/3
f 163/87/3 76/135/3 128/195/3
f 76/135/3 35/193/3 128/195/3
f 162/84/2 85/100/2 16/196/2
f 162/84/2 127/134/2 85/100/2
f 127/134/2 38/98/2 85/100/2
f 161/41/2 52/164/2 54/81/2
f 115/133/3 160/79/3 5/78/3
f 115/133/3 182/132/3 160/79/3
f 182/132/3 50/143/3 160/79/3
f 159/76/1 123/103/1 41/1/1
f 159/76/1 94/131/1 123/103/1
f 94/131/1 21/101/1 123/103/1
f 158/73/1 112/3/1 23/197/1
f 158/73/1 124/130/1 112/3/1
f 124/130/1 41/1/1 112/3/1
f 157/70/4 111/12/4 23/198/4
f 157/70/4 83/129/4 111/12/4
f 83/129/4 28/10/4 111/12/4
f 156/67/5 110/15/5 21/199/5
f 156/67/6 82/128/6 110/15/6
f 82/128/5 27/13/5 110/15/5
f 155/64/5 74/125/5 11/57/5
f 155/64/6 109/127/6 74/125/6
f 109/127/5 25/200/5 74/125/5
f 154/61/4 108/21/4 26/201/4
f 154/61/4 92/126/4 108/21/4
f 92/126/4 29/19/4 108/21/4
f 153/58/5 107/202/5 27/13/5
f 153/58/6 74/125/6 107/202/6
f 74/125/5 25/200/5 107/202/5
f 152/55/4 106/203/4 28/10/4
f 152/55/4 75/124/4 106/203/4
f 75/124/4 26/201/4 106/203/4
f 95/123/4 151/204/4 1/205/4
f 95/123/4 169/47/4 151/204/4
f 169/47/4 49/146/4 151/204/4
f 150/50/5 56/165/5 42/52/5
f 67/51/5 47/169/5 51/49/5
f 149/48/4 177/171/4 44/46/4
f 149/48/4 69/121/4 177/171/4
f 69/121/4 53/175/4 177/171/4
f 62/119/3 148/44/3 33/43/3
f 62/119/3 181/118/3 148/44/3
f 181/118/3 57/156/3 148/44/3
f 147/42/2 48/170/2 55/40/2
f 146/38/2 120/6/2 38/98/2
f 146/38/2 79/116/2 120/6/2
f 79/116/2 14/4/2 120/6/2
f 145/35/3 119/9/3 37/95/3
f 145/35/3 78/115/3 119/9/3
f 78/115/3 13/7/3 119/9/3
f 144/32/4 101/107/4 28/10/4
f 144/32/4 73/114/4 101/107/4
f 73/114/4 16/206/4 101/107/4
f 143/29/5 100/108/5 27/13/5
f 143/29/5 71/113/5 100/108/5
f 71/113/5 15/207/5 100/108/5
f 142/26/2 118/39/2 36/83/2
f 142/26/2 72/112/2 118/39/2
f 72/112/2 11/37/2 118/39/2
f 141/23/3 70/208/3 9/34/3
f 141/23/3 122/111/3 70/208/3
f 122/111/3 19/172/3 70/208/3
f 140/20/4 87/209/4 12/31/4
f 140/20/4 102/110/4 87/209/4
f 102/110/4 18/174/4 87/209/4
f 139/17/5 98/30/5 25/200/5
f 139/17/5 86/109/5 98/30/5
f 86/109/5 10/28/5 98/30/5
f 138/14/5 80/210/5 8/211/5
f 138/14/5 100/108/5 80/210/5
f 100/108/5 15/207/5 80/210/5
f 137/11/4 81/212/4 4/213/4
f 137/11/4 101/107/4 81/212/4
f 101/107/4 16/206/4 81/212/4
f 136/8/3 63/214/3 34/192/3
f 136/8/3 66/106/3 63/214/3
f 66/106/3 3/215/3 63/214/3
f 135/5/2 113/216/2 31/189/2
f 135/5/2 68/105/2 113/216/2
f 68/105/2 7/217/2 113/216/2
f 134/2/1 63/218/1 3/219/1
f 134/2/1 133/104/1 63/218/1
f 133/104/1 34/185/1 63/218/1
f 123/103/1 133/104/1 41/1/1
f 123/103/1 168/102/1 133/104/1
f 168/102/1 34/185/1 133/104/1
f 85/100/2 81/220/2 16/196/2
f 85/100/2 167/99/2 81/220/2
f 167/99/2 4/188/2 81/220/2
f 84/97/3 80/221/3 15/222/3
f 84/97/3 166/96/3 80/221/3
f 166/96/3 8/191/3 80/221/3
f 86/94/3 76/135/3 10/86/3
f 86/94/3 165/93/3 76/135/3
f 165/93/3 35/193/3 76/135/3
f 90/91/2 87/223/2 18/181/2
f 90/91/2 164/90/2 87/223/2
f 164/90/2 12/194/2 87/223/2
f 71/88/3 84/97/3 15/222/3
f 71/88/3 163/87/3 84/97/3
f 163/87/3 37/95/3 84/97/3
f 77/85/2 73/224/2 12/194/2
f 77/85/2 162/84/2 73/224/2
f 162/84/2 16/196/2 73/224/2
f 161/41/2 61/225/2 32/226/2
f 161/41/2 69/82/2 61/225/2
f 69/82/2 2/227/2 61/225/2
f 67/80/3 176/145/3 47/183/3
f 67/80/3 160/79/3 176/145/3
f 160/79/3 50/143/3 176/145/3
f 113/77/1 124/130/1 31/72/1
f 113/77/1 159/76/1 124/130/1
f 159/76/1 41/1/1 124/130/1
f 58/74/1 64/228/1 4/229/1
f 58/74/1 158/73/1 64/228/1
f 158/73/1 23/197/1 64/228/1
f 66/71/4 96/230/4 3/231/4
f 66/71/4 157/70/4 96/230/4
f 157/70/4 23/198/4 96/230/4
f 68/68/5 94/232/5 7/233/5
f 68/68/5 156/67/5 94/232/5
f 156/67/5 21/199/5 94/232/5
f 93/65/5 72/234/5 20/180/5
f 93/65/5 155/64/5 72/234/5
f 155/64/5 11/57/5 72/234/5
f 70/62/4 75/124/4 9/54/4
f 70/62/4 154/61/4 75/124/4
f 154/61/4 26/201/4 75/124/4
f 79/59/5 82/128/5 14/66/5
f 79/59/5 153/58/5 82/128/5
f 153/58/6 27/13/6 82/128/6
f 78/56/4 83/129/4 13/69/4
f 78/56/4 152/55/4 83/129/4
f 152/55/4 28/10/4 83/129/4
f 151/204/4 49/146/4 46/150/4
f 150/50/5 97/235/5 24/236/5
f 150/50/5 147/53/5 97/235/5
f 147/53/5 6/237/5 97/235/5
f 67/51/5 65/238/5 5/239/5
f 67/51/5 150/50/5 65/238/5
f 150/50/5 24/236/5 65/238/5
f 149/48/4 60/240/4 2/120/4
f 149/48/4 169/47/4 60/240/4
f 169/47/4 22/122/4 60/240/4
f 171/45/3 178/158/3 45/176/3
f 171/45/3 148/44/3 178/158/3
f 148/44/3 57/156/3 178/158/3
f 147/42/2 114/241/2 6/242/2
f 147/42/2 161/41/2 114/241/2
f 161/41/2 32/226/2 114/241/2
f 118/39/2 127/134/2 36/83/2
f 118/39/2 146/38/2 127/134/2
f 146/38/2 38/98/2 127/134/2
f 117/36/3 128/195/3 35/193/3
f 117/36/3 145/35/3 128/195/3
f 145/35/3 37/95/3 128/195/3
f 99/33/4 106/203/4 26/201/4
f 99/33/4 144/32/4 106/203/4
f 144/32/4 28/10/4 106/203/4
f 98/30/6 107/202/6 25/200/6
f 98/30/5 143/29/5 107/202/5
f 143/29/5 27/13/5 107/202/5
f 121/27/2 129/136/2 39/89/2
f 121/27/2 142/26/2 129/136/2
f 142/26/2 36/83/2 129/136/2
f 130/24/3 117/36/3 35/193/3
f 130/24/3 141/23/3 117/36/3
f 141/23/3 9/34/3 117/36/3
f 108/21/4 99/33/4 26/201/4
f 108/21/4 140/20/4 99/33/4
f 140/20/4 12/31/4 99/33/4
f 103/18/5 109/127/5 30/63/5
f 103/18/5 139/17/5 109/127/5
f 139/17/5 25/200/5 109/127/5
f 110/15/5 59/243/5 21/199/5
f 110/15/5 138/14/5 59/243/5
f 138/14/5 8/211/5 59/243/5
f 111/12/4 64/244/4 23/198/4
f 111/12/4 137/11/4 64/244/4
f 137/11/4 4/213/4 64/244/4
f 119/9/3 131/138/3 37/95/3
f 119/9/3 136/8/3 131/138/3
f 136/8/3 34/192/3 131/138/3
f 120/6/2 132/139/2 38/98/2
f 120/6/2 135/5/2 132/139/2
f 135/5/2 31/189/2 132/139/2
f 112/3/1 96/245/1 23/197/1
f 112/3/1 134/2/1 96/245/1
f 134/2/1 3/219/1 96/245/1
