# Blender v2.79 (sub 0) OBJ File: 'env.blend'
# www.blender.org
o Cube.001
v -0.475737 4.622305 57.989185
v 0.530172 4.712500 57.426556
v 0.623951 4.719862 57.791191
v 0.454292 5.081150 57.438629
v -0.475737 4.975972 57.989185
v 0.548070 5.088512 57.803261
v -0.534441 4.975972 57.640423
v -1.456634 5.240356 57.807461
v -0.534441 4.622305 57.640423
v 2.047606 5.455688 57.143124
v 1.917649 5.768915 57.244431
v -1.450431 5.261487 57.514309
v -2.730783 6.256778 57.971012
v -1.547734 4.984951 57.492317
v -1.553937 4.963821 57.785469
v -2.823085 6.269550 57.675560
v -3.661964 7.326568 58.200260
v -2.914860 6.012060 58.017941
v -3.007162 6.024832 57.722492
v 1.777572 5.814866 56.922668
v 3.030769 6.889613 56.298271
v 1.907529 5.501639 56.821362
v 3.233882 6.815582 56.562115
v 2.875293 7.128922 56.485107
v 3.078406 7.054891 56.748951
v -4.021401 7.151983 58.020615
v -3.888454 7.140318 58.300194
v -3.794909 7.338234 57.920685
vt 0.334295 0.705885
vt 0.336050 0.731377
vt 0.329573 0.730757
vt 0.336473 0.795357
vt 0.333368 0.821057
vt 0.329914 0.795954
vt 0.337803 0.719141
vt 0.329422 0.741618
vt 0.330068 0.718000
vt 0.334567 0.816791
vt 0.335730 0.792979
vt 0.340782 0.817539
vt 0.330768 0.737157
vt 0.337790 0.756956
vt 0.330188 0.758816
vt 0.329050 0.690335
vt 0.336113 0.688351
vt 0.330672 0.793196
vt 0.337235 0.750093
vt 0.337744 0.734857
vt 0.331408 0.715725
vt 0.337480 0.715718
vt 0.336753 0.741167
vt 0.331783 0.762924
vt 0.334691 0.708533
vt 0.335341 0.735943
vt 0.330229 0.735521
vt 0.331890 0.748362
vt 0.340782 0.713535
vt 0.337621 0.761323
vt 0.333433 0.796981
vt 0.334061 0.681369
vt 0.340490 0.680487
vt 0.337270 0.781243
vt 0.331909 0.782833
vt 0.338724 0.793339
vt 0.336254 0.829798
vt 0.331678 0.791452
vt 0.331179 0.753399
vt 0.337421 0.753462
vt 0.330995 0.775169
vt 0.332636 0.742775
vt 0.342078 0.732774
vt 0.342078 0.742667
vt 0.337244 0.775382
vt 0.334427 0.824003
vt 0.333702 0.708264
vt 0.339450 0.709781
vt 0.330925 0.650818
vt 0.337632 0.650643
vt 0.332636 0.751770
vt 0.341332 0.742790
vt 0.341332 0.751785
vt 0.339880 0.797718
vt 0.334802 0.828799
vt 0.333992 0.648869
vt 0.340397 0.649679
vt 0.340925 0.819398
vt 0.335757 0.821887
vt 0.340277 0.707206
vt 0.339450 0.819723
vt 0.340925 0.707967
vt 0.335616 0.710940
vt 0.342816 0.829978
vt 0.332636 0.732883
vt 0.340277 0.822977
vt 0.332636 0.742775
vt 0.341228 0.827799
vn 0.0866 -0.9962 -0.0048
vn 0.0830 -0.9965 -0.0113
vn 0.0879 -0.9961 -0.0025
vn -0.1035 0.9945 0.0152
vn -0.1068 0.9942 0.0097
vn -0.1079 0.9941 0.0077
vn 0.1783 0.0009 0.9840
vn 0.1772 0.0033 0.9842
vn 0.1768 0.0042 0.9842
vn 0.2678 0.9624 -0.0451
vn -0.1970 -0.0066 -0.9804
vn -0.1992 -0.0019 -0.9800
vn -0.1963 -0.0083 -0.9805
vn 0.4237 -0.1148 0.8985
vn 0.6275 0.7755 0.0692
vn 0.1448 0.0277 -0.9891
vn -0.1855 -0.0098 0.9826
vn -0.1856 -0.0028 0.9826
vn -0.1857 -0.0000 0.9826
vn -0.3263 -0.9423 -0.0748
vn 0.7186 0.6674 -0.1956
vn 0.0854 -0.1088 0.9904
vn -0.1638 -0.0656 -0.9843
vn -0.5599 -0.8167 0.1396
vn -0.4952 0.0745 -0.8656
vn -0.3755 0.8806 0.2892
vn -0.3788 -0.0477 -0.9243
vn 0.4243 -0.9010 -0.0909
vn 0.6616 0.6787 -0.3188
vn 0.6171 -0.6955 -0.3680
vn -0.5215 0.6280 0.5777
vn 0.5848 -0.2279 0.7785
vn -0.5304 0.7982 0.2855
vn 0.2639 -0.0136 0.9645
vn -0.3376 -0.0921 -0.9368
vn -0.6717 -0.6813 0.2910
vn 0.0817 -0.9966 -0.0137
vn -0.1023 0.9946 0.0172
vn 0.1787 0.0000 0.9839
vn 0.2873 0.9549 0.0749
vn -0.2000 0.0000 -0.9798
vn 0.3920 0.0506 0.9186
vn 0.5746 0.8055 -0.1447
vn 0.1446 0.0000 -0.9895
vn -0.1855 -0.0129 0.9826
vn -0.3105 -0.9491 0.0523
vn 0.6734 0.6793 -0.2918
vn 0.1729 0.0585 0.9832
vn -0.0801 0.1070 -0.9910
vn -0.6162 -0.7845 -0.0696
vn -0.5841 0.2286 -0.7788
vn -0.4141 0.9060 0.0882
vn -0.4170 0.1184 -0.9011
vn 0.3768 -0.8798 -0.2897
vn 0.5161 -0.6345 -0.5753
vn -0.6155 0.6972 0.3675
vn 0.5025 -0.0702 0.8617
vn 0.3372 0.0927 0.9369
vn -0.2662 0.0154 -0.9638
vn -0.7178 -0.6683 0.1954
s 1
f 1/1/1 2/2/2 3/3/3
f 4/4/4 5/5/5 6/6/6
f 6/7/7 1/8/8 3/9/9
f 7/10/10 8/11/10 5/12/10
f 9/13/11 4/14/12 2/15/13
f 6/7/14 10/16/14 11/17/14
f 12/18/15 13/19/15 8/11/15
f 7/20/16 14/21/16 12/22/16
f 5/23/17 15/24/18 1/8/19
f 9/25/20 15/26/20 14/27/20
f 16/28/21 17/29/21 13/19/21
f 8/30/22 18/31/22 15/24/22
f 12/22/23 19/32/23 16/33/23
f 14/27/24 18/34/24 19/35/24
f 20/36/25 21/37/25 22/38/25
f 4/4/26 11/39/26 20/40/26
f 4/14/27 22/38/27 2/15/27
f 2/2/28 10/41/28 3/3/28
f 23/42/29 24/43/29 25/44/29
f 22/45/30 23/46/30 10/41/30
f 20/40/31 25/47/31 24/48/31
f 11/17/32 23/49/32 25/50/32
f 17/51/33 26/52/33 27/53/33
f 13/54/34 27/55/34 18/31/34
f 16/33/35 26/56/35 28/57/35
f 19/35/36 27/58/36 26/59/36
f 1/1/1 9/60/37 2/2/2
f 4/4/4 7/61/38 5/5/5
f 6/7/7 5/23/39 1/8/8
f 7/10/40 12/18/40 8/11/40
f 9/13/11 7/20/41 4/14/12
f 6/7/42 3/9/42 10/16/42
f 12/18/43 16/28/43 13/19/43
f 7/20/44 9/13/44 14/21/44
f 5/23/17 8/30/45 15/24/18
f 9/25/46 1/62/46 15/26/46
f 16/28/47 28/63/47 17/29/47
f 8/30/48 13/54/48 18/31/48
f 12/22/49 14/21/49 19/32/49
f 14/27/50 15/26/50 18/34/50
f 20/36/51 24/64/51 21/37/51
f 4/4/52 6/6/52 11/39/52
f 4/14/53 20/36/53 22/38/53
f 2/2/54 22/45/54 10/41/54
f 23/42/29 21/65/29 24/43/29
f 22/45/55 21/66/55 23/46/55
f 20/40/56 11/39/56 25/47/56
f 11/17/57 10/16/57 23/49/57
f 17/51/33 28/67/33 26/52/33
f 13/54/58 17/68/58 27/55/58
f 16/33/59 19/32/59 26/56/59
f 19/35/60 18/34/60 27/58/60
o Cube.000_Cube.002
v 0.324833 4.622305 45.907143
v 1.073814 4.712500 46.783173
v 0.734653 4.719862 46.946644
v 1.047095 5.081150 46.711136
v 0.324833 4.975972 45.907143
v 0.707933 5.088512 46.874603
v 0.655308 4.975972 45.781181
v 0.310655 5.240356 44.909653
v 0.655308 4.622305 45.781181
v 1.649339 5.455688 48.215553
v 1.524512 5.768915 48.107986
v 0.599330 5.261487 44.858246
v -0.099603 6.256778 43.692322
v 0.601812 4.984951 44.758518
v 0.313136 4.963821 44.809929
v 0.172007 6.269550 43.543873
v -0.507022 7.326568 42.824184
v -0.181721 6.012060 43.521027
v 0.089889 6.024832 43.372574
v 1.812554 5.814866 47.907528
v 2.670602 6.889613 49.013931
v 1.937381 5.501639 48.015095
v 2.451715 6.815582 49.264847
v 2.456902 7.128922 48.898117
v 2.238015 7.054891 49.149029
v -0.401358 7.151983 42.436497
v -0.649432 7.140318 42.621693
v -0.258949 7.338234 42.638992
vt 0.334295 0.705885
vt 0.336050 0.731377
vt 0.329573 0.730757
vt 0.336473 0.795357
vt 0.333368 0.821057
vt 0.329914 0.795954
vt 0.337803 0.719141
vt 0.329422 0.741618
vt 0.330068 0.718000
vt 0.334567 0.816791
vt 0.335730 0.792979
vt 0.340782 0.817539
vt 0.330768 0.737157
vt 0.337790 0.756956
vt 0.330188 0.758816
vt 0.329050 0.690335
vt 0.336113 0.688351
vt 0.330672 0.793196
vt 0.337235 0.750093
vt 0.337744 0.734857
vt 0.331408 0.715725
vt 0.337480 0.715718
vt 0.336753 0.741167
vt 0.331783 0.762924
vt 0.334691 0.708533
vt 0.335341 0.735943
vt 0.330229 0.735521
vt 0.331890 0.748362
vt 0.340782 0.713535
vt 0.337621 0.761323
vt 0.333433 0.796981
vt 0.334061 0.681369
vt 0.340490 0.680487
vt 0.337270 0.781243
vt 0.331909 0.782833
vt 0.338724 0.793339
vt 0.336254 0.829798
vt 0.331678 0.791452
vt 0.331179 0.753399
vt 0.337421 0.753462
vt 0.330995 0.775169
vt 0.332636 0.742775
vt 0.342078 0.732774
vt 0.342078 0.742667
vt 0.337244 0.775382
vt 0.334427 0.824003
vt 0.333702 0.708264
vt 0.339450 0.709781
vt 0.330925 0.650818
vt 0.337632 0.650643
vt 0.332636 0.751770
vt 0.341332 0.742790
vt 0.341332 0.751785
vt 0.339880 0.797718
vt 0.334802 0.828799
vt 0.333992 0.648869
vt 0.340397 0.649679
vt 0.340925 0.819398
vt 0.335757 0.821887
vt 0.340277 0.707206
vt 0.339450 0.819723
vt 0.340925 0.707967
vt 0.335616 0.710940
vt 0.342816 0.829978
vt 0.332636 0.732883
vt 0.340277 0.822977
vt 0.332636 0.742775
vt 0.341228 0.827799
vn 0.0217 -0.9962 0.0840
vn 0.0273 -0.9965 0.0792
vn 0.0197 -0.9961 0.0857
vn -0.0352 0.9945 -0.0985
vn -0.0304 0.9942 -0.1028
vn -0.0287 0.9941 -0.1043
vn -0.9299 0.0009 0.3678
vn -0.9303 0.0033 0.3668
vn -0.9304 0.0042 0.3664
vn 0.0967 0.9624 0.2537
vn 0.9227 -0.0066 -0.3855
vn 0.9219 -0.0019 -0.3875
vn 0.9230 -0.0083 -0.3848
vn -0.7980 -0.1148 0.5917
vn 0.0552 0.7755 0.6289
vn 0.9983 0.0277 -0.0520
vn -0.9999 -0.0098 0.0108
vn -0.9999 -0.0028 0.0107
vn -0.9999 0.0000 0.0107
vn 0.0094 -0.9423 -0.3346
vn 0.3328 0.6674 0.6662
vn -0.9544 -0.1088 0.2780
vn 0.9331 -0.0656 -0.3536
vn -0.2467 -0.8167 -0.5217
vn 0.7517 0.0745 -0.6553
vn -0.3572 0.8806 -0.3115
vn 0.8320 -0.0477 -0.5527
vn 0.1724 -0.9010 0.3982
vn 0.4424 0.6787 0.5862
vn 0.4819 -0.6955 0.5330
vn -0.6687 0.6280 -0.3981
vn -0.6487 -0.2279 0.7261
vn -0.3840 0.7982 -0.4641
vn -0.8940 -0.0135 0.4479
vn 0.8524 -0.0921 -0.5147
vn -0.4170 -0.6813 -0.6016
vn 0.0295 -0.9966 0.0774
vn -0.0369 0.9946 -0.0969
vn -0.9298 0.0000 0.3682
vn -0.0171 0.9549 0.2964
vn 0.9216 0.0000 -0.3882
vn -0.8239 0.0506 0.5645
vn 0.2546 0.8055 0.5351
vn 0.9986 0.0000 -0.0522
vn -0.9999 -0.0129 0.0108
vn -0.1121 -0.9491 -0.2942
vn 0.4182 0.6793 0.6030
vn -0.9302 0.0585 0.3623
vn 0.9561 0.1070 -0.2729
vn -0.0526 -0.7845 -0.6178
vn 0.6492 0.2286 -0.7255
vn -0.1677 0.9060 -0.3887
vn 0.8019 0.1184 -0.5857
vn 0.3580 -0.8798 0.3127
vn 0.6654 -0.6345 0.3933
vn -0.4811 0.6972 -0.5315
vn -0.7464 -0.0702 0.6618
vn -0.8526 0.0927 0.5143
vn 0.8929 0.0154 -0.4500
vn -0.3324 -0.6683 -0.6655
s 1
f 29/69/61 30/70/62 31/71/63
f 32/72/64 33/73/65 34/74/66
f 34/75/67 29/76/68 31/77/69
f 35/78/70 36/79/70 33/80/70
f 37/81/71 32/82/72 30/83/73
f 34/75/74 38/84/74 39/85/74
f 40/86/75 41/87/75 36/79/75
f 35/88/76 42/89/76 40/90/76
f 33/91/77 43/92/78 29/76/79
f 37/93/80 43/94/80 42/95/80
f 44/96/81 45/97/81 41/87/81
f 36/98/82 46/99/82 43/92/82
f 40/90/83 47/100/83 44/101/83
f 42/95/84 46/102/84 47/103/84
f 48/104/85 49/105/85 50/106/85
f 32/72/86 39/107/86 48/108/86
f 32/82/87 50/106/87 30/83/87
f 30/70/88 38/109/88 31/71/88
f 51/110/89 52/111/89 53/112/89
f 50/113/90 51/114/90 38/109/90
f 48/108/91 53/115/91 52/116/91
f 39/85/92 51/117/92 53/118/92
f 45/119/93 54/120/93 55/121/93
f 41/122/94 55/123/94 46/99/94
f 44/101/95 54/124/95 56/125/95
f 47/103/96 55/126/96 54/127/96
f 29/69/61 37/128/97 30/70/62
f 32/72/64 35/129/98 33/73/65
f 34/75/67 33/91/99 29/76/68
f 35/78/100 40/86/100 36/79/100
f 37/81/71 35/88/101 32/82/72
f 34/75/102 31/77/102 38/84/102
f 40/86/103 44/96/103 41/87/103
f 35/88/104 37/81/104 42/89/104
f 33/91/77 36/98/105 43/92/78
f 37/93/106 29/130/106 43/94/106
f 44/96/107 56/131/107 45/97/107
f 36/98/108 41/122/108 46/99/108
f 40/90/109 42/89/109 47/100/109
f 42/95/110 43/94/110 46/102/110
f 48/104/111 52/132/111 49/105/111
f 32/72/112 34/74/112 39/107/112
f 32/82/113 48/104/113 50/106/113
f 30/70/114 50/113/114 38/109/114
f 51/110/89 49/133/89 52/111/89
f 50/113/115 49/134/115 51/114/115
f 48/108/116 39/107/116 53/115/116
f 39/85/117 38/84/117 51/117/117
f 45/119/93 56/135/93 54/120/93
f 41/122/118 45/136/118 55/123/118
f 44/101/119 47/100/119 54/124/119
f 47/103/120 46/102/120 55/126/120
o Plane.000_Plane.027
v -2.992403 8.639255 52.877186
v -3.074703 4.094157 52.752132
v -2.672774 8.557770 53.459183
v -1.748288 8.557770 53.247051
v -2.398683 5.949144 53.151611
v -1.651834 4.781093 53.745667
v -1.329442 8.557770 53.679871
v -0.938988 6.932418 53.371273
v -0.597642 8.557770 53.285336
v -0.158513 6.150255 53.260323
v -0.028421 8.557770 53.899914
v 0.428996 5.403719 54.040627
v 1.011527 8.557770 53.471069
v 1.702585 4.198583 53.712292
v 1.694271 8.557770 53.767532
vt 0.368661 0.994278
vt 0.259440 0.852310
vt 0.386968 0.977591
vt 0.339796 0.936636
vt 0.308961 0.953932
vt 0.268771 0.858718
vt 0.347211 0.986582
vt 0.259847 0.865196
vt 0.363862 0.971404
vt 0.300602 0.947488
vt 0.283423 0.883626
vt 0.327571 0.932058
vt 0.268094 0.889991
vt 0.332553 0.960705
vt 0.247379 0.913605
vt 0.300833 0.979092
vt 0.252206 0.864704
vt 0.338126 0.958962
vt 0.260795 0.860189
vt 0.377879 0.988635
vt 0.245396 0.879543
vn -0.8764 0.0026 0.4817
vn 0.2227 -0.0910 0.9706
vn -0.7167 0.0733 0.6935
vn 0.4739 -0.0530 0.8790
vn -0.7265 -0.1395 0.6729
vn 0.3795 0.0961 0.9202
vn -0.3983 -0.0124 0.9172
s 1
f 57/137/121 58/138/121 59/139/121
f 60/140/122 59/141/122 61/142/122
f 60/143/123 62/144/123 63/145/123
f 63/146/124 64/147/124 65/148/124
f 65/149/125 66/150/125 67/151/125
f 67/152/126 68/153/126 69/154/126
f 69/155/127 70/156/127 71/157/127
o Cube.020_Cube.021
v -0.813639 -0.719177 49.677124
v -0.913673 -0.651674 48.644173
v -0.246137 -0.836238 49.004665
v -0.517849 -0.016222 48.927513
v -0.997189 -0.241178 49.415611
v -0.452785 0.008964 49.447140
v 0.092809 -0.374456 49.406296
v -0.332964 -0.340530 48.579121
v -0.992217 -0.356968 48.885571
vt 0.115597 0.971702
vt 0.003632 0.943736
vt 0.067766 0.885284
vt 0.092991 0.943392
vt 0.019798 0.893533
vt 0.096728 0.885420
vt 0.031455 0.959916
vt 0.102280 0.888138
vt 0.102280 0.998803
vt 0.075328 0.991904
vt 0.010867 0.983853
vt 0.096728 0.985552
vt 0.022132 0.983637
vt 0.109962 0.925521
vt 0.108580 0.983637
vt 0.013698 0.889769
vt 0.018308 0.953620
vt 0.029148 0.894068
vt 0.021935 0.968176
vt 0.062733 0.886227
vt 0.015861 0.926743
vt 0.115597 0.877519
vn -0.2465 -0.9684 -0.0394
vn -0.4179 0.9085 0.0083
vn 0.2108 0.1979 0.9573
vn -0.9435 -0.3239 0.0702
vn -0.3845 0.5650 -0.7300
vn 0.5659 0.8170 -0.1105
vn 0.2408 -0.6076 -0.7569
vn -0.5631 0.8062 -0.1814
vn -0.2335 0.3962 0.8880
vn -0.9522 -0.3002 0.0566
vn -0.3241 0.5463 -0.7724
vn 0.6484 0.6975 -0.3052
vn 0.8597 -0.2377 -0.4522
vn 0.4342 -0.7512 0.4972
s 1
f 72/158/128 73/159/128 74/160/128
f 75/161/129 76/162/129 77/163/129
f 77/164/130 72/165/130 78/166/130
f 76/167/131 73/159/131 72/158/131
f 73/168/132 75/161/132 79/169/132
f 78/170/133 75/171/133 77/172/133
f 73/159/134 79/173/134 74/160/134
f 75/161/135 80/174/135 76/162/135
f 77/164/136 76/175/136 72/165/136
f 76/167/137 80/176/137 73/159/137
f 73/168/138 80/174/138 75/161/138
f 78/170/139 79/177/139 75/171/139
f 79/177/140 78/170/140 74/178/140
f 78/179/141 72/158/141 74/160/141
