# Blender v2.79 (sub 0) OBJ File: 'untitled.blend'
# www.blender.org
mtllib level.013.mtl
o level.013_Cube.181
v 4.998747 3.351942 49.343472
v -0.573256 -1.073565 49.343472
v 0.573238 8.923943 49.343472
v -4.998764 4.498436 49.343472
v -3.106634 5.416727 44.601788
v -1.491546 0.818564 44.601788
v 3.106617 2.433651 44.601788
v 1.491529 7.031813 44.601788
v -2.786009 1.712436 49.343472
v -2.299090 3.117646 44.601788
v 2.212746 1.139189 49.343472
v 2.785992 6.137941 49.343472
v -3.892386 3.105436 49.343472
v -2.212763 6.711188 49.343472
v -4.052699 4.957582 46.972633
v 1.032383 7.977878 46.972633
v 4.627280 4.423211 52.353012
v -4.627296 3.427167 52.593925
v 4.052682 2.892797 46.972633
v 2.299073 4.732732 44.601788
v -0.807552 6.224269 44.601788
v 0.502301 -0.705560 52.480602
v -0.502319 8.555937 52.466331
v -1.679633 0.319435 49.343472
v -2.702862 4.267186 44.601788
v -2.062498 1.360804 52.537266
v -2.542549 2.415040 46.972633
v -0.780098 0.327622 52.508934
v 2.564790 1.858826 52.416805
v -2.564807 5.991552 52.530125
v 2.062480 6.489573 52.409668
v -3.344897 2.393985 52.565594
v 2.542532 5.435337 46.972633
v -1.510157 6.467729 46.972633
v -3.297624 3.686311 46.972633
v 0.819745 0.032812 49.343472
v 1.679615 7.530941 49.343472
v -4.445575 3.801936 49.343472
v -3.605763 5.604813 49.343472
v -4.525731 4.728008 48.158051
v 0.802811 8.450911 48.158051
v 4.813014 3.887576 50.848240
v -4.813030 3.962801 50.968697
v -1.032401 -0.127500 46.972633
v 3.579650 2.663224 45.787209
v 1.895301 5.882273 44.601788
v -1.957093 5.820498 44.601788
v 0.807535 1.626108 44.601788
v -1.895318 1.968105 44.601788
v 1.040080 -0.521557 54.049171
v -1.040097 8.371934 54.027756
v -2.232821 1.015935 49.343472
v -2.500976 3.692416 44.601788
v -1.700741 1.184988 54.134163
v -2.664279 2.063738 48.158051
v 3.605746 2.245565 49.343472
v 3.892370 4.744942 49.343472
v -3.339198 2.408936 49.343472
v -0.819762 7.817565 49.343472
v -3.579666 5.187154 45.787209
v 1.261956 7.504845 45.787209
v 4.441546 4.958845 53.857780
v -4.441563 2.891533 54.219154
v 4.525715 3.122369 48.158051
v 2.702845 3.583192 44.601788
v 0.341988 6.628041 44.601788
v -0.035477 -0.889562 50.912037
v 0.035460 8.739940 50.904903
v -1.126444 -0.377065 49.343472
v -2.904747 4.841957 44.601788
v -2.424254 1.536620 50.940365
v -2.420820 2.766343 45.787209
v -2.111091 1.367238 48.158051
v -0.330331 0.331715 54.091667
v -1.229866 0.323529 50.926205
v -0.138899 -0.188969 52.494770
v -1.421298 0.844213 52.523098
v 2.740812 2.218644 53.953476
v 2.388768 1.499007 50.880138
v 3.596035 3.141018 52.384911
v 1.533546 0.576633 52.448704
v -2.740830 5.631734 54.123451
v -2.388785 6.351370 50.936802
v -3.596051 4.709359 52.562027
v -1.533563 7.273744 52.498226
v 1.700724 6.665389 53.942768
v 2.424237 6.313758 50.876568
v 0.780081 7.522755 52.438000
v 3.344880 5.456393 52.381340
v -3.071152 2.038260 54.176655
v -3.618642 2.749711 50.954533
v -2.703697 1.877395 52.551430
v -3.986097 2.910576 52.579758
v 2.664262 5.786640 48.158051
v 2.420803 5.084035 45.787209
v 1.787458 6.706607 46.972633
v 3.297607 4.164067 46.972633
v -1.861460 6.589458 48.158051
v -1.158855 6.345999 45.787209
v -2.781428 5.712656 46.972633
v -0.238887 7.222804 46.972633
v 3.132714 2.015993 48.158051
v -3.595005 3.395874 48.158051
v -3.000243 3.976748 45.787209
v -2.920087 3.050676 46.972633
v -3.675161 4.321946 46.972633
v -3.972543 4.031508 48.158051
v -0.468460 7.695835 48.158051
v 3.770640 4.393639 48.158051
v -3.800363 2.374942 54.204983
v 3.159146 5.992027 53.886108
v -2.071342 7.089741 54.059654
v 2.071324 0.760635 54.017273
v -1.059542 0.668397 54.119995
v -1.585589 0.569000 46.972633
v -2.017048 1.616802 45.787209
v 0.310869 -0.184875 54.077499
v -0.676677 -0.372971 50.926205
v -1.871065 0.840120 50.940365
v 3.772057 3.500837 53.921577
v 3.781769 2.605383 50.880138
v 1.357523 0.216814 50.912037
v -3.772074 4.349541 54.155354
v -3.781785 5.244994 50.936802
v -1.357540 7.633563 50.904903
v 0.418325 7.698571 53.971100
v 1.317859 7.706758 50.876568
v 3.706636 5.280577 50.848240
v -2.429953 1.521670 54.162487
v -3.065453 2.053210 50.954533
v -4.259841 3.266302 50.968697
v 1.909188 7.057909 48.158051
v 2.017031 6.233574 45.787209
v 3.175878 3.812764 45.787209
v -3.132730 5.834385 48.158051
v -2.308396 5.942228 45.787209
v 0.112415 7.101073 45.787209
v 2.659681 1.786420 46.972633
v 0.360600 0.978876 46.972633
v -3.217468 2.760238 48.158051
v -2.798357 3.401978 45.787209
v -3.377780 4.612384 45.787209
vt 0.063790 0.673256
vt 0.054450 0.682731
vt 0.058271 0.672779
vt 0.097916 0.689167
vt 0.086822 0.682107
vt 0.098391 0.678098
vt 0.046209 0.709890
vt 0.040773 0.697279
vt 0.052719 0.701160
vt 0.075755 0.695515
vt 0.067855 0.684400
vt 0.080300 0.685732
vt 0.018118 0.664267
vt 0.009375 0.652119
vt 0.015826 0.650312
vt 0.031550 0.655249
vt 0.026476 0.640038
vt 0.039173 0.643699
vt 0.069100 0.722264
vt 0.077946 0.736437
vt 0.064366 0.735695
vt 0.049863 0.644761
vt 0.041787 0.629697
vt 0.054896 0.631979
vt 0.040984 0.657615
vt 0.033711 0.645178
vt 0.040163 0.643371
vt 0.021233 0.690184
vt 0.031473 0.680766
vt 0.027202 0.690690
vt 0.041713 0.671347
vt 0.035846 0.660524
vt 0.052416 0.654289
vt 0.045879 0.641708
vt 0.052331 0.639901
vt 0.052588 0.683067
vt 0.046786 0.670341
vt 0.052502 0.668677
vt 0.042626 0.686104
vt 0.036089 0.673522
vt 0.041805 0.671859
vt 0.073051 0.648522
vt 0.066490 0.633860
vt 0.079599 0.636141
vt 0.059954 0.673284
vt 0.054908 0.659023
vt 0.066503 0.660903
vt 0.039795 0.670326
vt 0.033235 0.655664
vt 0.044829 0.657544
vt 0.044760 0.720427
vt 0.052196 0.734776
vt 0.038615 0.734034
vt 0.057048 0.693216
vt 0.063074 0.707739
vt 0.050904 0.706822
vt 0.078570 0.695405
vt 0.086005 0.709753
vt 0.073835 0.708834
vt 0.053765 0.662070
vt 0.050281 0.647110
vt 0.062978 0.650771
vt 0.035337 0.684668
vt 0.033443 0.669958
vt 0.044551 0.673369
vt 0.016302 0.678348
vt 0.012819 0.663387
vt 0.023926 0.666798
vt 0.029551 0.660942
vt 0.021543 0.648649
vt 0.027995 0.646841
vt 0.032664 0.689142
vt 0.025391 0.676705
vt 0.031108 0.675042
vt 0.022702 0.692179
vt 0.014694 0.679886
vt 0.020410 0.678224
vt 0.098515 0.698042
vt 0.091680 0.686997
vt 0.104126 0.688330
vt 0.087292 0.717467
vt 0.081523 0.706491
vt 0.092903 0.707754
vt 0.066664 0.715078
vt 0.059829 0.704032
vt 0.071209 0.705296
vt 0.068020 0.716992
vt 0.063624 0.704711
vt 0.075569 0.708593
vt 0.052920 0.733790
vt 0.049564 0.721840
vt 0.060470 0.725391
vt 0.033191 0.727349
vt 0.028795 0.715069
vt 0.039700 0.718620
vt 0.058080 0.724406
vt 0.066904 0.699727
vt 0.077522 0.717854
vt 0.043412 0.681776
vt 0.037442 0.681271
vt 0.050256 0.651499
vt 0.051504 0.661901
vt 0.045984 0.661423
vt 0.060394 0.652399
vt 0.062092 0.662828
vt 0.056573 0.662350
vt 0.060419 0.683235
vt 0.035304 0.706339
vt 0.064375 0.694250
vt 0.012402 0.665931
vt 0.020442 0.651838
vt 0.081271 0.723182
vt 0.038268 0.642881
vt 0.035267 0.659278
vt 0.009294 0.689174
vt 0.019637 0.669438
vt 0.015263 0.689680
vt 0.040117 0.650601
vt 0.046700 0.655952
vt 0.014172 0.703400
vt 0.024426 0.704372
vt 0.061457 0.646642
vt 0.098867 0.667030
vt 0.087298 0.671039
vt 0.084144 0.657924
vt 0.075728 0.675048
vt 0.064158 0.679058
vt 0.064072 0.664669
vt 0.056930 0.721346
vt 0.083119 0.700194
vt 0.071174 0.696313
vt 0.077373 0.683729
vt 0.059228 0.692431
vt 0.047282 0.688549
vt 0.056496 0.677250
vt 0.042657 0.658660
vt 0.109737 0.678618
vt 0.097291 0.677284
vt 0.100618 0.664230
vt 0.084846 0.675951
vt 0.072400 0.674617
vt 0.078948 0.662237
vt 0.023835 0.662605
vt 0.033171 0.691195
vt 0.039141 0.691700
vt 0.034680 0.705344
vt 0.045109 0.692205
vt 0.051079 0.692710
vt 0.044935 0.706317
vt 0.087135 0.696779
vt 0.076978 0.716273
vt 0.056349 0.713884
vt 0.057114 0.713441
vt 0.043055 0.730570
vt 0.023326 0.724128
vt 0.097440 0.700235
vt 0.055334 0.703736
vt 0.047233 0.671825
vt 0.055325 0.651949
vt 0.065464 0.652848
vt 0.067162 0.663277
vt 0.070533 0.653298
vt 0.052752 0.672302
vt 0.048931 0.682253
vt 0.086346 0.693176
vt 0.096964 0.711303
vt 0.018930 0.711848
vt 0.024399 0.702788
vt 0.013462 0.720908
vt 0.049515 0.702838
vt 0.052995 0.692987
vt 0.046035 0.712690
vt 0.040650 0.705850
vt 0.036190 0.719493
vt 0.088173 0.662897
vt 0.091499 0.649842
vt 0.065428 0.679847
vt 0.071627 0.667263
vt 0.072574 0.661932
vt 0.069421 0.648817
vt 0.030395 0.704877
vt 0.027620 0.718559
vt 0.020141 0.703905
vt 0.019050 0.717625
vt 0.029978 0.649702
vt 0.025606 0.669943
vt 0.030193 0.627816
vt 0.026674 0.641001
vt 0.090116 0.737355
vt 0.093441 0.724101
vt 0.015369 0.636627
vt 0.009335 0.648427
vt 0.003658 0.653782
vt 0.006685 0.667593
vt 0.056475 0.683135
vt 0.029868 0.693728
vn 0.8138 0.4834 0.3226
vn -0.6191 0.7794 0.0961
vn 0.6012 -0.7570 0.2559
vn -0.7570 -0.6012 0.2559
vn 0.4198 0.8987 0.1271
vn -0.4190 -0.9080 0.0053
vn 0.9089 -0.4171 0.0062
vn -0.9086 0.4175 0.0063
vn 0.4123 0.9032 -0.1195
vn 0.7570 0.6012 0.2559
vn 0.8847 0.4586 0.0834
vn 0.3991 0.8847 -0.2406
vn 0.5961 0.7479 -0.2921
vn 0.6151 0.7684 -0.1768
vn -0.8841 0.3950 -0.2497
vn -0.7463 0.5927 -0.3031
vn -0.7787 0.6248 -0.0571
vn 0.8789 -0.4140 -0.2369
vn 0.7436 -0.6051 -0.2844
vn 0.7774 -0.6266 -0.0556
vn -0.4142 -0.8763 -0.2459
vn -0.6034 -0.7408 -0.2951
vn -0.6271 -0.7767 -0.0589
vn 0.4193 0.9078 0.0050
vn 0.6256 0.7781 -0.0561
vn 0.6269 0.7764 0.0649
vn -0.7794 -0.6191 0.0961
vn -0.8592 -0.5103 0.0372
vn -0.8361 -0.4966 0.2330
vn 0.6191 -0.7794 0.0961
vn 0.5103 -0.8592 0.0372
vn 0.4966 -0.8361 0.2330
vn -0.3253 0.9260 0.1915
vn 0.8361 0.4966 0.2330
vn 0.7186 0.5707 0.3973
vn 0.4671 -0.7864 0.4043
vn -0.7864 -0.4671 0.4043
vn 0.6194 0.7639 0.1810
vn -0.6125 -0.7656 0.1969
vn 0.7671 -0.6122 0.1920
vn -0.7629 0.6183 0.1890
vn 0.7794 0.6191 0.0961
vn 0.9260 0.3253 0.1915
vn 0.7641 0.6069 -0.2187
vn 0.7785 0.6183 -0.1083
vn -0.6181 0.7782 -0.1114
vn -0.6174 0.7774 0.1205
vn 0.6183 -0.7785 -0.1075
vn 0.6174 -0.7773 0.1210
vn -0.7781 -0.6180 -0.1127
vn -0.7770 -0.6172 0.1238
vn 0.7831 0.6219 0.0043
vn 0.7779 0.6178 0.1147
vn -0.9260 -0.3253 0.1915
vn -0.8634 -0.3033 0.4033
vn 0.3253 -0.9260 0.1915
vn 0.3033 -0.8634 0.4033
vn -0.5708 0.7186 0.3973
vn 0.8992 0.3158 0.3029
vn 0.8634 0.3033 0.4033
vn 0.7186 0.5708 0.3973
usemtl Material
s off
f 15/1/1 107/2/1 106/3/1
f 19/4/2 102/5/2 64/6/2
f 34/7/3 108/8/3 98/9/3
f 33/10/4 109/11/4 94/12/4
f 32/13/5 110/14/5 90/15/5
f 31/16/6 111/17/6 86/18/6
f 30/19/7 112/20/7 82/21/7
f 29/22/8 113/23/8 78/24/8
f 28/25/9 114/26/9 74/27/9
f 24/28/10 73/29/10 52/30/10
f 27/31/11 73/29/11 116/32/11
f 22/33/12 117/34/12 50/35/12
f 2/36/13 118/37/13 67/38/13
f 24/39/14 119/40/14 75/41/14
f 17/42/15 120/43/15 62/44/15
f 1/45/16 121/46/16 42/47/16
f 11/48/17 122/49/17 79/50/17
f 18/51/18 123/52/18 63/53/18
f 4/54/19 124/55/19 43/56/19
f 14/57/20 125/58/20 83/59/20
f 23/60/21 126/61/21 51/62/21
f 3/63/22 127/64/22 68/65/22
f 12/66/23 128/67/23 87/68/23
f 26/69/24 129/70/24 54/71/24
f 9/72/25 130/73/25 71/74/25
f 13/75/26 131/76/26 91/77/26
f 16/78/27 132/79/27 41/80/27
f 8/81/28 133/82/28 61/83/28
f 20/84/29 134/85/29 95/86/29
f 15/87/30 135/88/30 40/89/30
f 5/90/31 136/91/31 60/92/31
f 21/93/32 137/94/32 99/95/32
f 6/96/33 139/97/33 48/98/33
f 27/31/10 140/99/10 55/100/10
f 10/101/34 141/102/34 72/103/34
f 25/104/1 142/105/1 104/106/1
f 15/1/35 40/107/35 107/2/35
f 34/7/36 101/108/36 108/8/36
f 33/10/37 97/109/37 109/11/37
f 32/13/38 93/110/38 110/14/38
f 31/16/39 89/111/39 111/17/39
f 30/19/40 85/112/40 112/20/40
f 29/22/41 81/113/41 113/23/41
f 28/25/25 77/114/25 114/26/25
f 2/115/42 44/116/42 69/117/42
f 10/101/43 72/103/43 49/118/43
f 22/33/14 76/119/14 117/34/14
f 2/115/44 69/117/44 118/120/44
f 24/28/45 52/30/45 119/121/45
f 17/42/17 80/122/17 120/43/17
f 1/123/46 56/124/46 121/125/46
f 11/126/47 36/127/47 122/128/47
f 18/51/20 84/129/20 123/52/20
f 4/130/48 39/131/48 124/132/48
f 14/133/49 59/134/49 125/135/49
f 23/60/23 88/136/23 126/61/23
f 3/137/50 37/138/50 127/139/50
f 12/140/51 57/141/51 128/142/51
f 26/69/26 92/143/26 129/70/26
f 9/144/52 58/145/52 130/146/52
f 13/147/53 38/148/53 131/149/53
f 16/78/29 96/150/29 132/79/29
f 8/81/54 46/151/54 133/82/54
f 20/84/55 65/152/55 134/85/55
f 15/87/32 100/153/32 135/88/32
f 5/90/56 47/154/56 136/91/56
f 21/93/57 66/155/57 137/94/57
f 19/4/2 45/156/2 102/5/2
f 6/96/58 44/157/58 139/97/58
f 27/31/1 105/158/1 140/99/1
f 10/101/59 53/159/59 141/102/59
f 25/104/60 70/160/60 142/105/60
f 142/105/60 60/161/60 15/1/60
f 142/105/60 70/160/60 60/161/60
f 70/160/60 5/162/60 60/161/60
f 141/102/59 104/106/59 35/163/59
f 141/102/59 53/159/59 104/106/59
f 53/159/59 25/104/59 104/106/59
f 140/99/1 103/164/1 13/147/1
f 140/99/1 105/158/1 103/164/1
f 105/158/1 35/163/1 103/164/1
f 139/97/58 36/127/58 11/126/58
f 139/97/58 44/157/58 36/127/58
f 44/157/58 2/36/58 36/127/58
f 102/5/2 138/165/2 11/126/2
f 102/5/2 45/156/2 138/165/2
f 45/156/2 7/166/2 138/165/2
f 137/94/57 61/167/57 16/168/57
f 137/94/57 66/155/57 61/167/57
f 66/155/57 8/169/57 61/167/57
f 136/91/56 99/95/56 34/7/56
f 136/91/56 47/154/56 99/95/56
f 47/154/56 21/93/56 99/95/56
f 135/88/32 98/9/32 14/133/32
f 135/88/32 100/153/32 98/9/32
f 100/153/32 34/7/32 98/9/32
f 134/85/55 45/170/55 19/171/55
f 134/85/55 65/152/55 45/170/55
f 65/152/55 7/172/55 45/170/55
f 133/82/54 95/86/54 33/10/54
f 133/82/54 46/151/54 95/86/54
f 46/151/54 20/84/54 95/86/54
f 132/79/29 94/12/29 12/140/29
f 132/79/29 96/150/29 94/12/29
f 96/150/29 33/10/29 94/12/29
f 131/149/53 43/56/53 18/51/53
f 131/149/53 38/148/53 43/56/53
f 38/148/53 4/54/53 43/56/53
f 130/146/52 91/173/52 32/174/52
f 130/146/52 58/145/52 91/173/52
f 58/145/52 13/147/52 91/173/52
f 129/70/26 92/143/26 90/15/26
f 92/143/26 32/13/26 90/15/26
f 128/142/51 42/47/51 17/42/51
f 128/142/51 57/141/51 42/47/51
f 57/141/51 1/45/51 42/47/51
f 127/139/50 87/175/50 31/176/50
f 127/139/50 37/138/50 87/175/50
f 37/138/50 12/140/50 87/175/50
f 126/61/23 88/136/23 86/18/23
f 88/136/23 31/16/23 86/18/23
f 125/135/49 68/65/49 23/60/49
f 125/135/49 59/134/49 68/65/49
f 59/134/49 3/63/49 68/65/49
f 124/132/48 83/177/48 30/178/48
f 124/132/48 39/131/48 83/177/48
f 39/131/48 14/133/48 83/177/48
f 123/52/20 84/129/20 82/21/20
f 84/129/20 30/19/20 82/21/20
f 122/128/47 67/38/47 22/33/47
f 122/128/47 36/127/47 67/38/47
f 36/127/47 2/36/47 67/38/47
f 121/125/46 79/179/46 29/180/46
f 121/125/46 56/124/46 79/179/46
f 56/124/46 11/126/46 79/179/46
f 120/43/17 80/122/17 78/24/17
f 80/122/17 29/22/17 78/24/17
f 119/121/45 71/181/45 26/182/45
f 119/121/45 52/30/45 71/181/45
f 52/30/45 9/144/45 71/181/45
f 118/120/44 75/183/44 28/184/44
f 118/120/44 69/117/44 75/183/44
f 69/117/44 24/28/44 75/183/44
f 117/34/14 76/119/14 74/27/14
f 76/119/14 28/25/14 74/27/14
f 49/118/43 116/32/43 6/185/43
f 49/118/43 72/103/43 116/32/43
f 72/103/43 27/31/43 116/32/43
f 69/117/42 115/186/42 24/28/42
f 69/117/42 44/116/42 115/186/42
f 44/116/42 6/185/42 115/186/42
f 114/26/25 77/114/25 54/71/25
f 77/114/25 26/69/25 54/71/25
f 113/23/41 81/113/41 50/187/41
f 81/113/41 22/188/41 50/187/41
f 112/20/40 85/112/40 51/189/40
f 85/112/40 23/190/40 51/189/40
f 111/17/39 89/111/39 62/191/39
f 89/111/39 17/192/39 62/191/39
f 110/14/38 93/110/38 63/193/38
f 93/110/38 18/194/38 63/193/38
f 109/11/37 64/195/37 1/45/37
f 109/11/37 97/109/37 64/195/37
f 97/109/37 19/171/37 64/195/37
f 108/8/36 41/196/36 3/63/36
f 108/8/36 101/108/36 41/196/36
f 101/108/36 16/168/36 41/196/36
f 107/2/61 38/148/61 13/147/61
f 107/2/61 40/107/61 38/148/61
f 40/107/35 4/54/35 38/148/35
f 104/106/1 106/3/1 35/163/1
f 104/106/1 142/105/1 106/3/1
f 142/105/1 15/1/1 106/3/1
f 72/103/34 105/158/34 27/31/34
f 72/103/34 141/102/34 105/158/34
f 141/102/34 35/163/34 105/158/34
f 55/100/10 58/145/10 9/144/10
f 55/100/10 140/99/10 58/145/10
f 140/99/10 13/147/10 58/145/10
f 48/98/33 138/165/33 7/166/33
f 48/98/33 139/97/33 138/165/33
f 139/97/33 11/126/33 138/165/33
f 99/95/32 101/108/32 34/7/32
f 99/95/32 137/94/32 101/108/32
f 137/94/32 16/168/32 101/108/32
f 60/92/31 100/153/31 15/87/31
f 60/92/31 136/91/31 100/153/31
f 136/91/31 34/7/31 100/153/31
f 40/89/30 39/131/30 4/130/30
f 40/89/30 135/88/30 39/131/30
f 135/88/30 14/133/30 39/131/30
f 95/86/29 97/109/29 33/10/29
f 95/86/29 134/85/29 97/109/29
f 134/85/29 19/171/29 97/109/29
f 61/83/28 96/150/28 16/78/28
f 61/83/28 133/82/28 96/150/28
f 133/82/28 33/10/28 96/150/28
f 41/80/27 37/138/27 3/137/27
f 41/80/27 132/79/27 37/138/27
f 132/79/27 12/140/27 37/138/27
f 91/77/26 93/110/26 32/13/26
f 91/77/26 131/76/26 93/110/26
f 131/76/26 18/194/26 93/110/26
f 71/74/25 92/143/25 26/69/25
f 71/74/25 130/73/25 92/143/25
f 130/73/25 32/13/25 92/143/25
f 87/68/23 89/111/23 31/16/23
f 87/68/23 128/67/23 89/111/23
f 128/67/23 17/192/23 89/111/23
f 68/65/22 88/136/22 23/60/22
f 68/65/22 127/64/22 88/136/22
f 127/64/22 31/16/22 88/136/22
f 83/59/20 85/112/20 30/19/20
f 83/59/20 125/58/20 85/112/20
f 125/58/20 23/190/20 85/112/20
f 43/56/19 84/129/19 18/51/19
f 43/56/19 124/55/19 84/129/19
f 124/55/19 30/19/19 84/129/19
f 79/50/17 81/113/17 29/22/17
f 79/50/17 122/49/17 81/113/17
f 122/49/17 22/188/17 81/113/17
f 42/47/16 80/122/16 17/42/16
f 42/47/16 121/46/16 80/122/16
f 121/46/16 29/22/16 80/122/16
f 75/41/14 77/114/14 28/25/14
f 75/41/14 119/40/14 77/114/14
f 119/40/14 26/69/14 77/114/14
f 67/38/13 76/119/13 22/33/13
f 67/38/13 118/37/13 76/119/13
f 118/37/13 28/25/13 76/119/13
f 116/32/11 115/186/11 6/185/11
f 116/32/11 73/29/11 115/186/11
f 73/29/11 24/28/11 115/186/11
f 52/30/10 55/100/10 9/144/10
f 52/30/10 73/29/10 55/100/10
f 73/29/10 27/31/10 55/100/10
f 94/12/4 57/141/4 12/140/4
f 94/12/4 109/11/4 57/141/4
f 109/11/4 1/45/4 57/141/4
f 98/9/3 59/134/3 14/133/3
f 98/9/3 108/8/3 59/134/3
f 108/8/3 3/63/3 59/134/3
f 64/6/2 56/124/2 1/123/2
f 64/6/2 102/5/2 56/124/2
f 102/5/2 11/126/2 56/124/2
f 106/3/1 103/164/1 35/163/1
f 106/3/1 107/2/1 103/164/1
f 107/2/1 13/147/1 103/164/1
