# Blender v2.79 (sub 0) OBJ File: ''
# www.blender.org
mtllib level.018.mtl
o level.018_Cube.186
v 3.276709 -2.155739 -6.265471
v 3.276709 -2.155739 0.287946
v -3.276709 -2.155739 0.287945
v -3.276707 -2.155739 -6.265472
v 4.137940 5.815639 -7.126698
v 4.137936 5.815639 1.149178
v -4.137940 5.815639 1.149174
v -4.137938 5.815639 -7.126701
v 3.276709 -2.155739 -2.988762
v -3.276708 -2.155739 -2.988763
v 4.137938 5.815639 -2.988760
v -4.137938 5.815639 -2.988763
v 0.000001 -2.155739 -6.265471
v 0.000000 -2.155739 0.287946
v 0.000001 5.815639 -7.126700
v -0.000002 5.815639 1.149176
v -0.000000 5.815639 -2.988762
v 0.000000 -2.155739 -2.988763
v 3.707325 1.829950 -6.696085
v -3.707325 1.829950 0.718560
v -3.707322 1.829950 -6.696086
v 0.000001 1.829950 -6.696085
v 3.276709 -2.155739 -1.350408
v -1.638353 -2.155739 -6.265471
v 3.922632 3.822794 -6.911392
v -1.638354 -2.155739 0.287946
v -3.276707 -2.155739 -4.627118
v -3.922632 3.822794 0.933867
v -3.922630 3.822794 -6.911394
v 4.137937 5.815639 -0.919791
v -2.068968 5.815639 -7.126700
v -2.068971 5.815639 1.149175
v -4.137938 5.815639 -5.057731
v 2.934575 -1.670243 1.693640
v 6.214031 -2.155739 -6.265470
v -4.525332 -2.155739 -6.265472
v -4.642233 -2.155739 0.287945
v 3.276709 -2.155739 -4.627117
v -3.276709 -2.155739 -1.350409
v 4.137939 5.815639 -5.057729
v -4.137939 5.815639 -0.919795
v -2.068969 5.815639 -2.988762
v 1.638354 -2.155739 -2.988763
v -6.444917 -2.155739 -2.988764
v 6.214031 -2.155739 -2.988762
v -2.934576 -1.670243 1.693639
v 1.638355 -2.155739 -6.265471
v 1.638354 -2.155739 0.287946
v 2.068971 5.815639 -7.126699
v 2.068967 5.815639 1.149177
v 2.068969 5.815639 -2.988761
v -1.638354 -2.155739 -2.988763
v 0.000000 -2.155739 -4.627118
v 0.000000 5.815639 -5.057730
v 0.000001 -0.162894 -6.480779
v -0.000001 5.815639 -0.919793
v 0.000000 -2.155739 -1.350409
v 3.492017 -0.162894 -6.480778
v -3.492017 -0.162894 0.503253
v -3.492015 -0.162894 -6.480779
v 0.000001 3.822794 -6.911392
v 1.853663 1.829950 -6.696085
v -1.853661 1.829950 -6.696086
v -1.638354 -2.155739 -1.350409
v -2.068970 5.815639 -0.919794
v -1.638353 -0.162894 -6.480779
v -2.068969 5.815639 -5.057731
v -1.638353 -2.155739 -4.627118
v -6.444917 -2.155739 -1.350410
v -5.095047 0.893408 0.617375
v -6.444917 -2.155739 -4.627119
v -5.217347 2.612087 -6.697209
v 6.214031 -2.155739 -4.627116
v 6.214031 -2.155739 -1.350407
v -1.296221 -1.670243 1.693640
v 1.296221 -1.670243 1.693640
v 1.638354 -2.155739 -4.627118
v 2.068970 5.815639 -5.057729
v 1.638355 -0.162894 -6.480778
v 2.068968 5.815639 -0.919792
v 1.638354 -2.155739 -1.350408
v 1.853663 3.822794 -6.911392
v -5.385867 2.699373 0.719807
v -1.853661 3.822794 -6.911393
v -4.742956 -1.007125 -6.389568
v -4.879741 -1.099437 0.402068
v -4.957271 0.986368 -6.603702
vt 0.175638 0.772455
vt 0.187201 0.783933
vt 0.175638 0.783934
vt 0.179267 0.952455
vt 0.190684 0.941124
vt 0.190684 0.952455
vt 0.063570 0.925143
vt 0.054751 0.914322
vt 0.063568 0.914322
vt 0.224933 0.952454
vt 0.213516 0.941124
vt 0.224933 0.941124
vt 0.152512 0.772455
vt 0.164075 0.783934
vt 0.152512 0.783934
vt 0.164075 0.750258
vt 0.164075 0.772455
vt 0.175638 0.818370
vt 0.164075 0.838950
vt 0.164075 0.818370
vt 0.198765 0.818370
vt 0.187201 0.838949
vt 0.187201 0.818370
vt 0.198765 0.795412
vt 0.208766 0.804497
vt 0.198765 0.806891
vt 0.152512 0.818370
vt 0.164075 0.806891
vt 0.202100 0.975115
vt 0.213516 0.963784
vt 0.213516 0.975114
vt 0.072386 0.914322
vt 0.073546 0.925143
vt 0.179267 0.975115
vt 0.190684 0.963784
vt 0.190684 0.975115
vt 0.175638 0.795412
vt 0.187201 0.806891
vt 0.175638 0.806891
vt 0.063572 0.946783
vt 0.073547 0.935963
vt 0.074707 0.946783
vt 0.053594 0.935963
vt 0.063571 0.935963
vt 0.187201 0.772455
vt 0.179267 0.941124
vt 0.053593 0.925143
vt 0.213516 0.952454
vt 0.198765 0.772455
vt 0.187201 0.750257
vt 0.050301 0.936853
vt 0.056870 0.928825
vt 0.061080 0.936853
vt 0.198765 0.783933
vt 0.208766 0.786333
vt 0.152512 0.806891
vt 0.202100 0.963784
vt 0.179267 0.963784
vt 0.187201 0.795412
vt 0.052436 0.946783
vt 0.051086 0.929490
vt 0.038041 0.909739
vt 0.039212 0.903502
vt 0.045932 0.903502
vt 0.042459 0.935963
vt 0.043616 0.925143
vt 0.041301 0.946783
vt 0.083523 0.925143
vt 0.202100 0.952454
vt 0.072385 0.903502
vt 0.081203 0.903502
vt 0.063568 0.903502
vt 0.164075 0.795413
vt 0.152512 0.795413
vt 0.208766 0.774854
vt 0.035489 0.929384
vt 0.064443 0.924427
vt 0.075222 0.924427
vt 0.071012 0.916399
vt 0.175638 0.750258
vt 0.202100 0.941124
vt 0.202100 0.929794
vt 0.044774 0.914322
vt 0.190684 0.929794
vt 0.179267 0.929794
vt 0.061080 0.930375
vt 0.051150 0.930375
vt 0.056753 0.921097
vt 0.056616 0.972468
vt 0.046879 0.975945
vt 0.046879 0.967842
vt 0.084683 0.935963
vt 0.085843 0.946783
vt 0.082363 0.914322
vt 0.224933 0.963784
vt 0.224933 0.975114
vt 0.208766 0.815975
vt 0.175638 0.838949
vt 0.152512 0.838950
vt 0.213516 0.929794
vt 0.224933 0.929794
vt 0.054750 0.903502
vt 0.036889 0.920562
vn 0.0000 1.0000 0.0000
vn 0.0000 -1.0000 -0.0000
vn 0.0000 0.1074 0.9942
vn 0.0000 0.9452 -0.3265
vn 0.0000 0.1074 -0.9942
vn 0.0580 0.1134 0.9919
vn -0.0000 -0.1074 0.9942
vn 0.0580 0.1134 -0.9919
vn 0.9515 0.1328 -0.2775
vn 0.0009 0.1075 0.9942
vn 0.0004 0.1068 0.9943
usemtl Material
s off
f 10/1/1 64/2/1 52/3/1
f 16/4/2 65/5/2 56/6/2
f 22/7/3 66/8/3 55/9/3
f 15/10/2 67/11/2 31/12/2
f 4/13/1 68/14/1 24/15/1
f 4/13/1 71/16/1 27/17/1
f 9/18/1 73/19/1 38/20/1
f 2/21/1 74/22/1 23/23/1
f 14/24/4 76/25/4 48/26/4
f 1/27/1 77/28/1 38/20/1
f 11/29/2 78/30/2 40/31/2
f 22/7/3 79/32/3 62/33/3
f 6/34/2 80/35/2 30/36/2
f 18/37/1 81/38/1 43/39/1
f 15/40/3 82/41/3 49/42/3
f 15/40/3 84/43/3 61/44/3
f 10/1/1 39/45/1 64/2/1
f 16/4/2 32/46/2 65/5/2
f 22/7/3 63/47/3 66/8/3
f 15/10/2 54/48/2 67/11/2
f 4/13/1 27/17/1 68/14/1
f 3/49/1 39/45/1 69/50/1
f 3/51/5 86/52/5 59/53/5
f 14/24/4 26/54/4 75/55/4
f 1/27/1 47/56/1 77/28/1
f 11/29/2 51/57/2 78/30/2
f 22/7/3 55/9/3 79/32/3
f 6/34/2 50/58/2 80/35/2
f 18/37/1 57/59/1 81/38/1
f 15/40/3 61/44/3 82/41/3
f 15/40/3 31/60/3 84/43/3
f 3/51/5 37/61/5 86/52/5
f 85/62/3 36/63/3 4/64/3
f 84/43/3 29/65/3 21/66/3
f 84/43/3 31/60/3 29/65/3
f 31/60/3 8/67/3 29/65/3
f 82/41/3 62/33/3 19/68/3
f 82/41/3 61/44/3 62/33/3
f 61/44/3 22/7/3 62/33/3
f 81/38/1 48/26/1 2/21/1
f 81/38/1 57/59/1 48/26/1
f 57/59/1 14/24/1 48/26/1
f 80/35/2 56/6/2 17/69/2
f 80/35/2 50/58/2 56/6/2
f 50/58/2 16/4/2 56/6/2
f 79/32/3 47/70/3 1/71/3
f 79/32/3 55/9/3 47/70/3
f 55/9/3 13/72/3 47/70/3
f 78/30/2 54/48/2 15/10/2
f 78/30/2 51/57/2 54/48/2
f 51/57/2 17/69/2 54/48/2
f 77/28/1 53/73/1 18/37/1
f 77/28/1 47/56/1 53/73/1
f 47/56/1 13/74/1 53/73/1
f 26/54/4 3/49/4 46/75/4
f 29/65/6 72/76/6 21/66/6
f 59/77/7 20/78/7 70/79/7
f 39/45/1 10/1/1 44/80/1
f 68/14/1 52/3/1 18/37/1
f 68/14/1 27/17/1 52/3/1
f 27/17/1 10/1/1 52/3/1
f 67/11/2 42/81/2 12/82/2
f 67/11/2 54/48/2 42/81/2
f 54/48/2 17/69/2 42/81/2
f 66/8/3 60/83/3 4/64/3
f 66/8/3 63/47/3 60/83/3
f 63/47/3 21/66/3 60/83/3
f 65/5/2 41/84/2 12/82/2
f 65/5/2 32/46/2 41/84/2
f 32/46/2 7/85/2 41/84/2
f 64/2/1 26/54/1 14/24/1
f 64/2/1 39/45/1 26/54/1
f 39/45/1 3/49/1 26/54/1
f 61/44/3 63/47/3 22/7/3
f 61/44/3 84/43/3 63/47/3
f 84/43/3 21/66/3 63/47/3
f 83/86/8 28/87/8 20/88/8
f 85/62/3 4/64/3 60/83/3
f 59/89/9 46/90/9 3/91/9
f 49/42/3 25/92/3 5/93/3
f 49/42/3 82/41/3 25/92/3
f 82/41/3 19/68/3 25/92/3
f 43/39/1 23/23/1 9/18/1
f 43/39/1 81/38/1 23/23/1
f 81/38/1 2/21/1 23/23/1
f 30/36/2 51/57/2 11/29/2
f 30/36/2 80/35/2 51/57/2
f 80/35/2 17/69/2 51/57/2
f 62/33/3 58/94/3 19/68/3
f 62/33/3 79/32/3 58/94/3
f 79/32/3 1/71/3 58/94/3
f 40/31/2 49/95/2 5/96/2
f 40/31/2 78/30/2 49/95/2
f 78/30/2 15/10/2 49/95/2
f 38/20/1 43/39/1 9/18/1
f 38/20/1 77/28/1 43/39/1
f 77/28/1 18/37/1 43/39/1
f 48/26/4 34/97/4 2/21/4
f 23/23/1 45/98/1 9/18/1
f 38/20/1 35/99/1 1/27/1
f 27/17/1 44/80/1 10/1/1
f 24/15/1 53/73/1 13/74/1
f 24/15/1 68/14/1 53/73/1
f 68/14/1 18/37/1 53/73/1
f 31/12/2 33/100/2 8/101/2
f 31/12/2 67/11/2 33/100/2
f 67/11/2 12/82/2 33/100/2
f 55/9/3 24/102/3 13/72/3
f 55/9/3 66/8/3 24/102/3
f 66/8/3 4/64/3 24/102/3
f 56/6/2 42/81/2 17/69/2
f 56/6/2 65/5/2 42/81/2
f 65/5/2 12/82/2 42/81/2
f 52/3/1 57/59/1 18/37/1
f 52/3/1 64/2/1 57/59/1
f 64/2/1 14/24/1 57/59/1
f 87/103/10 60/83/10 21/66/10
f 87/103/11 85/62/11 60/83/11
