# Blender v2.79 (sub 0) OBJ File: 'grass.blend'
# www.blender.org
mtllib grass.mtl
o Plane
v -0.239938 0.007678 0.125324
v -0.050638 0.007678 0.125324
v -0.239938 0.007678 -0.063976
v -0.050638 0.007678 -0.063976
v -0.060475 0.298049 0.083482
v -0.498594 0.310930 0.141554
v -0.498594 0.310930 -0.236175
v -0.573320 0.590695 -0.031872
v 0.249722 0.288980 0.187500
v 0.248941 0.291203 -0.066561
v 0.365882 0.702159 0.046982
v -0.291596 0.215867 -0.352830
v 0.028741 0.215867 -0.352830
v -0.163229 0.569816 -0.392656
v -0.253768 0.154672 0.345450
v -0.011464 0.154672 0.345450
v -0.085484 0.602708 0.517524
v -0.267334 0.298049 -0.123377
v -0.250274 0.537337 0.037985
vt 0.336381 0.994095
vt 0.336274 0.979756
vt 0.360050 0.994095
vt 0.365721 0.893589
vt 0.322538 0.933328
vt 0.344080 0.882396
vt 0.354300 0.946568
vt 0.330530 0.928158
vt 0.354300 0.902255
vt 0.359943 0.979756
vt 0.356726 0.898271
vt 0.330004 0.942425
vt 0.332272 0.905107
vt 0.365721 0.955663
vt 0.328062 0.981283
vt 0.360194 0.921677
vt 0.328427 0.921896
vt 0.346072 0.861529
vt 0.361803 0.891989
vt 0.323788 0.914050
vt 0.339339 0.883284
vt 0.361803 0.928781
vt 0.324994 0.969307
vt 0.334675 0.881064
vt 0.358296 0.914449
vt 0.328061 0.912190
vt 0.333465 0.982807
vt 0.356726 0.934955
vt 0.358296 0.882829
vn 0.0000 1.0000 0.0000
vn 0.7608 0.6489 0.0000
vn 0.6504 0.3922 -0.6504
vn 0.7050 -0.0777 -0.7050
vn 0.9661 0.2581 0.0000
vn -0.6874 0.7263 0.0000
vn -0.9622 0.2723 0.0053
vn 0.0000 0.8112 0.5847
vn 0.0000 0.1118 0.9937
vn 0.0000 0.8316 -0.5553
vn 0.0000 0.3585 -0.9335
vn -0.6845 0.7290 0.0085
usemtl None
s off
f 1/1/1 2/2/1 3/3/1
f 3/4/2 6/5/2 1/6/2
f 5/7/3 18/8/3 19/9/3
f 3/3/1 2/2/1 4/10/1
f 3/11/4 5/12/4 2/13/4
f 6/5/5 7/14/5 8/15/5
f 2/2/6 10/16/6 4/10/6
f 10/16/7 9/17/7 11/18/7
f 4/19/8 12/20/8 3/21/8
f 12/20/9 13/22/9 14/23/9
f 2/24/10 15/25/10 16/26/10
f 16/26/11 15/25/11 17/27/11
f 3/4/2 7/14/2 6/5/2
f 3/11/4 18/28/4 5/12/4
f 2/2/12 9/17/12 10/16/12
f 4/19/8 13/22/8 12/20/8
f 2/24/10 1/29/10 15/25/10
