# Blender v2.79 (sub 0) OBJ File: 'level0env.blend'
# www.blender.org
mtllib rock.mtl
o Cube
v 0.065290 -1.065247 0.401427
v -0.901770 -0.997744 0.024870
v -0.278971 -1.182308 -0.408353
v -0.470370 -0.362292 -0.200636
v -0.250897 -0.587248 0.447315
v 0.022756 -0.337106 -0.024367
v 0.232354 -0.720526 -0.529748
v -0.697941 -0.686600 -0.522769
v -0.721736 -0.703038 0.203838
vt 0.115597 0.971702
vt 0.003632 0.943736
vt 0.067766 0.885284
vt 0.092991 0.943392
vt 0.019798 0.893533
vt 0.096728 0.885420
vt 0.031455 0.959916
vt 0.102280 0.888138
vt 0.102280 0.998803
vt 0.075328 0.991904
vt 0.010867 0.983853
vt 0.096728 0.985552
vt 0.022132 0.983637
vt 0.109962 0.925521
vt 0.108580 0.983637
vt 0.013698 0.889769
vt 0.018308 0.953620
vt 0.029148 0.894068
vt 0.021935 0.968176
vt 0.062733 0.886227
vt 0.015861 0.926743
vt 0.115597 0.877519
vn -0.1463 -0.9684 0.2022
vn -0.1811 0.9085 0.3767
vn 0.9495 0.1979 0.2436
vn -0.3628 -0.3239 0.8738
vn -0.8250 0.5650 0.0140
vn 0.1566 0.8170 -0.5549
vn -0.5670 -0.6076 -0.5562
vn -0.4159 0.8062 0.4208
vn 0.6873 0.3962 0.6088
vn -0.3789 -0.3002 0.8754
vn -0.8355 0.5463 -0.0590
vn 0.0201 0.6975 -0.7163
vn -0.0160 -0.2377 -0.9712
vn 0.6396 -0.7512 -0.1633
usemtl Material
s 1
f 1/1/1 2/2/1 3/3/1
f 4/4/2 5/5/2 6/6/2
f 6/7/3 1/8/3 7/9/3
f 5/10/4 2/2/4 1/1/4
f 2/11/5 4/4/5 8/12/5
f 7/13/6 4/14/6 6/15/6
f 2/2/7 8/16/7 3/3/7
f 4/4/8 9/17/8 5/5/8
f 6/7/9 5/18/9 1/8/9
f 5/10/10 9/19/10 2/2/10
f 2/11/11 9/17/11 4/4/11
f 7/13/12 8/20/12 4/14/12
f 8/20/13 7/13/13 3/21/13
f 7/22/14 1/1/14 3/3/14
