# Blender v2.79 (sub 0) OBJ File: 'beetle.blend'
# www.blender.org
mtllib beetle.mtl
o Cube
v 0.125692 -0.219485 -0.316184
v 0.125692 -0.219485 0.316184
v -0.125692 -0.219485 0.316184
v -0.125692 -0.219485 -0.316184
v 0.125692 0.226231 -0.316183
v 0.125692 0.226231 0.316184
v -0.125692 0.226231 0.316184
v -0.125692 0.226231 -0.316184
v 0.125692 -0.394608 0.000000
v -0.125692 -0.394608 -0.000000
v 0.125692 0.407158 0.000000
v -0.125692 0.407158 -0.000000
vt 0.018893 0.508875
vt 0.048250 0.492615
vt 0.048250 0.492615
vt 0.048250 0.567057
vt 0.018893 0.550259
vt 0.018893 0.550259
vt 0.018893 0.508875
vt 0.077606 0.550259
vt 0.077607 0.508875
vt 0.077606 0.508875
vt 0.077606 0.550259
vt 0.048250 0.567057
vn -0.0000 -0.8748 0.4845
vn -0.0000 0.8679 0.4967
vn 1.0000 0.0000 -0.0000
vn -0.0000 -0.0000 1.0000
vn -1.0000 -0.0000 0.0000
vn 0.0000 0.0000 -1.0000
vn 0.0000 0.8679 -0.4967
vn 0.0000 -0.8748 -0.4845
usemtl Material
s off
f 2/1/1 10/2/1 9/3/1
f 11/4/2 7/5/2 6/6/2
f 9/3/3 6/6/3 2/1/3
f 6/6/4 3/7/4 2/1/4
f 10/2/5 8/8/5 4/9/5
f 1/10/6 8/8/6 5/11/6
f 7/5/5 10/2/5 3/7/5
f 5/11/3 9/3/3 1/10/3
f 8/8/7 11/4/7 5/11/7
f 1/10/8 10/2/8 4/9/8
f 2/1/1 3/7/1 10/2/1
f 11/4/2 12/12/2 7/5/2
f 9/3/3 11/4/3 6/6/3
f 6/6/4 7/5/4 3/7/4
f 10/2/5 12/12/5 8/8/5
f 1/10/6 4/9/6 8/8/6
f 7/5/5 12/12/5 10/2/5
f 5/11/3 11/4/3 9/3/3
f 8/8/7 12/12/7 11/4/7
f 1/10/8 9/3/8 10/2/8
