# Blender v2.79 (sub 0) OBJ File: 'vine.blend'
# www.blender.org
mtllib vine.mtl
o Cube
v -0.512182 -0.457472 -0.718939
v -0.499465 -0.555029 0.398359
v -0.853132 -0.555029 0.398359
v -0.887324 -0.464834 -0.686985
v -0.512872 -0.088822 -0.642106
v -0.499465 -0.201362 0.398359
v -0.853132 -0.201362 0.398359
v -0.888014 -0.096184 -0.610153
v -0.879319 -0.213513 1.427789
v -1.167375 -0.192383 1.373013
v -0.841482 0.063022 1.335486
v -1.129538 0.084153 1.280710
v -0.875968 0.834726 2.808420
v -1.182640 0.847498 2.850401
v -0.891692 1.079444 2.619107
v -1.198364 1.092216 2.661088
v -0.914952 0.278354 -2.230415
v -1.255501 0.324305 -2.145689
v -0.836621 0.591581 -2.085445
v -1.177170 0.637532 -2.000719
v -1.290996 1.638248 -3.496674
v -1.584895 1.712279 -3.340173
v -1.132558 1.877557 -3.312342
v -1.426457 1.951588 -3.155841
v -0.759234 1.962984 3.815358
v -1.056999 1.974649 3.900055
v -0.820185 2.149234 3.575423
v -1.117949 2.160900 3.660118
vt 0.334295 0.705885
vt 0.336050 0.731377
vt 0.329573 0.730757
vt 0.336473 0.795357
vt 0.333368 0.821057
vt 0.329914 0.795954
vt 0.337803 0.719141
vt 0.329422 0.741618
vt 0.330068 0.718000
vt 0.334567 0.816791
vt 0.335730 0.792979
vt 0.340782 0.817539
vt 0.330768 0.737157
vt 0.337790 0.756956
vt 0.330188 0.758816
vt 0.329050 0.690335
vt 0.336113 0.688351
vt 0.330672 0.793196
vt 0.337235 0.750093
vt 0.337744 0.734857
vt 0.331408 0.715725
vt 0.337480 0.715718
vt 0.336753 0.741167
vt 0.331783 0.762924
vt 0.334691 0.708533
vt 0.335341 0.735943
vt 0.330229 0.735521
vt 0.331890 0.748362
vt 0.340782 0.713535
vt 0.337621 0.761323
vt 0.333433 0.796981
vt 0.334061 0.681369
vt 0.340490 0.680487
vt 0.337270 0.781243
vt 0.331909 0.782833
vt 0.338724 0.793339
vt 0.336254 0.829798
vt 0.331678 0.791452
vt 0.331179 0.753399
vt 0.337421 0.753462
vt 0.330995 0.775169
vt 0.332636 0.742775
vt 0.342078 0.732774
vt 0.342078 0.742667
vt 0.337244 0.775382
vt 0.334427 0.824003
vt 0.333702 0.708264
vt 0.339450 0.709781
vt 0.330925 0.650818
vt 0.337632 0.650643
vt 0.332636 0.751770
vt 0.341332 0.742790
vt 0.341332 0.751785
vt 0.339880 0.797718
vt 0.334802 0.828799
vt 0.333992 0.648869
vt 0.340397 0.649679
vt 0.340925 0.819398
vt 0.335757 0.821887
vt 0.340277 0.707206
vt 0.339450 0.819723
vt 0.340925 0.707967
vt 0.335616 0.710940
vt 0.342816 0.829978
vt 0.332636 0.732883
vt 0.340277 0.822977
vt 0.332636 0.742775
vt 0.341228 0.827799
vn 0.0121 -0.9961 -0.0871
vn -0.0103 0.9941 0.1077
vn 0.9999 0.0042 -0.0110
vn 0.0000 0.9624 -0.2715
vn -0.9995 -0.0083 0.0308
vn 0.9564 -0.1148 -0.2687
vn 0.1724 0.7755 -0.6073
vn -0.9513 0.0277 -0.3070
vn 0.9382 -0.0000 0.3462
vn -0.1279 -0.9423 0.3094
vn -0.0737 0.6674 -0.7411
vn 0.9908 -0.1088 0.0802
vn -0.9978 -0.0656 -0.0019
vn 0.0447 -0.8167 0.5753
vn -0.9358 0.0745 0.3446
vn 0.2229 0.8806 0.4183
vn -0.9743 -0.0477 0.2201
vn -0.0192 -0.9010 -0.4335
vn -0.2046 0.6787 -0.7053
vn -0.2604 -0.6955 -0.6696
vn 0.4831 0.6280 0.6101
vn 0.8648 -0.2279 -0.4475
vn 0.1935 0.7982 0.5704
vn 0.9949 -0.0136 -0.1002
vn -0.9798 -0.0921 0.1774
vn 0.1754 -0.6813 0.7106
vn 0.0000 -0.9966 -0.0828
vn -0.0000 0.9946 0.1037
vn 0.9999 0.0000 -0.0129
vn 0.1216 0.9549 -0.2709
vn -0.9994 -0.0000 0.0346
vn 0.9709 0.0506 -0.2341
vn -0.0473 0.8055 -0.5906
vn -0.9518 0.0000 -0.3069
vn 0.9381 -0.0129 0.3460
vn 0.0000 -0.9491 0.3149
vn -0.1760 0.6793 -0.7125
vn 0.9983 0.0585 -0.0073
vn -0.9906 0.1070 -0.0855
vn -0.1709 -0.7845 0.5961
vn -0.8650 0.2286 0.4467
vn 0.0182 0.9060 0.4230
vn -0.9579 0.1184 0.2617
vn -0.2231 -0.8798 -0.4197
vn -0.4817 -0.6345 -0.6045
vn 0.2603 0.6972 0.6680
vn 0.9332 -0.0702 -0.3525
vn 0.9798 0.0927 -0.1770
vn -0.9946 0.0154 0.1025
vn 0.0735 -0.6683 0.7403
usemtl Material
s off
f 2/1/1 4/2/1 1/3/1
f 8/4/2 6/5/2 5/6/2
f 5/7/3 2/8/3 1/9/3
f 7/10/4 11/11/4 6/12/4
f 3/13/5 8/14/5 4/15/5
f 5/7/6 17/16/6 19/17/6
f 12/18/7 15/19/7 11/11/7
f 7/20/8 10/21/8 12/22/8
f 6/23/9 9/24/9 2/8/9
f 3/25/10 9/26/10 10/27/10
f 16/28/11 27/29/11 15/19/11
f 11/30/12 13/31/12 9/24/12
f 12/22/13 14/32/13 16/33/13
f 10/27/14 13/34/14 14/35/14
f 20/36/15 22/37/15 18/38/15
f 8/4/16 19/39/16 20/40/16
f 8/14/17 18/38/17 4/15/17
f 4/2/18 17/41/18 1/3/18
f 21/42/19 24/43/19 23/44/19
f 18/45/20 21/46/20 17/41/20
f 20/40/21 23/47/21 24/48/21
f 19/17/22 21/49/22 23/50/22
f 27/51/23 26/52/23 25/53/23
f 15/54/24 25/55/24 13/31/24
f 16/33/25 26/56/25 28/57/25
f 14/35/26 25/58/26 26/59/26
f 2/1/27 3/60/27 4/2/27
f 8/4/28 7/61/28 6/5/28
f 5/7/29 6/23/29 2/8/29
f 7/10/30 12/18/30 11/11/30
f 3/13/31 7/20/31 8/14/31
f 5/7/32 1/9/32 17/16/32
f 12/18/33 16/28/33 15/19/33
f 7/20/34 3/13/34 10/21/34
f 6/23/35 11/30/35 9/24/35
f 3/25/36 2/62/36 9/26/36
f 16/28/37 28/63/37 27/29/37
f 11/30/38 15/54/38 13/31/38
f 12/22/39 10/21/39 14/32/39
f 10/27/40 9/26/40 13/34/40
f 20/36/41 24/64/41 22/37/41
f 8/4/42 5/6/42 19/39/42
f 8/14/43 20/36/43 18/38/43
f 4/2/44 18/45/44 17/41/44
f 21/42/19 22/65/19 24/43/19
f 18/45/45 22/66/45 21/46/45
f 20/40/46 19/39/46 23/47/46
f 19/17/47 17/16/47 21/49/47
f 27/51/23 28/67/23 26/52/23
f 15/54/48 27/68/48 25/55/48
f 16/33/49 14/32/49 26/56/49
f 14/35/50 13/34/50 25/58/50
