# Blender v2.79 (sub 0) OBJ File: 'level0envfinal.blend'
# www.blender.org
mtllib level1_env_2.mtl
o Plane.032_Plane.040
v 12.708803 0.258701 1.030162
v 12.856811 0.258701 1.148180
v 12.826821 0.258701 0.882155
v 12.496449 0.561953 0.881594
v 12.875205 0.549072 1.109333
v 12.842434 0.549072 0.818631
v 12.755173 0.788360 0.955431
v 12.974829 0.258701 1.000173
v 12.731943 0.561953 0.586260
v 12.546145 0.841718 0.699410
v 13.210670 0.542226 1.184923
v 13.052888 0.540003 1.384052
v 13.231316 0.953182 1.346605
v 12.966516 0.466890 0.624103
v 13.216977 0.466890 0.823816
v 13.091711 0.820839 0.672995
v 12.560753 0.405695 1.193649
v 12.750202 0.405695 1.344712
v 12.585050 0.853731 1.433104
vt 0.336381 0.994095
vt 0.336274 0.979756
vt 0.360050 0.994095
vt 0.365721 0.893589
vt 0.322538 0.933328
vt 0.344080 0.882396
vt 0.354300 0.946568
vt 0.330530 0.928158
vt 0.354300 0.902255
vt 0.359943 0.979756
vt 0.356726 0.898271
vt 0.330004 0.942425
vt 0.332272 0.905107
vt 0.365721 0.955663
vt 0.328062 0.981283
vt 0.360194 0.921677
vt 0.328427 0.921896
vt 0.346072 0.861529
vt 0.361803 0.891989
vt 0.323788 0.914050
vt 0.339339 0.883284
vt 0.361803 0.928781
vt 0.324994 0.969307
vt 0.334675 0.881064
vt 0.358296 0.914449
vt 0.328061 0.912190
vt 0.333465 0.982807
vt 0.356726 0.934955
vt 0.358296 0.882829
vn 0.0000 1.0000 0.0000
vn 0.5949 0.6489 0.4743
vn 0.9141 0.3922 -0.1030
vn 0.9907 -0.0777 -0.1117
vn 0.7554 0.2581 0.6023
vn -0.5401 0.7286 -0.4213
vn -0.5380 0.7268 -0.4271
vn -0.5374 0.7263 -0.4285
vn -0.7556 0.2723 -0.5957
vn -0.3645 0.8113 0.4572
vn -0.3645 0.8112 0.4572
vn -0.6195 0.1118 0.7770
vn 0.3462 0.8316 -0.4342
vn 0.5820 0.3585 -0.7299
vn -0.5405 0.7290 -0.4201
usemtl None.040
s 1
f 1/1/1 2/2/1 3/3/1
f 3/4/2 4/5/2 1/6/2
f 5/7/3 6/8/3 7/9/3
f 3/3/1 2/2/1 8/10/1
f 3/11/4 5/12/4 2/13/4
f 4/5/5 9/14/5 10/15/5
f 2/2/6 11/16/7 8/10/8
f 11/16/9 12/17/9 13/18/9
f 8/19/10 14/20/11 3/21/10
f 14/20/12 15/22/12 16/23/12
f 2/24/13 17/25/13 18/26/13
f 18/26/14 17/25/14 19/27/14
f 3/4/2 9/14/2 4/5/2
f 3/11/4 6/28/4 5/12/4
f 2/2/6 12/17/15 11/16/7
f 8/19/10 15/22/11 14/20/11
f 2/24/13 1/29/13 17/25/13
o Plane.034_Plane.041
v 9.900173 0.258701 -1.069484
v 9.876067 0.258701 -0.881726
v 10.087932 0.258701 -1.045378
v 9.917013 0.561953 -1.328102
v 9.918821 0.549072 -0.886154
v 10.150338 0.549072 -1.064987
v 9.988117 0.788360 -1.068614
v 10.063826 0.258701 -0.857620
v 10.291667 0.561953 -1.280000
v 10.098543 0.841718 -1.380135
v 10.028240 0.542226 -0.560150
v 9.776148 0.540003 -0.591729
v 9.900730 0.953182 -0.458620
v 10.381013 0.466890 -1.059832
v 10.340219 0.466890 -0.742103
v 10.404167 0.820839 -0.927439
v 9.683600 0.405695 -1.111233
v 9.652744 0.405695 -0.870902
v 9.491497 0.853731 -0.966232
vt 0.336381 0.994095
vt 0.336274 0.979756
vt 0.360050 0.994095
vt 0.365721 0.893589
vt 0.322538 0.933328
vt 0.344080 0.882396
vt 0.354300 0.946568
vt 0.330530 0.928158
vt 0.354300 0.902255
vt 0.359943 0.979756
vt 0.356726 0.898271
vt 0.330004 0.942425
vt 0.332272 0.905107
vt 0.365721 0.955663
vt 0.328062 0.981283
vt 0.360194 0.921677
vt 0.328427 0.921896
vt 0.346072 0.861529
vt 0.361803 0.891989
vt 0.323788 0.914050
vt 0.339339 0.883284
vt 0.361803 0.928781
vt 0.324994 0.969307
vt 0.334675 0.881064
vt 0.358296 0.914449
vt 0.328061 0.912190
vt 0.333465 0.982807
vt 0.356726 0.934955
vt 0.358296 0.882829
vn 0.0000 1.0000 0.0000
vn -0.0969 0.6489 0.7546
vn 0.5623 0.3922 0.7280
vn 0.6095 -0.0777 0.7890
vn -0.1230 0.2581 0.9583
vn 0.0799 0.7286 -0.6803
vn 0.0860 0.7268 -0.6815
vn 0.0875 0.7263 -0.6818
vn 0.1172 0.2723 -0.9550
vn -0.5799 0.8112 -0.0745
vn -0.5799 0.8113 -0.0745
vn -0.9856 0.1118 -0.1265
vn 0.5508 0.8316 0.0707
vn 0.9259 0.3585 0.1189
vn 0.0788 0.7290 -0.6800
usemtl None.041
s 1
f 20/30/16 21/31/16 22/32/16
f 22/33/17 23/34/17 20/35/17
f 24/36/18 25/37/18 26/38/18
f 22/32/16 21/31/16 27/39/16
f 22/40/19 24/41/19 21/42/19
f 23/34/20 28/43/20 29/44/20
f 21/31/21 30/45/22 27/39/23
f 30/45/24 31/46/24 32/47/24
f 27/48/25 33/49/25 22/50/26
f 33/49/27 34/51/27 35/52/27
f 21/53/28 36/54/28 37/55/28
f 37/55/29 36/54/29 38/56/29
f 22/33/17 28/43/17 23/34/17
f 22/40/19 25/57/19 24/41/19
f 21/31/21 31/46/30 30/45/22
f 27/48/25 34/51/25 33/49/25
f 21/53/28 20/58/28 36/54/28
o Plane.035_Plane.042
v 14.898728 0.258701 0.601678
v 14.909448 0.258701 0.790674
v 15.087725 0.258701 0.590959
v 14.867878 0.561953 0.344356
v 14.950665 0.549072 0.778484
v 15.145479 0.549072 0.560243
v 14.985342 0.788360 0.586413
v 15.098444 0.258701 0.779955
v 15.245001 0.561953 0.322967
v 15.036795 0.841718 0.259930
v 15.117990 0.542226 1.078907
v 14.864380 0.540003 1.094073
v 15.011250 0.953182 1.202090
v 15.373190 0.466890 0.523027
v 15.391330 0.466890 0.842850
v 15.420221 0.820839 0.648933
v 14.678173 0.405695 0.600335
v 14.691894 0.405695 0.842250
v 14.515904 0.853731 0.778093
vt 0.336381 0.994095
vt 0.336274 0.979756
vt 0.360050 0.994095
vt 0.365721 0.893589
vt 0.322538 0.933328
vt 0.344080 0.882396
vt 0.354300 0.946568
vt 0.330530 0.928158
vt 0.354300 0.902255
vt 0.359943 0.979756
vt 0.356726 0.898271
vt 0.330004 0.942425
vt 0.332272 0.905107
vt 0.365721 0.955663
vt 0.328062 0.981283
vt 0.360194 0.921677
vt 0.328427 0.921896
vt 0.346072 0.861529
vt 0.361803 0.891989
vt 0.323788 0.914050
vt 0.339339 0.883284
vt 0.361803 0.928781
vt 0.324994 0.969307
vt 0.334675 0.881064
vt 0.358296 0.914449
vt 0.328061 0.912190
vt 0.333465 0.982807
vt 0.356726 0.934955
vt 0.358296 0.882829
vn 0.0000 1.0000 0.0000
vn 0.0431 0.6489 0.7596
vn 0.6862 0.3922 0.6126
vn 0.7438 -0.0777 0.6639
vn 0.0547 0.2581 0.9646
vn -0.0461 0.7286 -0.6834
vn -0.0404 0.7268 -0.6857
vn -0.0389 0.7263 -0.6863
vn -0.0598 0.2723 -0.9603
vn -0.5838 0.8112 0.0331
vn -0.5838 0.8113 0.0331
vn -0.9921 0.1118 0.0563
vn 0.5544 0.8316 -0.0314
vn 0.9320 0.3585 -0.0529
vn -0.0472 0.7290 -0.6829
usemtl None.042
s 1
f 39/59/31 40/60/31 41/61/31
f 41/62/32 42/63/32 39/64/32
f 43/65/33 44/66/33 45/67/33
f 41/61/31 40/60/31 46/68/31
f 41/69/34 43/70/34 40/71/34
f 42/63/35 47/72/35 48/73/35
f 40/60/36 49/74/37 46/68/38
f 49/74/39 50/75/39 51/76/39
f 46/77/40 52/78/41 41/79/40
f 52/78/42 53/80/42 54/81/42
f 40/82/43 55/83/43 56/84/43
f 56/84/44 55/83/44 57/85/44
f 41/62/32 47/72/32 42/63/32
f 41/69/34 44/86/34 43/70/34
f 40/60/36 50/75/45 49/74/37
f 46/77/40 53/80/41 52/78/41
f 40/82/43 39/87/43 55/83/43
o Plane.036_Plane.043
v 19.351583 0.133583 -1.554296
v 19.569420 0.133583 -1.584853
v 19.321028 0.133583 -1.772132
v 18.740599 0.726224 -1.594377
v 18.823849 0.726224 -1.000894
v 19.493834 0.947562 -1.479388
v 19.130644 0.947562 -1.753220
v 18.867672 1.255244 -1.237321
v 19.538864 0.133583 -1.802689
v 18.313143 0.781199 -1.409081
v 19.879269 0.724802 -2.104198
v 19.999901 0.724802 -1.244234
v 20.552637 0.935645 -1.758856
v 19.090252 0.885287 -2.220302
v 19.647976 0.885287 -2.298537
v 19.257425 0.579014 -2.708286
v 19.812550 0.758025 -0.847682
v 19.260645 0.758025 -0.770264
v 19.733158 0.870300 -0.389552
vt 0.211823 0.874112
vt 0.192503 0.881407
vt 0.213061 0.876023
vt 0.192446 0.878957
vt 0.226563 0.955630
vt 0.174711 0.960598
vt 0.174031 0.956472
vt 0.231234 0.953765
vt 0.205218 0.998842
vt 0.190988 0.880879
vt 0.207542 0.869018
vt 0.188622 0.874155
vt 0.214728 0.878154
vt 0.193455 0.881822
vt 0.205515 0.999171
vt 0.215099 0.891495
vt 0.165090 0.956215
vt 0.191335 0.892563
vt 0.173616 0.956215
vt 0.232998 0.955138
vt 0.205124 0.999700
vt 0.206449 0.885394
vt 0.182174 0.960875
vt 0.185562 0.884367
vt 0.229940 0.956003
vt 0.205322 0.999265
vt 0.209498 0.884964
vt 0.174395 0.958548
vt 0.192115 0.886445
vt 0.231591 0.954224
vt 0.204556 0.999236
vt 0.224471 0.955138
vn 0.0000 1.0000 0.0000
vn 0.6962 0.7112 -0.0977
vn 0.2859 0.8801 -0.3792
vn 0.5945 0.1574 -0.7885
vn 0.1203 0.9926 -0.0169
vn -0.8337 0.5397 0.1169
vn -0.3194 0.9466 0.0448
vn 0.1174 0.5349 0.8367
vn -0.0770 0.8324 -0.5488
vn -0.0879 0.7742 -0.6268
vn -0.0342 0.9693 -0.2435
usemtl None.043
s 1
f 58/88/46 59/89/46 60/90/46
f 58/91/47 61/92/47 62/93/47
f 63/94/48 64/95/48 65/96/48
f 60/97/46 59/98/46 66/99/46
f 60/100/49 63/94/49 59/101/49
f 62/93/50 61/92/50 67/102/50
f 59/103/51 68/104/51 66/105/51
f 68/106/52 69/107/52 70/108/52
f 66/109/53 71/110/53 60/111/53
f 71/110/54 72/112/54 73/113/54
f 58/114/55 74/115/55 59/116/55
f 74/115/56 75/117/56 76/118/56
f 58/91/47 60/90/47 61/92/47
f 60/100/49 64/95/49 63/94/49
f 59/103/51 69/119/51 68/104/51
f 66/109/53 72/112/53 71/110/53
f 58/114/55 75/117/55 74/115/55
o Plane.052_Plane.059
v 22.235092 0.327058 5.027297
v 22.017204 0.327058 4.809409
v 22.171274 0.327058 4.873227
v 21.799316 0.327058 5.027297
v 21.863134 0.327058 4.873227
v 22.017204 0.327058 5.245184
v 21.863134 0.327058 5.181366
v 22.171274 0.327058 5.181366
v 21.748259 0.629948 5.296244
v 21.636858 0.629948 5.027297
v 22.017204 0.629948 4.646950
v 22.397551 0.629948 5.027297
v 21.748259 0.629948 4.758351
v 22.286150 0.629948 4.758351
v 22.017204 0.629948 5.407643
v 22.286150 0.629948 5.296244
v 22.118570 0.876185 5.128663
v 22.160557 0.876185 5.027297
v 22.118570 0.876185 4.925931
v 21.915838 0.876185 4.925931
v 21.915838 0.876185 5.128663
v 21.873850 0.876185 5.027297
v 21.915838 1.057330 4.925931
v 22.017204 0.876185 5.170650
v 21.915838 1.057330 5.128663
v 22.160557 1.057330 5.027297
v 22.017204 1.057330 4.883943
v 22.017204 0.876185 4.883943
v 21.873850 1.057330 5.027297
v 22.118570 1.057330 4.925931
v 22.321243 1.179881 5.027297
v 22.017204 1.179881 4.723257
v 21.713163 1.179881 5.027297
v 22.118570 1.057330 5.128663
v 22.017204 1.179881 5.331336
v 22.232193 1.179881 5.242285
v 22.232193 1.179881 4.812307
v 21.802216 1.179881 4.812307
v 21.802216 1.179881 5.242285
v 22.017204 1.057330 5.170650
vt 0.055692 0.806928
vt 0.065082 0.806928
vt 0.062332 0.806928
vt 0.055692 0.806928
vt 0.062332 0.806928
vt 0.046302 0.806928
vt 0.049053 0.806928
vt 0.049053 0.806928
vt 0.046593 0.815430
vt 0.055692 0.815430
vt 0.068560 0.815430
vt 0.055692 0.815430
vt 0.064791 0.815430
vt 0.064791 0.815430
vt 0.042824 0.815430
vt 0.046593 0.815430
vt 0.042580 0.825711
vt 0.051080 0.832058
vt 0.046349 0.825711
vt 0.055448 0.832058
vt 0.055448 0.825711
vt 0.068316 0.825711
vt 0.059817 0.832058
vt 0.064547 0.825711
vt 0.055448 0.825711
vt 0.059817 0.832058
vt 0.064547 0.825711
vt 0.051080 0.832058
vt 0.046349 0.825711
vt 0.055448 0.832058
vt 0.059817 0.839864
vt 0.049270 0.832058
vt 0.051080 0.839864
vt 0.055448 0.839864
vt 0.061626 0.839864
vt 0.061626 0.832058
vt 0.055448 0.839864
vt 0.059817 0.839864
vt 0.055448 0.845145
vt 0.068551 0.845145
vt 0.055448 0.845145
vt 0.051080 0.839864
vt 0.042346 0.845145
vt 0.046183 0.845145
vt 0.064713 0.845145
vt 0.064713 0.845145
vt 0.046183 0.845145
vt 0.098845 0.839031
vt 0.123640 0.814236
vt 0.123640 0.839031
vt 0.049270 0.839864
vt 0.098845 0.814236
vn 0.0000 -1.0000 -0.0000
vn 0.0000 1.0000 0.0000
vn -0.8278 -0.4440 0.3429
vn -0.9181 0.1114 0.3803
vn -0.3429 -0.4440 -0.8278
vn -0.3803 0.1114 -0.9181
vn 0.8278 -0.4440 -0.3429
vn 0.9234 0.0318 -0.3825
vn -0.3429 -0.4440 0.8278
vn -0.3803 0.1114 0.9181
vn -0.8278 -0.4440 -0.3429
vn -0.9181 0.1114 -0.3803
vn 0.3429 -0.4440 -0.8278
vn 0.3803 0.1114 -0.9181
vn -0.8278 0.4440 -0.3429
vn -0.9181 -0.1114 -0.3803
vn -0.3429 0.4440 -0.8278
vn -0.3726 -0.2278 -0.8996
vn -0.3803 -0.1114 -0.9181
vn -0.2860 -0.6645 -0.6904
vn -0.6904 -0.6645 -0.2860
vn 0.2860 0.6645 -0.6904
vn -0.6904 0.6645 -0.2860
vn -0.2860 0.6645 0.6904
vn -0.9239 0.0000 -0.3827
vn -0.3827 0.0000 0.9239
vn 0.9239 0.0000 -0.3827
vn -0.3827 0.0000 -0.9239
vn -0.9239 0.0000 0.3827
vn -0.6904 0.6645 0.2860
vn -0.2860 0.6645 -0.6904
vn 0.6904 0.6645 -0.2860
vn 0.5882 -0.7712 -0.2436
vn -0.2436 -0.7712 -0.5882
vn -0.5882 -0.7712 0.2436
vn -0.2436 0.7712 -0.5882
vn -0.5882 0.7712 -0.2436
vn 0.3827 0.0000 -0.9239
vn -0.2436 -0.7712 0.5882
vn -0.5882 -0.7712 -0.2436
vn -0.5881 -0.7712 -0.2436
vn 0.2436 -0.7712 -0.5882
vn 0.9181 0.1114 -0.3803
vn 0.5881 -0.7712 -0.2436
usemtl None.059
s 1
f 77/120/57 78/121/57 79/122/57
f 78/121/57 80/123/57 81/124/57
f 80/123/57 82/125/57 83/126/57
f 77/120/58 82/125/58 84/127/58
f 77/120/58 80/123/58 82/125/58
f 80/123/59 85/128/60 86/129/60
f 81/124/61 87/130/62 78/121/61
f 79/122/63 88/131/64 77/120/63
f 82/125/65 85/128/66 83/126/65
f 81/124/67 86/129/68 89/132/68
f 78/121/69 90/133/70 79/122/69
f 84/127/71 88/131/72 77/120/71
f 84/127/73 91/134/74 92/135/75
f 91/136/74 93/137/76 92/138/75
f 92/138/72 94/139/77 88/140/72
f 87/141/70 95/142/78 90/143/70
f 86/144/68 96/145/79 89/146/68
f 91/136/66 97/147/80 85/148/66
f 98/149/81 99/150/81 96/145/81
f 100/151/82 101/152/82 97/147/82
f 95/142/83 102/153/83 94/139/83
f 96/145/84 103/154/84 104/155/84
f 97/147/85 105/156/85 98/149/85
f 86/144/60 97/147/86 98/149/86
f 87/141/62 96/145/87 104/155/87
f 88/140/88 95/142/88 94/139/88
f 106/157/89 107/158/89 102/153/89
f 99/150/90 108/159/90 103/154/90
f 101/152/91 109/160/91 105/156/91
f 110/161/92 111/162/92 112/163/92
f 110/161/93 107/158/93 102/153/93
f 104/155/94 106/157/94 95/142/94
f 93/137/81 102/153/81 94/139/81
f 100/151/84 110/161/84 93/137/84
f 107/158/58 113/164/58 108/159/58
f 108/159/58 114/165/58 109/160/58
f 109/160/58 115/166/58 111/162/58
f 107/158/57 112/163/57 111/162/57
f 111/167/57 108/168/57 107/169/57
f 101/152/95 111/162/95 115/166/95
f 105/156/96 114/165/96 99/150/97
f 103/154/98 113/164/98 106/157/98
f 77/120/58 78/121/58 80/123/58
f 80/123/59 83/126/59 85/128/60
f 81/124/61 89/132/62 87/130/62
f 79/122/63 90/133/99 88/131/64
f 82/125/65 91/134/66 85/128/66
f 81/124/67 80/123/67 86/129/68
f 78/121/69 87/130/70 90/133/70
f 84/127/71 92/135/72 88/131/72
f 84/127/73 82/125/73 91/134/73
f 91/136/74 100/151/76 93/137/76
f 92/138/72 93/137/77 94/139/77
f 87/141/70 104/155/78 95/142/78
f 86/144/68 98/149/79 96/145/79
f 91/136/66 100/151/80 97/147/80
f 98/149/81 105/156/81 99/150/81
f 100/151/82 116/170/82 101/152/82
f 95/142/83 106/157/83 102/153/83
f 96/145/84 99/150/84 103/154/84
f 97/147/85 101/152/85 105/156/85
f 86/144/60 85/148/60 97/147/86
f 87/141/62 89/146/62 96/145/87
f 88/140/64 90/143/99 95/142/88
f 106/157/89 113/164/100 107/158/89
f 99/150/90 114/165/90 108/159/90
f 101/152/91 115/166/91 109/160/91
f 110/161/92 116/170/92 111/162/92
f 110/161/93 112/163/93 107/158/93
f 104/155/94 103/154/94 106/157/94
f 93/137/81 110/161/81 102/153/81
f 100/151/84 116/170/84 110/161/84
f 111/167/57 109/171/57 108/168/57
f 101/152/95 116/170/95 111/162/95
f 105/156/96 109/160/96 114/165/96
f 103/154/98 108/159/98 113/164/98
o Plane.051_Plane.058
v 22.235092 0.327058 3.736888
v 22.017204 0.327058 3.519000
v 22.171274 0.327058 3.582818
v 21.799316 0.327058 3.736888
v 21.863134 0.327058 3.582818
v 22.017204 0.327058 3.954776
v 21.863134 0.327058 3.890958
v 22.171274 0.327058 3.890958
v 21.748259 0.629948 4.005835
v 21.636858 0.629948 3.736888
v 22.017204 0.629948 3.356542
v 22.397551 0.629948 3.736888
v 21.748259 0.629948 3.467943
v 22.286150 0.629948 3.467943
v 22.017204 0.629948 4.117235
v 22.286150 0.629948 4.005835
v 22.118570 0.876185 3.838254
v 22.160557 0.876185 3.736888
v 22.118570 0.876185 3.635522
v 21.915838 0.876185 3.635522
v 21.915838 0.876185 3.838254
v 21.873850 0.876185 3.736888
v 21.915838 1.057330 3.635522
v 22.017204 0.876185 3.880242
v 21.915838 1.057330 3.838254
v 22.160557 1.057330 3.736888
v 22.017204 1.057330 3.593534
v 22.017204 0.876185 3.593534
v 21.873850 1.057330 3.736888
v 22.118570 1.057330 3.635522
v 22.321243 1.179881 3.736888
v 22.017204 1.179881 3.432847
v 21.713163 1.179881 3.736888
v 22.118570 1.057330 3.838254
v 22.017204 1.179881 4.040927
v 22.232193 1.179881 3.951877
v 22.232193 1.179881 3.521899
v 21.802216 1.179881 3.521899
v 21.802216 1.179881 3.951877
v 22.017204 1.057330 3.880242
vt 0.055692 0.806928
vt 0.065082 0.806928
vt 0.062332 0.806928
vt 0.055692 0.806928
vt 0.062332 0.806928
vt 0.046302 0.806928
vt 0.049053 0.806928
vt 0.049053 0.806928
vt 0.046593 0.815430
vt 0.055692 0.815430
vt 0.068560 0.815430
vt 0.055692 0.815430
vt 0.064791 0.815430
vt 0.064791 0.815430
vt 0.042824 0.815430
vt 0.046593 0.815430
vt 0.042580 0.825711
vt 0.051080 0.832058
vt 0.046349 0.825711
vt 0.055448 0.832058
vt 0.055448 0.825711
vt 0.068316 0.825711
vt 0.059817 0.832058
vt 0.064547 0.825711
vt 0.055448 0.825711
vt 0.059817 0.832058
vt 0.064547 0.825711
vt 0.051080 0.832058
vt 0.046349 0.825711
vt 0.055448 0.832058
vt 0.059817 0.839864
vt 0.049270 0.832058
vt 0.051080 0.839864
vt 0.055448 0.839864
vt 0.061626 0.839864
vt 0.061626 0.832058
vt 0.055448 0.839864
vt 0.059817 0.839864
vt 0.055448 0.845145
vt 0.068551 0.845145
vt 0.055448 0.845145
vt 0.051080 0.839864
vt 0.042346 0.845145
vt 0.046183 0.845145
vt 0.064713 0.845145
vt 0.064713 0.845145
vt 0.046183 0.845145
vt 0.098845 0.839031
vt 0.123640 0.814236
vt 0.123640 0.839031
vt 0.049270 0.839864
vt 0.098845 0.814236
vn 0.0000 -1.0000 -0.0000
vn 0.0000 1.0000 0.0000
vn -0.8278 -0.4440 0.3429
vn -0.9181 0.1114 0.3803
vn -0.3429 -0.4440 -0.8278
vn -0.3803 0.1114 -0.9181
vn 0.8278 -0.4440 -0.3429
vn 0.9234 0.0318 -0.3825
vn -0.3429 -0.4440 0.8278
vn -0.3803 0.1114 0.9181
vn -0.8278 -0.4440 -0.3429
vn -0.9181 0.1114 -0.3803
vn 0.3429 -0.4440 -0.8278
vn 0.3803 0.1114 -0.9181
vn -0.8278 0.4440 -0.3429
vn -0.9181 -0.1114 -0.3803
vn -0.3429 0.4440 -0.8278
vn -0.3726 -0.2278 -0.8996
vn -0.3803 -0.1114 -0.9181
vn -0.2860 -0.6645 -0.6904
vn -0.6904 -0.6645 -0.2860
vn 0.2860 0.6645 -0.6904
vn -0.6904 0.6645 -0.2860
vn -0.2860 0.6645 0.6904
vn -0.9239 0.0000 -0.3827
vn -0.3827 0.0000 0.9239
vn 0.9239 0.0000 -0.3827
vn -0.3827 0.0000 -0.9239
vn -0.9239 0.0000 0.3827
vn -0.6904 0.6645 0.2860
vn -0.2860 0.6645 -0.6904
vn 0.6904 0.6645 -0.2860
vn 0.5882 -0.7712 -0.2436
vn -0.2436 -0.7712 -0.5882
vn -0.5882 -0.7712 0.2436
vn -0.2436 0.7712 -0.5882
vn -0.5882 0.7712 -0.2436
vn 0.3827 0.0000 -0.9239
vn -0.2436 -0.7712 0.5882
vn -0.5882 -0.7712 -0.2436
vn -0.5881 -0.7712 -0.2436
vn 0.2436 -0.7712 -0.5882
vn 0.9181 0.1114 -0.3803
usemtl None.058
s 1
f 117/172/101 118/173/101 119/174/101
f 118/173/101 120/175/101 121/176/101
f 120/175/101 122/177/101 123/178/101
f 117/172/102 122/177/102 124/179/102
f 117/172/102 120/175/102 122/177/102
f 120/175/103 125/180/104 126/181/104
f 121/176/105 127/182/106 118/173/105
f 119/174/107 128/183/108 117/172/107
f 122/177/109 125/180/110 123/178/109
f 121/176/111 126/181/112 129/184/112
f 118/173/113 130/185/114 119/174/113
f 124/179/115 128/183/116 117/172/115
f 124/179/117 131/186/118 132/187/119
f 131/188/118 133/189/120 132/190/119
f 132/190/116 134/191/121 128/192/116
f 127/193/114 135/194/122 130/195/114
f 126/196/112 136/197/123 129/198/112
f 131/188/110 137/199/124 125/200/110
f 138/201/125 139/202/125 136/197/125
f 140/203/126 141/204/126 137/199/126
f 135/194/127 142/205/127 134/191/127
f 136/197/128 143/206/128 144/207/128
f 137/199/129 145/208/129 138/201/129
f 126/196/104 137/199/130 138/201/130
f 127/193/106 136/197/131 144/207/131
f 128/192/132 135/194/132 134/191/132
f 146/209/133 147/210/133 142/205/133
f 139/202/134 148/211/134 143/206/134
f 141/204/135 149/212/135 145/208/135
f 150/213/136 151/214/136 152/215/136
f 150/213/137 147/210/137 142/205/137
f 144/207/138 146/209/138 135/194/138
f 133/189/125 142/205/125 134/191/125
f 140/203/128 150/213/128 133/189/128
f 147/210/102 153/216/102 148/211/102
f 148/211/102 154/217/102 149/212/102
f 149/212/102 155/218/102 151/214/102
f 147/210/101 152/215/101 151/214/101
f 151/219/101 148/220/101 147/221/101
f 141/204/139 151/214/139 155/218/139
f 145/208/140 154/217/140 139/202/141
f 143/206/142 153/216/142 146/209/142
f 117/172/102 118/173/102 120/175/102
f 120/175/103 123/178/103 125/180/104
f 121/176/105 129/184/106 127/182/106
f 119/174/107 130/185/143 128/183/108
f 122/177/109 131/186/110 125/180/110
f 121/176/111 120/175/111 126/181/112
f 118/173/113 127/182/114 130/185/114
f 124/179/115 132/187/116 128/183/116
f 124/179/117 122/177/117 131/186/117
f 131/188/118 140/203/120 133/189/120
f 132/190/116 133/189/121 134/191/121
f 127/193/114 144/207/122 135/194/122
f 126/196/112 138/201/123 136/197/123
f 131/188/110 140/203/124 137/199/124
f 138/201/125 145/208/125 139/202/125
f 140/203/126 156/222/126 141/204/126
f 135/194/127 146/209/127 142/205/127
f 136/197/128 139/202/128 143/206/128
f 137/199/129 141/204/129 145/208/129
f 126/196/104 125/200/104 137/199/130
f 127/193/106 129/198/106 136/197/131
f 128/192/108 130/195/143 135/194/132
f 146/209/133 153/216/133 147/210/133
f 139/202/134 154/217/134 148/211/134
f 141/204/135 155/218/135 149/212/135
f 150/213/136 156/222/136 151/214/136
f 150/213/137 152/215/137 147/210/137
f 144/207/138 143/206/138 146/209/138
f 133/189/125 150/213/125 142/205/125
f 140/203/128 156/222/128 150/213/128
f 151/219/101 149/223/101 148/220/101
f 141/204/139 156/222/139 151/214/139
f 145/208/140 149/212/140 154/217/140
f 143/206/142 148/211/142 153/216/142
