# Blender v2.79 (sub 0) OBJ File: 'level0final.blend'
# www.blender.org
mtllib level1_12.mtl
o level1_12_Cube.037
v 19.009661 3.739915 -1.678903
v 19.009661 0.336010 -1.678903
v 22.465384 3.739915 -1.678903
v 22.465384 0.336010 -1.678903
v 19.009661 3.739915 -7.997009
v 19.009661 0.336010 -7.997009
v 22.465384 3.739915 -7.997009
v 22.465384 0.336010 -7.997009
v 19.009661 2.037963 -1.678903
v 22.465384 2.037963 -1.678903
v 20.737522 3.739915 -1.678903
v 20.737522 0.336010 -1.678903
v 19.009661 2.037963 -7.997009
v 22.465384 2.037963 -7.997009
v 20.737522 3.739915 -7.997009
v 20.737522 0.336010 -7.997009
v 22.465384 3.739915 -4.837957
v 19.009661 3.739915 -4.837957
v 19.009661 0.336010 -4.837957
v 22.465384 0.336010 -4.837957
v 22.465384 2.037963 -4.837957
v 20.737522 0.336010 -4.837957
v 19.009661 2.037963 -4.837957
v 20.737522 3.739915 -4.837957
v 19.009661 1.186987 -1.678903
v 22.465384 1.186987 -1.678903
v 19.873590 3.739915 -1.678903
v 19.873590 0.336010 -1.678903
v 19.009661 1.186987 -7.997009
v 22.465384 1.186987 -7.997009
v 19.873590 3.739915 -7.997009
v 19.873590 0.336010 -7.997009
v 22.465384 3.739915 -6.417482
v 19.009661 3.739915 -3.258430
v 19.009661 0.336010 -3.258430
v 22.465384 0.336010 -3.258430
v 19.009661 2.888939 -1.678903
v 22.465384 2.888939 -1.678903
v 21.601454 3.739915 -1.678903
v 21.601454 0.336010 -1.678903
v 19.009661 2.888939 -7.997009
v 22.465384 2.888939 -7.997009
v 21.601454 3.739915 -7.997009
v 21.601454 0.336010 -7.997009
v 22.465384 3.739915 -3.258430
v 19.009661 3.739915 -6.417482
v 19.009661 0.336010 -6.417482
v 22.465384 0.336010 -6.417482
v 22.465384 2.037963 -6.417482
v 22.465384 2.037963 -3.258430
v 22.465384 2.888939 -4.837957
v 22.465384 1.186987 -4.837957
v 20.737522 0.336010 -6.417482
v 20.737522 0.336010 -3.258430
v 21.601454 0.336010 -4.837957
v 19.873590 0.336010 -4.837957
v 19.009661 2.037963 -6.417482
v 19.009661 2.037963 -3.258430
v 19.009661 1.186987 -4.837957
v 19.009661 2.888939 -4.837957
v 20.737522 3.739915 -6.417482
v 20.737522 3.739915 -3.258430
v 19.873590 3.739915 -4.837957
v 21.601454 3.739915 -4.837957
v 21.601454 3.739915 -3.258430
v 19.873590 3.739915 -3.258430
v 19.873590 3.739915 -6.417482
v 19.009661 2.888939 -3.258430
v 19.009661 1.186987 -3.258430
v 19.009661 1.186987 -6.417482
v 19.873590 0.336010 -3.258430
v 21.601454 0.336010 -3.258430
v 21.601454 0.336010 -6.417482
v 22.465384 1.186987 -3.258430
v 22.465384 2.888939 -3.258430
v 22.465384 2.888939 -6.417482
v 22.465384 1.186987 -6.417482
v 19.873590 0.336010 -6.417482
v 19.009661 2.888939 -6.417482
v 21.601454 3.739915 -6.417482
vt 0.178580 0.808677
vt 0.192406 0.801139
vt 0.192406 0.808677
vt 0.016846 0.921197
vt 0.030664 0.913772
vt 0.030664 0.921197
vt 0.149403 0.947216
vt 0.164835 0.938810
vt 0.164827 0.947216
vt 0.089038 0.842365
vt 0.075221 0.849790
vt 0.075221 0.842365
vt 0.089038 0.827514
vt 0.075221 0.834939
vt 0.075221 0.827514
vt 0.061403 0.827514
vt 0.047586 0.834939
vt 0.047586 0.827514
vt 0.061403 0.842365
vt 0.047586 0.849790
vt 0.047586 0.842365
vt 0.149388 0.964028
vt 0.164820 0.955622
vt 0.164812 0.964029
vt 0.180236 0.964029
vt 0.195668 0.955622
vt 0.195661 0.964029
vt 0.195676 0.947216
vt 0.180259 0.938810
vt 0.195683 0.938810
vt 0.016846 0.936048
vt 0.030664 0.928622
vt 0.030664 0.936048
vt 0.044481 0.936048
vt 0.058299 0.928622
vt 0.058299 0.936048
vt 0.044481 0.921197
vt 0.058299 0.913772
vt 0.058299 0.921197
vt 0.178580 0.823754
vt 0.192406 0.816216
vt 0.192406 0.823754
vt 0.206231 0.823754
vt 0.220056 0.816216
vt 0.220056 0.823754
vt 0.206231 0.808677
vt 0.220056 0.801139
vt 0.220056 0.808677
vt 0.206231 0.816216
vt 0.233881 0.808677
vt 0.233881 0.816216
vt 0.233881 0.801139
vt 0.206231 0.831292
vt 0.220056 0.831292
vt 0.233881 0.823754
vt 0.233881 0.831292
vt 0.178580 0.831292
vt 0.192406 0.831292
vt 0.044481 0.928622
vt 0.072116 0.921197
vt 0.072116 0.928622
vt 0.072116 0.913772
vt 0.044481 0.943473
vt 0.058299 0.943473
vt 0.072116 0.936048
vt 0.072116 0.943473
vt 0.016846 0.943473
vt 0.030664 0.943473
vt 0.180244 0.955622
vt 0.211100 0.947216
vt 0.211093 0.955622
vt 0.211108 0.938810
vt 0.180229 0.972435
vt 0.195653 0.972435
vt 0.211085 0.964029
vt 0.211078 0.972435
vt 0.149380 0.972435
vt 0.164805 0.972435
vt 0.061403 0.834939
vt 0.033768 0.842365
vt 0.033768 0.834939
vt 0.033768 0.849790
vt 0.061403 0.820089
vt 0.047586 0.820089
vt 0.033768 0.827514
vt 0.033768 0.820089
vt 0.089038 0.820089
vt 0.075221 0.820089
vt 0.089038 0.834939
vt 0.061403 0.849790
vt 0.149395 0.955622
vt 0.180251 0.947216
vt 0.016846 0.928622
vt 0.044481 0.913772
vt 0.178580 0.816216
vt 0.206231 0.801139
vt 0.178580 0.801139
vt 0.016846 0.913772
vt 0.149410 0.938810
vt 0.089038 0.849790
vn 0.0000 -1.0000 0.0000
vn 1.0000 0.0000 0.0000
vn 0.0000 1.0000 0.0000
vn -1.0000 0.0000 0.0000
usemtl None
s off
f 43/1/1 33/2/1 80/3/1
f 41/4/2 46/5/2 79/6/2
f 32/7/3 47/8/3 78/9/3
f 30/10/4 48/11/4 77/12/4
f 42/13/4 49/14/4 76/15/4
f 51/16/4 50/17/4 75/18/4
f 52/19/4 36/20/4 74/21/4
f 44/22/3 53/23/3 73/24/3
f 55/25/3 54/26/3 72/27/3
f 71/28/3 19/29/3 35/30/3
f 29/31/2 57/32/2 70/33/2
f 59/34/2 58/35/2 69/36/2
f 60/37/2 34/38/2 68/39/2
f 31/40/1 61/41/1 67/42/1
f 63/43/1 62/44/1 66/45/1
f 64/46/1 45/47/1 65/48/1
f 24/49/1 65/48/1 62/44/1
f 62/44/1 39/50/1 11/51/1
f 65/48/1 3/52/1 39/50/1
f 18/53/1 66/45/1 34/54/1
f 34/54/1 27/55/1 1/56/1
f 66/45/1 11/51/1 27/55/1
f 5/57/1 67/42/1 46/58/1
f 46/58/1 63/43/1 18/53/1
f 67/42/1 24/49/1 63/43/1
f 23/59/2 68/39/2 58/35/2
f 58/35/2 37/60/2 9/61/2
f 37/60/2 34/38/2 1/62/2
f 19/63/2 69/36/2 35/64/2
f 35/64/2 25/65/2 2/66/2
f 69/36/2 9/61/2 25/65/2
f 6/67/2 70/33/2 47/68/2
f 47/68/2 59/34/2 19/63/2
f 70/33/2 23/59/2 59/34/2
f 22/69/3 71/28/3 54/26/3
f 54/26/3 28/70/3 12/71/3
f 71/28/3 2/72/3 28/70/3
f 20/73/3 72/27/3 36/74/3
f 36/74/3 40/75/3 4/76/3
f 72/27/3 12/71/3 40/75/3
f 8/77/3 73/24/3 48/78/3
f 48/78/3 55/25/3 20/73/3
f 73/24/3 22/69/3 55/25/3
f 21/79/4 74/21/4 50/17/4
f 50/17/4 26/80/4 10/81/4
f 26/80/4 36/20/4 4/82/4
f 17/83/4 75/18/4 45/84/4
f 45/84/4 38/85/4 3/86/4
f 75/18/4 10/81/4 38/85/4
f 7/87/4 76/15/4 33/88/4
f 33/88/4 51/16/4 17/83/4
f 76/15/4 21/79/4 51/16/4
f 14/89/4 77/12/4 49/14/4
f 49/14/4 52/19/4 21/79/4
f 52/19/4 48/11/4 20/90/4
f 16/91/3 78/9/3 53/23/3
f 53/23/3 56/92/3 22/69/3
f 78/9/3 19/29/3 56/92/3
f 13/93/2 79/6/2 57/32/2
f 57/32/2 60/37/2 23/59/2
f 60/37/2 46/5/2 18/94/2
f 15/95/1 80/3/1 61/41/1
f 61/41/1 64/46/1 24/49/1
f 80/3/1 17/96/1 64/46/1
f 43/1/1 7/97/1 33/2/1
f 41/4/2 5/98/2 46/5/2
f 32/7/3 6/99/3 47/8/3
f 30/10/4 8/100/4 48/11/4
f 42/13/4 14/89/4 49/14/4
f 51/16/4 21/79/4 50/17/4
f 52/19/4 20/90/4 36/20/4
f 44/22/3 16/91/3 53/23/3
f 55/25/3 22/69/3 54/26/3
f 71/28/3 56/92/3 19/29/3
f 29/31/2 13/93/2 57/32/2
f 59/34/2 23/59/2 58/35/2
f 60/37/2 18/94/2 34/38/2
f 31/40/1 15/95/1 61/41/1
f 63/43/1 24/49/1 62/44/1
f 64/46/1 17/96/1 45/47/1
f 24/49/1 64/46/1 65/48/1
f 62/44/1 65/48/1 39/50/1
f 65/48/1 45/47/1 3/52/1
f 18/53/1 63/43/1 66/45/1
f 34/54/1 66/45/1 27/55/1
f 66/45/1 62/44/1 11/51/1
f 5/57/1 31/40/1 67/42/1
f 46/58/1 67/42/1 63/43/1
f 67/42/1 61/41/1 24/49/1
f 23/59/2 60/37/2 68/39/2
f 58/35/2 68/39/2 37/60/2
f 37/60/2 68/39/2 34/38/2
f 19/63/2 59/34/2 69/36/2
f 35/64/2 69/36/2 25/65/2
f 69/36/2 58/35/2 9/61/2
f 6/67/2 29/31/2 70/33/2
f 47/68/2 70/33/2 59/34/2
f 70/33/2 57/32/2 23/59/2
f 22/69/3 56/92/3 71/28/3
f 54/26/3 71/28/3 28/70/3
f 71/28/3 35/30/3 2/72/3
f 20/73/3 55/25/3 72/27/3
f 36/74/3 72/27/3 40/75/3
f 72/27/3 54/26/3 12/71/3
f 8/77/3 44/22/3 73/24/3
f 48/78/3 73/24/3 55/25/3
f 73/24/3 53/23/3 22/69/3
f 21/79/4 52/19/4 74/21/4
f 50/17/4 74/21/4 26/80/4
f 26/80/4 74/21/4 36/20/4
f 17/83/4 51/16/4 75/18/4
f 45/84/4 75/18/4 38/85/4
f 75/18/4 50/17/4 10/81/4
f 7/87/4 42/13/4 76/15/4
f 33/88/4 76/15/4 51/16/4
f 76/15/4 49/14/4 21/79/4
f 14/89/4 30/10/4 77/12/4
f 49/14/4 77/12/4 52/19/4
f 52/19/4 77/12/4 48/11/4
f 16/91/3 32/7/3 78/9/3
f 53/23/3 78/9/3 56/92/3
f 78/9/3 47/8/3 19/29/3
f 13/93/2 41/4/2 79/6/2
f 57/32/2 79/6/2 60/37/2
f 60/37/2 79/6/2 46/5/2
f 15/95/1 43/1/1 80/3/1
f 61/41/1 80/3/1 64/46/1
f 80/3/1 33/2/1 17/96/1
