# Blender v2.79 (sub 0) OBJ File: 'level0final.blend'
# www.blender.org
mtllib level1_11.mtl
o level1_11_Cube.036
v 19.009661 0.336010 1.725002
v 19.009661 3.739915 1.725002
v 22.465384 0.336010 1.725002
v 22.465384 3.739915 1.725002
v 19.009661 3.739915 8.555494
v 19.009661 0.336010 8.555494
v 22.465384 3.739915 8.555494
v 22.465384 0.336010 8.555494
v 19.009661 2.037963 1.725002
v 22.465384 2.037963 1.725002
v 20.737522 3.739915 1.725002
v 20.737522 0.336010 1.725002
v 19.009661 2.037963 8.555494
v 22.465384 2.037963 8.555494
v 20.737522 3.739915 8.555494
v 20.737522 0.336010 8.555494
v 22.465384 3.739915 5.140249
v 22.465384 0.336010 5.140249
v 19.009661 0.336010 5.140249
v 19.009661 3.739915 5.140249
v 20.737522 0.336010 5.140249
v 20.737522 3.739915 5.140249
v 19.009661 2.037963 5.140249
v 22.465384 2.037963 5.140249
v 19.009661 1.186987 1.725002
v 22.465384 1.186987 1.725002
v 21.601454 3.739915 1.725002
v 21.601454 0.336010 1.725002
v 19.009661 1.186987 8.555494
v 22.465384 1.186987 8.555494
v 21.601454 3.739915 8.555494
v 21.601454 0.336010 8.555494
v 22.465384 3.739915 6.847870
v 22.465384 0.336010 3.432625
v 19.009661 0.336010 6.847870
v 19.009661 3.739915 3.432625
v 19.009661 2.888939 1.725002
v 22.465384 2.888939 1.725002
v 19.873590 3.739915 1.725002
v 19.873590 0.336010 1.725002
v 19.009661 2.888939 8.555494
v 22.465384 2.888939 8.555494
v 19.873590 3.739915 8.555494
v 19.873590 0.336010 8.555494
v 22.465384 3.739915 3.432625
v 22.465384 0.336010 6.847870
v 19.009661 0.336010 3.432625
v 19.009661 3.739915 6.847870
v 20.737522 0.336010 6.847870
v 20.737522 0.336010 3.432625
v 19.873590 0.336010 5.140249
v 21.601454 0.336010 5.140249
v 20.737522 3.739915 6.847870
v 20.737522 3.739915 3.432625
v 21.601454 3.739915 5.140249
v 19.873590 3.739915 5.140249
v 19.009661 2.037963 6.847870
v 19.009661 2.037963 3.432625
v 19.009661 2.888939 5.140249
v 19.009661 1.186987 5.140249
v 22.465384 2.037963 6.847870
v 22.465384 2.037963 3.432625
v 22.465384 1.186987 5.140249
v 22.465384 2.888939 5.140249
v 22.465384 2.888939 3.432625
v 22.465384 1.186987 3.432625
v 22.465384 1.186987 6.847870
v 19.009661 1.186987 3.432625
v 19.009661 2.888939 3.432625
v 19.009661 2.888939 6.847870
v 19.873590 3.739915 3.432625
v 21.601454 3.739915 3.432625
v 21.601454 3.739915 6.847870
v 21.601454 0.336010 3.432625
v 19.873590 0.336010 3.432625
v 19.873590 0.336010 6.847870
v 21.601454 0.336010 6.847870
v 19.873590 3.739915 6.847870
v 19.009661 1.186987 6.847870
v 22.465384 2.888939 6.847870
vt 0.091706 0.840861
vt 0.076767 0.848286
vt 0.076767 0.840861
vt 0.071230 0.959844
vt 0.056292 0.967269
vt 0.056292 0.959844
vt 0.174356 0.805102
vt 0.189303 0.797563
vt 0.189303 0.805102
vt 0.223100 0.960104
vt 0.206417 0.968510
vt 0.206424 0.960104
vt 0.223115 0.943291
vt 0.206432 0.951697
vt 0.206439 0.943291
vt 0.189764 0.943291
vt 0.173081 0.951697
vt 0.173089 0.943291
vt 0.189749 0.960104
vt 0.173066 0.968510
vt 0.173074 0.960104
vt 0.174356 0.820178
vt 0.189303 0.812640
vt 0.189303 0.820178
vt 0.204249 0.820178
vt 0.219196 0.812640
vt 0.219196 0.820178
vt 0.204249 0.805102
vt 0.219196 0.797563
vt 0.219196 0.805102
vt 0.071230 0.944993
vt 0.056292 0.952418
vt 0.056292 0.944993
vt 0.041354 0.944993
vt 0.026416 0.952418
vt 0.026416 0.944993
vt 0.041354 0.959844
vt 0.026416 0.967269
vt 0.026416 0.959844
vt 0.091706 0.826011
vt 0.076767 0.833436
vt 0.076767 0.826011
vt 0.061829 0.826011
vt 0.046891 0.833436
vt 0.046891 0.826011
vt 0.061829 0.840861
vt 0.046891 0.848286
vt 0.046891 0.840861
vt 0.061829 0.833436
vt 0.031953 0.840861
vt 0.031953 0.833436
vt 0.031953 0.848286
vt 0.061829 0.818586
vt 0.046891 0.818586
vt 0.031953 0.826011
vt 0.031953 0.818586
vt 0.091706 0.818586
vt 0.076767 0.818586
vt 0.041354 0.952418
vt 0.011478 0.959844
vt 0.011478 0.952418
vt 0.011478 0.967269
vt 0.041354 0.937568
vt 0.026416 0.937568
vt 0.011478 0.944993
vt 0.011478 0.937568
vt 0.071230 0.937568
vt 0.056292 0.937568
vt 0.204249 0.812640
vt 0.234142 0.805102
vt 0.234142 0.812640
vt 0.234142 0.797563
vt 0.204249 0.827716
vt 0.219196 0.827716
vt 0.234142 0.820178
vt 0.234142 0.827716
vt 0.174356 0.827716
vt 0.189303 0.827716
vt 0.189756 0.951697
vt 0.156398 0.960104
vt 0.156406 0.951697
vt 0.156391 0.968510
vt 0.189771 0.934885
vt 0.173096 0.934885
vt 0.156413 0.943291
vt 0.156421 0.934885
vt 0.223122 0.934885
vt 0.206447 0.934885
vt 0.223107 0.951697
vt 0.189741 0.968510
vt 0.174356 0.812640
vt 0.204249 0.797563
vt 0.071230 0.952418
vt 0.041354 0.967269
vt 0.091706 0.833436
vt 0.061829 0.848286
vt 0.091706 0.848286
vt 0.071230 0.967269
vt 0.174356 0.797563
vt 0.223092 0.968510
vn -1.0000 0.0000 0.0000
vn 1.0000 0.0000 0.0000
vn 0.0000 -1.0000 0.0000
vn 0.0000 1.0000 0.0000
usemtl None
s off
f 42/1/1 33/2/1 80/3/1
f 29/4/2 35/5/2 79/6/2
f 43/7/3 48/8/3 78/9/3
f 32/10/4 46/11/4 77/12/4
f 44/13/4 49/14/4 76/15/4
f 51/16/4 50/17/4 75/18/4
f 52/19/4 34/20/4 74/21/4
f 31/22/3 53/23/3 73/24/3
f 55/25/3 54/26/3 72/27/3
f 56/28/3 36/29/3 71/30/3
f 41/31/2 57/32/2 70/33/2
f 59/34/2 58/35/2 69/36/2
f 60/37/2 47/38/2 68/39/2
f 30/40/1 61/41/1 67/42/1
f 63/43/1 62/44/1 66/45/1
f 64/46/1 45/47/1 65/48/1
f 24/49/1 65/48/1 62/44/1
f 62/44/1 38/50/1 10/51/1
f 65/48/1 4/52/1 38/50/1
f 18/53/1 66/45/1 34/54/1
f 34/54/1 26/55/1 3/56/1
f 66/45/1 10/51/1 26/55/1
f 8/57/1 67/42/1 46/58/1
f 46/58/1 63/43/1 18/53/1
f 67/42/1 24/49/1 63/43/1
f 23/59/2 68/39/2 58/35/2
f 58/35/2 25/60/2 9/61/2
f 68/39/2 1/62/2 25/60/2
f 20/63/2 69/36/2 36/64/2
f 36/64/2 37/65/2 2/66/2
f 69/36/2 9/61/2 37/65/2
f 5/67/2 70/33/2 48/68/2
f 48/68/2 59/34/2 20/63/2
f 70/33/2 23/59/2 59/34/2
f 22/69/3 71/30/3 54/26/3
f 54/26/3 39/70/3 11/71/3
f 39/70/3 36/29/3 2/72/3
f 17/73/3 72/27/3 45/74/3
f 45/74/3 27/75/3 4/76/3
f 72/27/3 11/71/3 27/75/3
f 7/77/3 73/24/3 33/78/3
f 33/78/3 55/25/3 17/73/3
f 73/24/3 22/69/3 55/25/3
f 21/79/4 74/21/4 50/17/4
f 50/17/4 28/80/4 12/81/4
f 28/80/4 34/20/4 3/82/4
f 19/83/4 75/18/4 47/84/4
f 47/84/4 40/85/4 1/86/4
f 75/18/4 12/81/4 40/85/4
f 6/87/4 76/15/4 35/88/4
f 35/88/4 51/16/4 19/83/4
f 76/15/4 21/79/4 51/16/4
f 16/89/4 77/12/4 49/14/4
f 49/14/4 52/19/4 21/79/4
f 77/12/4 18/90/4 52/19/4
f 15/91/3 78/9/3 53/23/3
f 53/23/3 56/28/3 22/69/3
f 78/9/3 20/92/3 56/28/3
f 13/93/2 79/6/2 57/32/2
f 57/32/2 60/37/2 23/59/2
f 79/6/2 19/94/2 60/37/2
f 14/95/1 80/3/1 61/41/1
f 61/41/1 64/46/1 24/49/1
f 80/3/1 17/96/1 64/46/1
f 42/1/1 7/97/1 33/2/1
f 29/4/2 6/98/2 35/5/2
f 43/7/3 5/99/3 48/8/3
f 32/10/4 8/100/4 46/11/4
f 44/13/4 16/89/4 49/14/4
f 51/16/4 21/79/4 50/17/4
f 52/19/4 18/90/4 34/20/4
f 31/22/3 15/91/3 53/23/3
f 55/25/3 22/69/3 54/26/3
f 56/28/3 20/92/3 36/29/3
f 41/31/2 13/93/2 57/32/2
f 59/34/2 23/59/2 58/35/2
f 60/37/2 19/94/2 47/38/2
f 30/40/1 14/95/1 61/41/1
f 63/43/1 24/49/1 62/44/1
f 64/46/1 17/96/1 45/47/1
f 24/49/1 64/46/1 65/48/1
f 62/44/1 65/48/1 38/50/1
f 65/48/1 45/47/1 4/52/1
f 18/53/1 63/43/1 66/45/1
f 34/54/1 66/45/1 26/55/1
f 66/45/1 62/44/1 10/51/1
f 8/57/1 30/40/1 67/42/1
f 46/58/1 67/42/1 63/43/1
f 67/42/1 61/41/1 24/49/1
f 23/59/2 60/37/2 68/39/2
f 58/35/2 68/39/2 25/60/2
f 68/39/2 47/38/2 1/62/2
f 20/63/2 59/34/2 69/36/2
f 36/64/2 69/36/2 37/65/2
f 69/36/2 58/35/2 9/61/2
f 5/67/2 41/31/2 70/33/2
f 48/68/2 70/33/2 59/34/2
f 70/33/2 57/32/2 23/59/2
f 22/69/3 56/28/3 71/30/3
f 54/26/3 71/30/3 39/70/3
f 39/70/3 71/30/3 36/29/3
f 17/73/3 55/25/3 72/27/3
f 45/74/3 72/27/3 27/75/3
f 72/27/3 54/26/3 11/71/3
f 7/77/3 31/22/3 73/24/3
f 33/78/3 73/24/3 55/25/3
f 73/24/3 53/23/3 22/69/3
f 21/79/4 52/19/4 74/21/4
f 50/17/4 74/21/4 28/80/4
f 28/80/4 74/21/4 34/20/4
f 19/83/4 51/16/4 75/18/4
f 47/84/4 75/18/4 40/85/4
f 75/18/4 50/17/4 12/81/4
f 6/87/4 44/13/4 76/15/4
f 35/88/4 76/15/4 51/16/4
f 76/15/4 49/14/4 21/79/4
f 16/89/4 32/10/4 77/12/4
f 49/14/4 77/12/4 52/19/4
f 77/12/4 46/11/4 18/90/4
f 15/91/3 43/7/3 78/9/3
f 53/23/3 78/9/3 56/28/3
f 78/9/3 48/8/3 20/92/3
f 13/93/2 29/4/2 79/6/2
f 57/32/2 79/6/2 60/37/2
f 79/6/2 35/5/2 19/94/2
f 14/95/1 42/1/1 80/3/1
f 61/41/1 80/3/1 64/46/1
f 80/3/1 33/2/1 17/96/1
