# Blender v2.79 (sub 0) OBJ File: ''
# www.blender.org
mtllib level1_0.mtl
o level1_0_Cube.001
v 18.927753 0.341619 -17.436722
v 17.117983 0.341619 -15.522401
v 18.927753 0.341619 -15.522401
v 24.357061 5.689516 -17.436722
v 22.547291 7.472150 -17.436722
v 22.547291 5.689516 -17.436722
v 24.357061 2.124252 -17.436722
v 24.357061 0.341619 -15.522401
v 24.357061 2.124252 -15.522401
v 24.357061 7.472149 -15.522401
v 22.547291 7.472149 -15.522401
v 17.117983 5.689516 -17.436722
v 17.117983 7.472149 -15.522401
v 17.117983 5.689516 -15.522401
v 17.117983 2.124252 -17.436722
v 17.117983 3.906884 -15.522401
v 17.117983 2.124252 -15.522401
v 17.117983 2.124251 -13.608079
v 17.117983 3.906883 -11.693762
v 17.117983 2.124251 -11.693762
v 17.117983 5.689516 -13.608079
v 17.117983 7.472149 -11.693762
v 17.117983 5.689516 -11.693762
v 18.927753 7.472150 -17.436722
v 20.737522 7.472149 -15.522401
v 18.927753 7.472149 -15.522401
v 18.927753 7.472149 -13.608079
v 20.737522 7.472149 -11.693762
v 18.927753 7.472149 -11.693762
v 22.547291 7.472149 -13.608079
v 24.357061 7.472149 -11.693762
v 22.547291 7.472149 -11.693762
v 24.357061 3.906884 -15.522401
v 24.357061 5.689516 -15.522401
v 24.357061 5.689516 -13.608079
v 24.357061 3.906883 -11.693762
v 24.357061 5.689516 -11.693762
v 24.357061 2.124251 -13.608079
v 24.357061 0.341619 -11.693762
v 24.357061 2.124251 -11.693762
v 22.547291 3.906884 -17.436722
v 22.547291 2.124252 -17.436722
v 20.737522 2.124252 -17.436722
v 18.927753 3.906884 -17.436722
v 18.927753 2.124252 -17.436722
v 20.737522 5.689516 -17.436722
v 18.927753 5.689516 -17.436722
v 22.547291 0.341619 -17.436722
v 20.737522 0.341619 -15.522401
v 22.547291 0.341619 -15.522401
v 22.547291 0.341619 -13.608079
v 20.737522 0.341619 -11.693762
v 22.547291 0.341619 -11.693762
v 18.927753 0.341619 -13.608079
v 17.117983 0.341619 -11.693762
v 18.927753 0.341619 -11.693762
v 20.737522 0.341619 -13.608079
v 18.927753 0.341618 -9.779440
v 20.737522 0.341618 -9.779440
v 17.117983 0.341618 -9.779440
v 24.357061 0.341619 -13.608079
v 22.547291 0.341618 -9.779440
v 24.357061 0.341618 -9.779440
v 24.357061 0.341619 -17.436722
v 20.737522 3.906884 -17.436722
v 17.117983 3.906884 -17.436722
v 17.117983 7.472150 -17.436722
v 20.737522 0.341619 -17.436722
v 17.117983 0.341619 -17.436722
v 24.357061 3.906883 -13.608079
v 24.357061 2.124251 -9.779440
v 24.357061 3.906883 -9.779440
v 24.357061 7.472149 -13.608079
v 24.357061 5.689516 -9.779440
v 24.357061 7.472149 -9.779440
v 24.357061 7.472150 -17.436722
v 20.737522 7.472149 -13.608079
v 22.547291 7.472149 -9.779440
v 20.737522 7.472149 -9.779440
v 17.117983 7.472149 -13.608079
v 18.927753 7.472149 -9.779440
v 17.117983 7.472149 -9.779440
v 17.117983 3.906883 -13.608079
v 17.117983 5.689516 -9.779440
v 17.117983 3.906883 -9.779440
v 17.117983 0.341619 -13.608079
v 17.117983 2.124251 -9.779440
v 20.737522 7.472150 -17.436722
v 24.357061 3.906884 -17.436722
vt 0.139723 0.903608
vt 0.158432 0.885999
vt 0.158416 0.903609
vt 0.040232 0.948979
vt 0.056096 0.933432
vt 0.056075 0.948979
vt 0.014143 0.900519
vt 0.030889 0.884964
vt 0.030889 0.900519
vt 0.213112 0.819688
vt 0.196357 0.835479
vt 0.196357 0.819688
vt 0.097600 0.942178
vt 0.080854 0.957733
vt 0.080854 0.942178
vt 0.097600 0.911070
vt 0.080854 0.926624
vt 0.080854 0.911070
vt 0.064107 0.911070
vt 0.047361 0.926624
vt 0.047361 0.911070
vt 0.064107 0.942178
vt 0.047361 0.957733
vt 0.047361 0.942178
vt 0.213112 0.788106
vt 0.196357 0.803897
vt 0.196357 0.788106
vt 0.179601 0.788106
vt 0.162845 0.803897
vt 0.162845 0.788106
vt 0.179601 0.819688
vt 0.162845 0.835479
vt 0.162845 0.819688
vt 0.014143 0.931627
vt 0.030889 0.916073
vt 0.030889 0.931627
vt 0.047635 0.931627
vt 0.064382 0.916073
vt 0.064382 0.931627
vt 0.047635 0.900519
vt 0.064382 0.884964
vt 0.064382 0.900519
vt 0.040190 0.980073
vt 0.056055 0.964526
vt 0.056034 0.980073
vt 0.071878 0.980073
vt 0.087742 0.964526
vt 0.087721 0.980073
vt 0.071919 0.948979
vt 0.087784 0.933432
vt 0.087763 0.948979
vt 0.139691 0.938828
vt 0.158401 0.921218
vt 0.158385 0.938828
vt 0.177079 0.938828
vt 0.195788 0.921218
vt 0.195772 0.938828
vt 0.177110 0.903609
vt 0.195820 0.885999
vt 0.195804 0.903608
vt 0.177094 0.921218
vt 0.214498 0.903608
vt 0.214482 0.921218
vt 0.214513 0.885999
vt 0.177063 0.956437
vt 0.195757 0.956437
vt 0.214466 0.938827
vt 0.214450 0.956437
vt 0.139676 0.956437
vt 0.158369 0.956437
vt 0.071898 0.964526
vt 0.103607 0.948979
vt 0.103586 0.964526
vt 0.103628 0.933432
vt 0.071857 0.995620
vt 0.087701 0.995620
vt 0.103565 0.980073
vt 0.103544 0.995620
vt 0.040169 0.995620
vt 0.056013 0.995620
vt 0.047635 0.916073
vt 0.081128 0.900519
vt 0.081128 0.916073
vt 0.081128 0.884964
vt 0.047635 0.947182
vt 0.064382 0.947182
vt 0.081128 0.931627
vt 0.081128 0.947182
vt 0.014143 0.947182
vt 0.030889 0.947182
vt 0.179601 0.803897
vt 0.146090 0.819688
vt 0.146090 0.803897
vt 0.146090 0.835479
vt 0.179601 0.772315
vt 0.162845 0.772315
vt 0.146090 0.788106
vt 0.146090 0.772315
vt 0.213112 0.772315
vt 0.196357 0.772315
vt 0.064107 0.926624
vt 0.030615 0.942178
vt 0.030615 0.926624
vt 0.030615 0.957733
vt 0.064107 0.895516
vt 0.047361 0.895516
vt 0.030615 0.911070
vt 0.030615 0.895516
vt 0.097600 0.895516
vt 0.080854 0.895516
vt 0.097600 0.926624
vt 0.064107 0.957733
vt 0.213112 0.803897
vt 0.179601 0.835479
vt 0.014143 0.916073
vt 0.047635 0.884964
vt 0.040211 0.964526
vt 0.071940 0.933432
vt 0.139707 0.921218
vt 0.177126 0.885999
vt 0.139739 0.885999
vt 0.040252 0.933432
vt 0.014143 0.884964
vt 0.213112 0.835479
vt 0.097600 0.957733
vn 0.0000 1.0000 0.0000
vn 0.0000 0.0000 1.0000
vn -1.0000 0.0000 0.0000
vn 0.0000 -1.0000 -0.0000
vn 1.0000 0.0000 0.0000
usemtl None.002
s 1
f 1/1/1 2/2/1 3/3/1
f 4/4/2 5/5/2 6/6/2
f 7/7/3 8/8/3 9/9/3
f 5/10/4 10/11/4 11/12/4
f 12/13/5 13/14/5 14/15/5
f 15/16/5 16/17/5 17/18/5
f 18/19/5 19/20/5 20/21/5
f 21/22/5 22/23/5 23/24/5
f 24/25/4 25/26/4 26/27/4
f 27/28/4 28/29/4 29/30/4
f 30/31/4 31/32/4 32/33/4
f 4/34/3 33/35/3 34/36/3
f 35/37/3 36/38/3 37/39/3
f 38/40/3 39/41/3 40/42/3
f 7/43/2 41/44/2 42/45/2
f 43/46/2 44/47/2 45/48/2
f 46/49/2 24/50/2 47/51/2
f 48/52/1 49/53/1 50/54/1
f 51/55/1 52/56/1 53/57/1
f 54/58/1 55/59/1 56/60/1
f 57/61/1 56/60/1 52/56/1
f 52/56/1 58/62/1 59/63/1
f 56/60/1 60/64/1 58/62/1
f 61/65/1 53/57/1 39/66/1
f 39/66/1 62/67/1 63/68/1
f 53/57/1 59/63/1 62/67/1
f 64/69/1 50/54/1 8/70/1
f 8/70/1 51/55/1 61/65/1
f 50/54/1 57/61/1 51/55/1
f 65/71/2 47/51/2 44/47/2
f 44/47/2 12/72/2 66/73/2
f 47/51/2 67/74/2 12/72/2
f 68/75/2 45/48/2 1/76/2
f 1/76/2 15/77/2 69/78/2
f 45/48/2 66/73/2 15/77/2
f 64/79/2 42/45/2 48/80/2
f 48/80/2 43/46/2 68/75/2
f 42/45/2 65/71/2 43/46/2
f 70/81/3 40/42/3 36/38/3
f 36/38/3 71/82/3 72/83/3
f 71/82/3 39/41/3 63/84/3
f 73/85/3 37/39/3 31/86/3
f 31/86/3 74/87/3 75/88/3
f 37/39/3 72/83/3 74/87/3
f 76/89/3 34/36/3 10/90/3
f 10/90/3 35/37/3 73/85/3
f 34/36/3 70/81/3 35/37/3
f 77/91/4 32/33/4 28/29/4
f 28/29/4 78/92/4 79/93/4
f 32/33/4 75/94/4 78/92/4
f 80/95/4 29/30/4 22/96/4
f 22/96/4 81/97/4 82/98/4
f 29/30/4 79/93/4 81/97/4
f 67/99/4 26/27/4 13/100/4
f 13/100/4 27/28/4 80/95/4
f 26/27/4 77/91/4 27/28/4
f 83/101/5 23/24/5 19/20/5
f 19/20/5 84/102/5 85/103/5
f 23/24/5 82/104/5 84/102/5
f 86/105/5 20/21/5 55/106/5
f 55/106/5 87/107/5 60/108/5
f 20/21/5 85/103/5 87/107/5
f 69/109/5 17/18/5 2/110/5
f 2/110/5 18/19/5 86/105/5
f 17/18/5 83/101/5 18/19/5
f 66/111/5 14/15/5 16/17/5
f 16/17/5 21/22/5 83/101/5
f 14/15/5 80/112/5 21/22/5
f 88/113/4 11/12/4 25/26/4
f 25/26/4 30/31/4 77/91/4
f 11/12/4 73/114/4 30/31/4
f 89/115/3 9/9/3 33/35/3
f 33/35/3 38/40/3 70/81/3
f 9/9/3 61/116/3 38/40/3
f 89/117/2 6/6/2 41/44/2
f 41/44/2 46/49/2 65/71/2
f 6/6/2 88/118/2 46/49/2
f 68/119/1 3/3/1 49/53/1
f 49/53/1 54/58/1 57/61/1
f 3/3/1 86/120/1 54/58/1
f 1/1/1 69/121/1 2/2/1
f 4/4/2 76/122/2 5/5/2
f 7/7/3 64/123/3 8/8/3
f 5/10/4 76/124/4 10/11/4
f 12/13/5 67/125/5 13/14/5
f 15/16/5 66/111/5 16/17/5
f 18/19/5 83/101/5 19/20/5
f 21/22/5 80/112/5 22/23/5
f 24/25/4 88/113/4 25/26/4
f 27/28/4 77/91/4 28/29/4
f 30/31/4 73/114/4 31/32/4
f 4/34/3 89/115/3 33/35/3
f 35/37/3 70/81/3 36/38/3
f 38/40/3 61/116/3 39/41/3
f 7/43/2 89/117/2 41/44/2
f 43/46/2 65/71/2 44/47/2
f 46/49/2 88/118/2 24/50/2
f 48/52/1 68/119/1 49/53/1
f 51/55/1 57/61/1 52/56/1
f 54/58/1 86/120/1 55/59/1
f 57/61/1 54/58/1 56/60/1
f 52/56/1 56/60/1 58/62/1
f 56/60/1 55/59/1 60/64/1
f 61/65/1 51/55/1 53/57/1
f 39/66/1 53/57/1 62/67/1
f 53/57/1 52/56/1 59/63/1
f 64/69/1 48/52/1 50/54/1
f 8/70/1 50/54/1 51/55/1
f 50/54/1 49/53/1 57/61/1
f 65/71/2 46/49/2 47/51/2
f 44/47/2 47/51/2 12/72/2
f 47/51/2 24/50/2 67/74/2
f 68/75/2 43/46/2 45/48/2
f 1/76/2 45/48/2 15/77/2
f 45/48/2 44/47/2 66/73/2
f 64/79/2 7/43/2 42/45/2
f 48/80/2 42/45/2 43/46/2
f 42/45/2 41/44/2 65/71/2
f 70/81/3 38/40/3 40/42/3
f 36/38/3 40/42/3 71/82/3
f 71/82/3 40/42/3 39/41/3
f 73/85/3 35/37/3 37/39/3
f 31/86/3 37/39/3 74/87/3
f 37/39/3 36/38/3 72/83/3
f 76/89/3 4/34/3 34/36/3
f 10/90/3 34/36/3 35/37/3
f 34/36/3 33/35/3 70/81/3
f 77/91/4 30/31/4 32/33/4
f 28/29/4 32/33/4 78/92/4
f 32/33/4 31/32/4 75/94/4
f 80/95/4 27/28/4 29/30/4
f 22/96/4 29/30/4 81/97/4
f 29/30/4 28/29/4 79/93/4
f 67/99/4 24/25/4 26/27/4
f 13/100/4 26/27/4 27/28/4
f 26/27/4 25/26/4 77/91/4
f 83/101/5 21/22/5 23/24/5
f 19/20/5 23/24/5 84/102/5
f 23/24/5 22/23/5 82/104/5
f 86/105/5 18/19/5 20/21/5
f 55/106/5 20/21/5 87/107/5
f 20/21/5 19/20/5 85/103/5
f 69/109/5 15/16/5 17/18/5
f 2/110/5 17/18/5 18/19/5
f 17/18/5 16/17/5 83/101/5
f 66/111/5 12/13/5 14/15/5
f 16/17/5 14/15/5 21/22/5
f 14/15/5 13/14/5 80/112/5
f 88/113/4 5/10/4 11/12/4
f 25/26/4 11/12/4 30/31/4
f 11/12/4 10/11/4 73/114/4
f 89/115/3 7/7/3 9/9/3
f 33/35/3 9/9/3 38/40/3
f 9/9/3 8/8/3 61/116/3
f 89/117/2 4/4/2 6/6/2
f 41/44/2 6/6/2 46/49/2
f 6/6/2 5/5/2 88/118/2
f 68/119/1 1/1/1 3/3/1
f 49/53/1 3/3/1 54/58/1
f 3/3/1 2/2/1 86/120/1
