# Blender v2.79 (sub 0) OBJ File: 'level0final.blend'
# www.blender.org
mtllib level1_7.mtl
o level1_7_Cube.032
v 7.833650 3.739915 -1.678903
v 7.833650 0.336010 -1.678903
v 7.833650 0.336010 1.725002
v 7.833650 3.739915 1.725002
v 19.009661 3.739915 -1.678903
v 19.009661 0.336010 -1.678903
v 19.009661 0.336010 1.725002
v 19.009661 3.739915 1.725002
v 7.833650 2.037963 -1.678903
v 7.833650 0.336010 0.023049
v 7.833650 3.739915 0.023049
v 7.833650 2.037963 1.725002
v 19.009661 2.037963 -1.678903
v 19.009661 0.336010 0.023049
v 19.009661 3.739915 0.023049
v 19.009661 2.037963 1.725002
v 13.421654 0.336010 1.725002
v 13.421654 3.739915 1.725002
v 13.421654 0.336010 -1.678903
v 13.421654 3.739915 -1.678903
v 13.421654 2.037963 -1.678903
v 13.421654 3.739915 0.023049
v 13.421654 0.336010 0.023049
v 13.421654 2.037963 1.725002
v 7.833650 1.186987 -1.678903
v 7.833650 0.336010 -0.827927
v 7.833650 3.739915 0.874026
v 7.833650 1.186987 1.725002
v 19.009661 1.186987 -1.678903
v 19.009661 0.336010 -0.827927
v 19.009661 3.739915 0.874026
v 19.009661 1.186987 1.725002
v 16.215658 0.336010 1.725002
v 10.627654 3.739915 1.725002
v 16.215658 0.336010 -1.678903
v 10.627654 3.739915 -1.678903
v 7.833650 2.888939 -1.678903
v 7.833650 0.336010 0.874026
v 7.833650 3.739915 -0.827927
v 7.833650 2.888939 1.725002
v 19.009661 2.888939 -1.678903
v 19.009661 0.336010 0.874026
v 19.009661 3.739915 -0.827927
v 19.009661 2.888939 1.725002
v 10.627654 0.336010 1.725002
v 16.215658 3.739915 1.725002
v 10.627654 0.336010 -1.678903
v 16.215658 3.739915 -1.678903
v 16.215658 2.037963 -1.678903
v 10.627654 2.037963 -1.678903
v 13.421654 1.186987 -1.678903
v 13.421654 2.888939 -1.678903
v 16.215658 3.739915 0.023049
v 10.627654 3.739915 0.023049
v 13.421654 3.739915 -0.827927
v 13.421654 3.739915 0.874026
v 16.215658 0.336010 0.023049
v 10.627654 0.336010 0.023049
v 13.421654 0.336010 0.874026
v 13.421654 0.336010 -0.827927
v 16.215658 2.037963 1.725002
v 10.627654 2.037963 1.725002
v 13.421654 2.888939 1.725002
v 13.421654 1.186987 1.725002
v 10.627654 1.186987 1.725002
v 10.627654 2.888939 1.725002
v 16.215658 2.888939 1.725002
v 10.627654 0.336010 -0.827927
v 10.627654 0.336010 0.874026
v 16.215658 0.336010 0.874026
v 10.627654 3.739915 0.874026
v 10.627654 3.739915 -0.827927
v 16.215658 3.739915 -0.827927
v 10.627654 2.888939 -1.678903
v 10.627654 1.186987 -1.678903
v 16.215658 1.186987 -1.678903
v 16.215658 2.888939 -1.678903
v 16.215658 3.739915 0.874026
v 16.215658 0.336010 -0.827927
v 16.215658 1.186987 1.725002
vt 0.005739 0.926587
vt 0.030140 0.919190
vt 0.030179 0.926587
vt 0.138279 0.908827
vt 0.165574 0.900552
vt 0.165581 0.908827
vt 0.237054 0.828878
vt 0.212571 0.836295
vt 0.212571 0.828878
vt 0.005087 0.890535
vt 0.029557 0.883114
vt 0.029547 0.890535
vt 0.005067 0.905378
vt 0.029537 0.897957
vt 0.029527 0.905378
vt 0.053987 0.905378
vt 0.078458 0.897957
vt 0.078448 0.905378
vt 0.054007 0.890535
vt 0.078477 0.883114
vt 0.078468 0.890535
vt 0.237054 0.814045
vt 0.212571 0.821461
vt 0.212571 0.814045
vt 0.188088 0.814045
vt 0.163606 0.821461
vt 0.163606 0.814045
vt 0.188088 0.828878
vt 0.163606 0.836295
vt 0.163606 0.828878
vt 0.138293 0.925376
vt 0.165588 0.917101
vt 0.165596 0.925376
vt 0.192898 0.925376
vt 0.220193 0.917101
vt 0.220200 0.925376
vt 0.192883 0.908827
vt 0.220178 0.900552
vt 0.220185 0.908827
vt 0.005818 0.941379
vt 0.030218 0.933983
vt 0.030257 0.941379
vt 0.054697 0.941379
vt 0.079097 0.933983
vt 0.079136 0.941379
vt 0.054618 0.926587
vt 0.079018 0.919190
vt 0.079058 0.926587
vt 0.054658 0.933983
vt 0.103497 0.926587
vt 0.103536 0.933983
vt 0.103458 0.919190
vt 0.054736 0.948775
vt 0.079175 0.948775
vt 0.103576 0.941379
vt 0.103615 0.948775
vt 0.005857 0.948775
vt 0.030296 0.948775
vt 0.192891 0.917101
vt 0.247488 0.908827
vt 0.247495 0.917101
vt 0.247480 0.900552
vt 0.192905 0.933651
vt 0.220207 0.933651
vt 0.247502 0.925376
vt 0.247510 0.933651
vt 0.138301 0.933651
vt 0.165603 0.933651
vt 0.188088 0.821461
vt 0.139123 0.828878
vt 0.139123 0.821461
vt 0.139123 0.836295
vt 0.188088 0.806628
vt 0.163606 0.806628
vt 0.139123 0.814045
vt 0.139123 0.806628
vt 0.237054 0.806628
vt 0.212571 0.806628
vt 0.053997 0.897957
vt 0.102928 0.890535
vt 0.102918 0.897957
vt 0.102938 0.883114
vt 0.053977 0.912800
vt 0.078438 0.912800
vt 0.102908 0.905378
vt 0.102898 0.912800
vt 0.005057 0.912800
vt 0.029517 0.912800
vt 0.005077 0.897957
vt 0.054017 0.883114
vt 0.237054 0.821461
vt 0.188088 0.836295
vt 0.138286 0.917101
vt 0.192876 0.900552
vt 0.005779 0.933983
vt 0.054579 0.919190
vt 0.005700 0.919190
vt 0.138271 0.900552
vt 0.237054 0.836295
vt 0.005096 0.883114
vn 0.0000 0.0000 -1.0000
vn 0.0000 1.0000 0.0000
vn 0.0000 -1.0000 0.0000
vn 0.0000 0.0000 1.0000
usemtl None
s off
f 32/1/1 33/2/1 80/3/1
f 30/4/2 35/5/2 79/6/2
f 31/7/3 46/8/3 78/9/3
f 41/10/4 48/11/4 77/12/4
f 29/13/4 49/14/4 76/15/4
f 51/16/4 50/17/4 75/18/4
f 52/19/4 36/20/4 74/21/4
f 43/22/3 53/23/3 73/24/3
f 55/25/3 54/26/3 72/27/3
f 56/28/3 34/29/3 71/30/3
f 42/31/2 57/32/2 70/33/2
f 59/34/2 58/35/2 69/36/2
f 60/37/2 47/38/2 68/39/2
f 44/40/1 61/41/1 67/42/1
f 63/43/1 62/44/1 66/45/1
f 64/46/1 45/47/1 65/48/1
f 24/49/1 65/48/1 62/44/1
f 62/44/1 28/50/1 12/51/1
f 65/48/1 3/52/1 28/50/1
f 18/53/1 66/45/1 34/54/1
f 34/54/1 40/55/1 4/56/1
f 66/45/1 12/51/1 40/55/1
f 8/57/1 67/42/1 46/58/1
f 46/58/1 63/43/1 18/53/1
f 67/42/1 24/49/1 63/43/1
f 23/59/2 68/39/2 58/35/2
f 58/35/2 26/60/2 10/61/2
f 68/39/2 2/62/2 26/60/2
f 17/63/2 69/36/2 45/64/2
f 45/64/2 38/65/2 3/66/2
f 69/36/2 10/61/2 38/65/2
f 7/67/2 70/33/2 33/68/2
f 33/68/2 59/34/2 17/63/2
f 70/33/2 23/59/2 59/34/2
f 22/69/3 71/30/3 54/26/3
f 54/26/3 27/70/3 11/71/3
f 71/30/3 4/72/3 27/70/3
f 20/73/3 72/27/3 36/74/3
f 36/74/3 39/75/3 1/76/3
f 72/27/3 11/71/3 39/75/3
f 5/77/3 73/24/3 48/78/3
f 48/78/3 55/25/3 20/73/3
f 73/24/3 22/69/3 55/25/3
f 21/79/4 74/21/4 50/17/4
f 50/17/4 37/80/4 9/81/4
f 74/21/4 1/82/4 37/80/4
f 19/83/4 75/18/4 47/84/4
f 47/84/4 25/85/4 2/86/4
f 75/18/4 9/81/4 25/85/4
f 6/87/4 76/15/4 35/88/4
f 35/88/4 51/16/4 19/83/4
f 76/15/4 21/79/4 51/16/4
f 13/89/4 77/12/4 49/14/4
f 49/14/4 52/19/4 21/79/4
f 77/12/4 20/90/4 52/19/4
f 15/91/3 78/9/3 53/23/3
f 53/23/3 56/28/3 22/69/3
f 78/9/3 18/92/3 56/28/3
f 14/93/2 79/6/2 57/32/2
f 57/32/2 60/37/2 23/59/2
f 79/6/2 19/94/2 60/37/2
f 16/95/1 80/3/1 61/41/1
f 61/41/1 64/46/1 24/49/1
f 80/3/1 17/96/1 64/46/1
f 32/1/1 7/97/1 33/2/1
f 30/4/2 6/98/2 35/5/2
f 31/7/3 8/99/3 46/8/3
f 41/10/4 5/100/4 48/11/4
f 29/13/4 13/89/4 49/14/4
f 51/16/4 21/79/4 50/17/4
f 52/19/4 20/90/4 36/20/4
f 43/22/3 15/91/3 53/23/3
f 55/25/3 22/69/3 54/26/3
f 56/28/3 18/92/3 34/29/3
f 42/31/2 14/93/2 57/32/2
f 59/34/2 23/59/2 58/35/2
f 60/37/2 19/94/2 47/38/2
f 44/40/1 16/95/1 61/41/1
f 63/43/1 24/49/1 62/44/1
f 64/46/1 17/96/1 45/47/1
f 24/49/1 64/46/1 65/48/1
f 62/44/1 65/48/1 28/50/1
f 65/48/1 45/47/1 3/52/1
f 18/53/1 63/43/1 66/45/1
f 34/54/1 66/45/1 40/55/1
f 66/45/1 62/44/1 12/51/1
f 8/57/1 44/40/1 67/42/1
f 46/58/1 67/42/1 63/43/1
f 67/42/1 61/41/1 24/49/1
f 23/59/2 60/37/2 68/39/2
f 58/35/2 68/39/2 26/60/2
f 68/39/2 47/38/2 2/62/2
f 17/63/2 59/34/2 69/36/2
f 45/64/2 69/36/2 38/65/2
f 69/36/2 58/35/2 10/61/2
f 7/67/2 42/31/2 70/33/2
f 33/68/2 70/33/2 59/34/2
f 70/33/2 57/32/2 23/59/2
f 22/69/3 56/28/3 71/30/3
f 54/26/3 71/30/3 27/70/3
f 71/30/3 34/29/3 4/72/3
f 20/73/3 55/25/3 72/27/3
f 36/74/3 72/27/3 39/75/3
f 72/27/3 54/26/3 11/71/3
f 5/77/3 43/22/3 73/24/3
f 48/78/3 73/24/3 55/25/3
f 73/24/3 53/23/3 22/69/3
f 21/79/4 52/19/4 74/21/4
f 50/17/4 74/21/4 37/80/4
f 74/21/4 36/20/4 1/82/4
f 19/83/4 51/16/4 75/18/4
f 47/84/4 75/18/4 25/85/4
f 75/18/4 50/17/4 9/81/4
f 6/87/4 29/13/4 76/15/4
f 35/88/4 76/15/4 51/16/4
f 76/15/4 49/14/4 21/79/4
f 13/89/4 41/10/4 77/12/4
f 49/14/4 77/12/4 52/19/4
f 77/12/4 48/11/4 20/90/4
f 15/91/3 31/7/3 78/9/3
f 53/23/3 78/9/3 56/28/3
f 78/9/3 46/8/3 18/92/3
f 14/93/2 30/4/2 79/6/2
f 57/32/2 79/6/2 60/37/2
f 79/6/2 35/5/2 19/94/2
f 16/95/1 32/1/1 80/3/1
f 61/41/1 80/3/1 64/46/1
f 80/3/1 33/2/1 17/96/1
