# Blender v2.79 (sub 0) OBJ File: 'level0final.blend'
# www.blender.org
mtllib level1_10.mtl
o level1_10_Cube.035
v 19.009661 3.739915 8.555494
v 19.009661 0.336010 8.555494
v 22.465384 3.739915 8.555494
v 22.465384 0.336010 8.555494
v 17.708195 6.343787 9.115441
v 17.708195 0.375981 9.115441
v 23.766850 6.343787 9.115441
v 23.766850 0.375981 9.115441
v 19.009661 2.037963 8.555494
v 22.465384 2.037963 8.555494
v 20.737522 3.739915 8.555494
v 20.737522 0.336010 8.555494
v 17.708195 3.359884 9.115441
v 23.766850 3.359884 9.115441
v 20.737522 6.343787 9.115441
v 20.737522 0.375981 9.115441
v 18.358927 5.041852 8.835467
v 23.116117 5.041852 8.835467
v 18.358927 0.355996 8.835467
v 23.116117 0.355996 8.835467
v 23.116117 2.698923 8.835467
v 20.737522 0.355996 8.835467
v 18.358927 2.698923 8.835467
v 20.737522 5.041852 8.835467
v 19.009661 1.186987 8.555494
v 22.465384 1.186987 8.555494
v 21.601454 3.739915 8.555494
v 21.601454 0.336010 8.555494
v 17.708195 1.867932 9.115441
v 23.766850 1.867932 9.115441
v 22.252186 6.343787 9.115441
v 22.252186 0.375981 9.115441
v 18.033562 5.692819 8.975454
v 22.790751 4.390883 8.695481
v 18.033562 0.365988 8.975454
v 23.441483 0.365988 8.975454
v 19.009661 2.888939 8.555494
v 22.465384 2.888939 8.555494
v 19.873590 3.739915 8.555494
v 19.873590 0.336010 8.555494
v 17.708195 4.851835 9.115441
v 23.766850 4.851835 9.115441
v 19.222858 6.343787 9.115441
v 19.222858 0.375981 9.115441
v 18.684294 4.390883 8.695481
v 23.441483 5.692819 8.975454
v 18.684294 0.346003 8.695481
v 22.790751 0.346003 8.695481
v 23.441483 3.029403 8.975454
v 22.790751 2.368443 8.695481
v 23.116117 1.527459 8.835467
v 23.116117 3.870387 8.835467
v 20.737522 0.365988 8.975454
v 20.737522 0.346003 8.695481
v 19.548225 0.355996 8.835467
v 21.926819 0.355996 8.835467
v 18.033562 3.029403 8.975454
v 18.684294 2.368443 8.695481
v 18.358927 3.870387 8.835467
v 18.358927 1.527459 8.835467
v 20.737522 5.692819 8.975454
v 20.737522 4.390883 8.695481
v 21.926819 5.041852 8.835467
v 19.548225 5.041852 8.835467
v 19.710909 4.390883 8.695481
v 21.764137 4.390883 8.695481
v 22.089502 5.692819 8.975454
v 18.684294 1.357223 8.695481
v 18.684294 3.379663 8.695481
v 18.033562 4.361112 8.975454
v 21.764137 0.346003 8.695481
v 19.710909 0.346003 8.695481
v 19.385542 0.365988 8.975454
v 22.790751 3.379663 8.695481
v 22.790751 1.357223 8.695481
v 23.441483 1.697696 8.975454
v 23.441483 4.361112 8.975454
v 22.089502 0.365988 8.975454
v 18.033562 1.697696 8.975454
v 19.385542 5.692819 8.975454
vt 0.047397 0.931242
vt 0.057862 0.936944
vt 0.046026 0.936960
vt 0.057862 0.971786
vt 0.060657 0.983272
vt 0.057862 0.983401
vt 0.198975 0.926642
vt 0.209616 0.927897
vt 0.197520 0.927897
vt 0.007616 0.944307
vt 0.010518 0.937007
vt 0.010518 0.948621
vt 0.007616 0.970331
vt 0.010518 0.960235
vt 0.010518 0.971849
vt 0.013419 0.973368
vt 0.016320 0.966068
vt 0.016320 0.974887
vt 0.013419 0.952935
vt 0.016320 0.948429
vt 0.016320 0.957248
vt 0.173328 0.927897
vt 0.185424 0.926642
vt 0.185424 0.927897
vt 0.176239 0.930409
vt 0.185424 0.929153
vt 0.185424 0.930409
vt 0.196064 0.929153
vt 0.203794 0.930409
vt 0.194609 0.930409
vt 0.057862 0.948558
vt 0.060657 0.957248
vt 0.057862 0.960172
vt 0.052270 0.957201
vt 0.055066 0.963096
vt 0.052270 0.966020
vt 0.052270 0.974839
vt 0.055066 0.983529
vt 0.052270 0.983658
vt 0.022354 0.936991
vt 0.034137 0.931260
vt 0.034190 0.936975
vt 0.025307 0.948417
vt 0.034242 0.942690
vt 0.034295 0.948405
vt 0.044654 0.942676
vt 0.052270 0.948382
vt 0.043282 0.948393
vt 0.041911 0.954110
vt 0.034348 0.954121
vt 0.049474 0.954101
vt 0.023830 0.942704
vt 0.019221 0.954141
vt 0.026784 0.954131
vt 0.020877 0.931278
vt 0.013419 0.942718
vt 0.055066 0.973313
vt 0.049474 0.968944
vt 0.049474 0.976365
vt 0.049474 0.983787
vt 0.055066 0.952879
vt 0.049474 0.961522
vt 0.060657 0.944237
vt 0.055066 0.942663
vt 0.193153 0.931664
vt 0.185424 0.931664
vt 0.200883 0.931664
vt 0.167054 0.930409
vt 0.174783 0.929153
vt 0.169965 0.931664
vt 0.177694 0.931664
vt 0.161232 0.927897
vt 0.171872 0.926642
vt 0.164143 0.929153
vt 0.013419 0.963151
vt 0.019221 0.961562
vt 0.019221 0.968984
vt 0.013419 0.983585
vt 0.016320 0.983706
vt 0.019221 0.976405
vt 0.019221 0.983827
vt 0.007616 0.983342
vt 0.010518 0.983463
vt 0.007616 0.957319
vt 0.206705 0.929153
vt 0.060657 0.970260
vt 0.060657 0.931225
vt 0.212527 0.926642
vt 0.007616 0.931295
vt 0.158321 0.926642
vn 0.0000 -0.2102 0.9777
vn 0.3952 0.0000 0.9186
vn 0.0000 0.9975 -0.0712
vn -0.3952 0.0000 0.9186
usemtl None
s off
f 43/1/1 33/2/1 80/3/1
f 79/4/2 6/5/2 35/6/2
f 32/7/3 36/8/3 78/9/3
f 42/10/4 46/11/4 77/12/4
f 30/13/4 49/14/4 76/15/4
f 51/16/4 50/17/4 75/18/4
f 52/19/4 34/20/4 74/21/4
f 73/22/3 16/23/3 53/24/3
f 72/25/3 22/26/3 54/27/3
f 56/28/3 48/29/3 71/30/3
f 70/31/2 13/32/2 57/33/2
f 69/34/2 23/35/2 58/36/2
f 68/37/2 19/38/2 47/39/2
f 67/40/1 15/41/1 61/42/1
f 66/43/1 24/44/1 62/45/1
f 64/46/1 45/47/1 65/48/1
f 24/44/1 65/48/1 62/45/1
f 62/45/1 39/49/1 11/50/1
f 65/48/1 1/51/1 39/49/1
f 34/20/1 63/52/1 66/43/1
f 3/53/1 66/43/1 27/54/1
f 27/54/1 62/45/1 11/50/1
f 46/11/1 31/55/1 67/40/1
f 18/56/1 67/40/1 63/52/1
f 63/52/1 61/42/1 24/44/1
f 58/36/2 60/57/2 68/37/2
f 9/58/2 68/37/2 25/59/2
f 25/59/2 47/39/2 2/60/2
f 45/47/2 59/61/2 69/34/2
f 1/51/2 69/34/2 37/62/2
f 37/62/2 58/36/2 9/58/2
f 33/2/2 41/63/2 70/31/2
f 17/64/2 70/31/2 59/61/2
f 59/61/2 57/33/2 23/35/2
f 22/26/3 71/30/3 54/27/3
f 54/27/3 28/65/3 12/66/3
f 71/30/3 4/67/3 28/65/3
f 47/68/3 55/69/3 72/25/3
f 2/70/3 72/25/3 40/71/3
f 40/71/3 54/27/3 12/66/3
f 35/72/3 44/73/3 73/22/3
f 19/74/3 73/22/3 55/69/3
f 55/69/3 53/24/3 22/26/3
f 21/75/4 74/21/4 50/17/4
f 50/17/4 38/76/4 10/77/4
f 74/21/4 3/53/4 38/76/4
f 20/78/4 75/18/4 48/79/4
f 48/79/4 26/80/4 4/81/4
f 75/18/4 10/77/4 26/80/4
f 8/82/4 76/15/4 36/83/4
f 36/83/4 51/16/4 20/78/4
f 76/15/4 21/75/4 51/16/4
f 14/84/4 77/12/4 49/14/4
f 49/14/4 52/19/4 21/75/4
f 77/12/4 18/56/4 52/19/4
f 16/23/3 78/9/3 53/24/3
f 53/24/3 56/28/3 22/26/3
f 78/9/3 20/85/3 56/28/3
f 57/33/2 29/86/2 79/4/2
f 23/35/2 79/4/2 60/57/2
f 60/57/2 35/6/2 19/38/2
f 15/41/1 80/3/1 61/42/1
f 61/42/1 64/46/1 24/44/1
f 80/3/1 17/64/1 64/46/1
f 43/1/1 5/87/1 33/2/1
f 79/4/2 29/86/2 6/5/2
f 32/7/3 8/88/3 36/8/3
f 42/10/4 7/89/4 46/11/4
f 30/13/4 14/84/4 49/14/4
f 51/16/4 21/75/4 50/17/4
f 52/19/4 18/56/4 34/20/4
f 73/22/3 44/73/3 16/23/3
f 72/25/3 55/69/3 22/26/3
f 56/28/3 20/85/3 48/29/3
f 70/31/2 41/63/2 13/32/2
f 69/34/2 59/61/2 23/35/2
f 68/37/2 60/57/2 19/38/2
f 67/40/1 31/55/1 15/41/1
f 66/43/1 63/52/1 24/44/1
f 64/46/1 17/64/1 45/47/1
f 24/44/1 64/46/1 65/48/1
f 62/45/1 65/48/1 39/49/1
f 65/48/1 45/47/1 1/51/1
f 34/20/1 18/56/1 63/52/1
f 3/53/1 34/20/1 66/43/1
f 27/54/1 66/43/1 62/45/1
f 46/11/1 7/89/1 31/55/1
f 18/56/1 46/11/1 67/40/1
f 63/52/1 67/40/1 61/42/1
f 58/36/2 23/35/2 60/57/2
f 9/58/2 58/36/2 68/37/2
f 25/59/2 68/37/2 47/39/2
f 45/47/2 17/64/2 59/61/2
f 1/51/2 45/47/2 69/34/2
f 37/62/2 69/34/2 58/36/2
f 33/2/2 5/87/2 41/63/2
f 17/64/2 33/2/2 70/31/2
f 59/61/2 70/31/2 57/33/2
f 22/26/3 56/28/3 71/30/3
f 54/27/3 71/30/3 28/65/3
f 71/30/3 48/29/3 4/67/3
f 47/68/3 19/74/3 55/69/3
f 2/70/3 47/68/3 72/25/3
f 40/71/3 72/25/3 54/27/3
f 35/72/3 6/90/3 44/73/3
f 19/74/3 35/72/3 73/22/3
f 55/69/3 73/22/3 53/24/3
f 21/75/4 52/19/4 74/21/4
f 50/17/4 74/21/4 38/76/4
f 74/21/4 34/20/4 3/53/4
f 20/78/4 51/16/4 75/18/4
f 48/79/4 75/18/4 26/80/4
f 75/18/4 50/17/4 10/77/4
f 8/82/4 30/13/4 76/15/4
f 36/83/4 76/15/4 51/16/4
f 76/15/4 49/14/4 21/75/4
f 14/84/4 42/10/4 77/12/4
f 49/14/4 77/12/4 52/19/4
f 77/12/4 46/11/4 18/56/4
f 16/23/3 32/7/3 78/9/3
f 53/24/3 78/9/3 56/28/3
f 78/9/3 36/8/3 20/85/3
f 57/33/2 13/32/2 29/86/2
f 23/35/2 57/33/2 79/4/2
f 60/57/2 79/4/2 35/6/2
f 15/41/1 43/1/1 80/3/1
f 61/42/1 80/3/1 64/46/1
f 80/3/1 33/2/1 17/64/1
