# Blender v2.79 (sub 0) OBJ File: 'untitled.blend'
# www.blender.org
mtllib level.015.mtl
o level.015_Cube.183
v 1.443132 1.680711 36.244793
v 2.228542 5.390356 35.896507
v 2.059387 5.624264 32.197960
v 1.721308 1.881880 31.846294
v -2.052285 2.216280 32.042400
v -1.683506 5.995848 32.444210
v -1.878836 4.107865 32.244106
v -1.449870 6.164806 36.138485
v -2.243284 2.480388 36.218510
v -1.844395 4.322258 36.178696
v -1.795844 5.914608 30.667917
v 1.582220 1.781295 34.045544
v 2.143965 5.507310 34.047234
v 3.812888 1.323434 36.257500
v -2.147785 2.348334 34.130455
v -1.781171 5.051857 32.344158
v -0.165488 2.049080 31.944345
v -1.965560 3.162073 32.143253
v 0.187941 5.810056 32.321087
v -1.566688 6.080328 34.291348
v -1.861616 4.215062 34.211399
v -2.043840 3.401323 36.198601
v 0.389336 5.777582 36.017494
v -1.647133 5.243532 36.158588
v -0.400076 2.080549 36.231651
v 0.112332 5.914608 30.667919
v 3.951976 1.424019 34.058250
v -1.763950 5.159053 34.311455
v -0.304576 1.948495 34.143597
v -2.061060 3.294127 34.231308
v 0.272518 5.693102 34.170361
vt 0.073589 0.824627
vt 0.061220 0.818315
vt 0.074575 0.818209
vt 0.166718 0.797578
vt 0.181478 0.809851
vt 0.165971 0.810795
vt 0.075561 0.811790
vt 0.062384 0.805586
vt 0.076551 0.805361
vt 0.193907 0.940022
vt 0.183743 0.929901
vt 0.193907 0.929889
vt 0.165223 0.824012
vt 0.180731 0.823068
vt 0.180727 0.839669
vt 0.061042 0.824627
vt 0.181478 0.796939
vt 0.062206 0.811896
vt 0.183562 0.940040
vt 0.173398 0.929919
vt 0.173579 0.919780
vt 0.173216 0.940059
vt 0.049029 0.805692
vt 0.049208 0.799381
vt 0.048851 0.812002
vt 0.196238 0.809212
vt 0.196238 0.822124
vt 0.196238 0.796301
vt 0.048674 0.818315
vt 0.048497 0.824627
vt 0.196234 0.838725
vt 0.183399 0.949105
vt 0.085654 0.824627
vt 0.183743 0.919768
vt 0.193907 0.919756
vt 0.063375 0.799156
vt 0.077542 0.798931
vn 0.9947 -0.1026 -0.0031
vn 0.0908 0.9946 0.0512
vn 0.9940 -0.0966 0.0516
vn -0.2021 -0.9777 0.0575
vn 0.1486 0.9874 0.0546
vn 0.9763 -0.2102 -0.0521
vn 0.2121 0.9759 -0.0520
vn 0.9774 -0.2116 0.0030
vn -0.1024 -0.9930 -0.0581
vn 0.9936 -0.0966 -0.0584
usemtl Material
s off
f 6/1/1 28/2/1 16/3/1
f 5/4/2 29/5/2 17/6/2
f 7/7/3 30/8/3 18/9/3
f 6/10/4 31/11/4 20/12/4
f 4/13/5 12/14/5 27/15/5
f 6/1/6 20/16/6 28/2/6
f 5/4/7 15/17/7 29/5/7
f 7/7/8 21/18/8 30/8/8
f 6/10/9 19/19/9 31/11/9
f 31/11/9 13/20/9 2/21/9
f 31/11/9 19/19/9 13/20/9
f 19/19/9 3/22/9 13/20/9
f 30/8/8 22/23/8 9/24/8
f 30/8/8 21/18/8 22/23/8
f 21/18/8 10/25/8 22/23/8
f 29/5/7 25/26/7 1/27/7
f 29/5/7 15/17/7 25/26/7
f 15/17/7 9/28/7 25/26/7
f 28/2/6 24/29/6 10/25/6
f 28/2/6 20/16/6 24/29/6
f 20/16/6 8/30/6 24/29/6
f 12/14/5 1/27/5 14/31/5
f 26/32/9 19/19/9 6/10/9
f 11/33/10 6/1/10 16/3/10
f 20/12/4 23/34/4 8/35/4
f 20/12/4 31/11/4 23/34/4
f 31/11/4 2/21/4 23/34/4
f 18/9/3 15/36/3 5/37/3
f 18/9/3 30/8/3 15/36/3
f 30/8/3 9/24/3 15/36/3
f 17/6/2 12/14/2 4/13/2
f 17/6/2 29/5/2 12/14/2
f 29/5/2 1/27/2 12/14/2
f 16/3/1 21/18/1 7/7/1
f 16/3/1 28/2/1 21/18/1
f 28/2/1 10/25/1 21/18/1
