# Blender v2.79 (sub 0) OBJ File: 'untitled.blend'
# www.blender.org
mtllib level.007.mtl
o level.007_Cube.175
v 29.171843 -2.155736 -6.265463
v 29.171843 -2.155736 0.287953
v 29.171843 4.397681 -6.265461
v 29.171839 4.397681 0.287955
v 22.598005 -2.155737 0.287951
v 22.813507 4.397680 0.287953
v 22.230984 -2.155737 -6.265465
v 22.558971 4.397680 -6.265464
v 29.171843 1.120972 -6.265462
v 29.171841 1.120972 0.287954
v 29.171843 -2.155736 -2.988755
v 29.171841 4.397681 -2.988753
v 29.171841 1.120972 -2.988754
v 22.686239 4.397680 -2.988755
v 22.414495 -2.155737 -2.988757
v 25.865406 4.397680 -6.265462
v 25.701412 -2.155737 -6.265464
v 25.884926 -2.155737 0.287952
v 25.992674 4.397680 0.287954
v 25.793169 -2.155737 -2.988756
v 25.929039 4.397680 -2.988754
v 29.171843 -2.155736 -1.350401
v 29.171843 2.759326 -6.265462
v 29.171841 2.759326 0.287955
v 29.171841 4.397681 -1.350399
v 27.518623 4.397681 -6.265462
v 27.436628 -2.155736 -6.265464
v 24.241465 -2.155737 0.287952
v 24.403090 4.397680 0.287954
v 29.171843 -0.517382 -6.265462
v 29.171841 -0.517382 0.287954
v 29.171841 1.120972 -4.627109
v 22.622606 4.397680 -4.627110
v 22.322741 -2.155737 -4.627112
v 29.171843 -2.155736 -4.627110
v 29.171841 4.397681 -4.627108
v 29.171841 1.120972 -1.350400
v 22.749872 4.397680 -1.350401
v 22.506248 -2.155737 -1.350403
v 27.482508 -2.155736 -2.988755
v 27.550440 4.397681 -2.988753
v 29.171841 -0.517382 -2.988755
v 29.171841 2.759326 -2.988753
v 24.212191 4.397680 -6.265463
v 23.966198 -2.155737 -6.265465
v 27.528385 -2.155736 0.287953
v 27.582256 4.397681 0.287955
v 24.103830 -2.155737 -2.988757
v 24.307640 4.397680 -2.988755
v 25.960857 4.397680 -1.350400
v 25.747292 -2.155737 -4.627110
v 25.839046 -2.155737 -1.350402
v 25.897223 4.397680 -4.627109
v 29.171841 2.759326 -1.350399
v 29.171841 -0.517382 -1.350400
v 27.550440 4.397681 -4.627108
v 27.528385 -2.155736 -1.350401
v 27.482508 -2.155736 -4.627110
v 27.582256 4.397681 -1.350399
v 29.171843 -0.517382 -4.627109
v 29.171841 2.759326 -4.627108
v 24.371273 4.397680 -1.350400
v 24.057953 -2.155737 -4.627111
v 24.195587 -2.155737 -1.350402
v 24.275824 4.397680 -4.627110
vt 0.056452 0.780555
vt 0.067556 0.791738
vt 0.056450 0.791738
vt 0.034240 0.780555
vt 0.045344 0.791738
vt 0.034238 0.791738
vt 0.199852 0.942469
vt 0.190812 0.933590
vt 0.199852 0.933590
vt 0.176694 0.824884
vt 0.188257 0.813369
vt 0.188257 0.825205
vt 0.199820 0.825526
vt 0.211383 0.813690
vt 0.211383 0.825847
vt 0.217933 0.942120
vt 0.208892 0.933415
vt 0.217933 0.933415
vt 0.034237 0.802922
vt 0.045341 0.814105
vt 0.034235 0.814105
vt 0.056448 0.802922
vt 0.067552 0.814105
vt 0.056447 0.814105
vt 0.217933 0.959530
vt 0.208892 0.950999
vt 0.217933 0.950825
vt 0.199820 0.849198
vt 0.211383 0.837683
vt 0.211383 0.849841
vt 0.176694 0.847913
vt 0.188257 0.836719
vt 0.188257 0.848556
vt 0.199852 0.960227
vt 0.190812 0.951522
vt 0.199852 0.951348
vt 0.067558 0.780555
vt 0.045346 0.780555
vt 0.190812 0.942643
vt 0.176694 0.813369
vt 0.199820 0.813690
vt 0.208892 0.942294
vt 0.045343 0.802922
vt 0.067554 0.802922
vt 0.208892 0.959879
vt 0.199820 0.837362
vt 0.176694 0.836398
vt 0.190812 0.960576
vt 0.181772 0.951871
vt 0.181772 0.942818
vt 0.181772 0.960925
vt 0.222946 0.826169
vt 0.078658 0.814105
vt 0.078657 0.825288
vt 0.078660 0.802922
vt 0.056445 0.825288
vt 0.199852 0.924711
vt 0.211383 0.801854
vt 0.222946 0.801854
vt 0.199820 0.801854
vt 0.188257 0.801855
vt 0.176694 0.801855
vt 0.181772 0.933764
vt 0.181772 0.924711
vt 0.078662 0.791738
vt 0.078663 0.780555
vt 0.222946 0.838326
vt 0.222946 0.850483
vt 0.067551 0.825288
vt 0.045339 0.825288
vt 0.034233 0.825288
vt 0.208893 0.924710
vt 0.217933 0.924710
vt 0.222946 0.814011
vt 0.190812 0.924711
vn -1.0000 -0.0000 0.0000
vn 0.0000 -1.0000 0.0000
vn -0.0000 1.0000 0.0000
usemtl Material
s off
f 10/1/1 54/2/1 37/3/1
f 2/4/1 55/5/1 22/6/1
f 21/7/2 56/8/2 41/9/2
f 18/10/3 57/11/3 52/12/3
f 20/13/3 58/14/3 51/15/3
f 19/16/2 59/17/2 47/18/2
f 11/19/1 60/20/1 35/21/1
f 13/22/1 61/23/1 32/24/1
f 6/25/2 62/26/2 29/27/2
f 15/28/3 63/29/3 34/30/3
f 5/31/3 64/32/3 39/33/3
f 14/34/2 65/35/2 49/36/2
f 10/1/1 24/37/1 54/2/1
f 2/4/1 31/38/1 55/5/1
f 21/7/2 53/39/2 56/8/2
f 18/10/3 46/40/3 57/11/3
f 20/13/3 40/41/3 58/14/3
f 19/16/2 50/42/2 59/17/2
f 11/19/1 42/43/1 60/20/1
f 13/22/1 43/44/1 61/23/1
f 6/25/2 38/45/2 62/26/2
f 15/28/3 48/46/3 63/29/3
f 5/31/3 28/47/3 64/32/3
f 14/34/2 33/48/2 65/35/2
f 65/35/2 44/49/2 16/50/2
f 65/35/2 33/48/2 44/49/2
f 33/48/2 8/51/2 44/49/2
f 64/32/3 52/12/3 20/13/3
f 64/32/3 28/47/3 52/12/3
f 28/47/3 18/10/3 52/12/3
f 63/29/3 51/15/3 17/52/3
f 63/29/3 48/46/3 51/15/3
f 48/46/3 20/13/3 51/15/3
f 62/26/2 49/36/2 21/7/2
f 62/26/2 38/45/2 49/36/2
f 38/45/2 14/34/2 49/36/2
f 61/23/1 36/53/1 3/54/1
f 61/23/1 43/44/1 36/53/1
f 43/44/1 12/55/1 36/53/1
f 60/20/1 32/24/1 9/56/1
f 60/20/1 42/43/1 32/24/1
f 42/43/1 13/22/1 32/24/1
f 59/17/2 41/9/2 12/57/2
f 59/17/2 50/42/2 41/9/2
f 50/42/2 21/7/2 41/9/2
f 58/14/3 35/58/3 1/59/3
f 58/14/3 40/41/3 35/58/3
f 40/41/3 11/60/3 35/58/3
f 57/11/3 22/61/3 11/60/3
f 57/11/3 46/40/3 22/61/3
f 46/40/3 2/62/3 22/61/3
f 56/8/2 26/63/2 3/64/2
f 56/8/2 53/39/2 26/63/2
f 53/39/2 16/50/2 26/63/2
f 55/5/1 37/3/1 13/22/1
f 55/5/1 31/38/1 37/3/1
f 31/38/1 10/1/1 37/3/1
f 54/2/1 25/65/1 12/55/1
f 54/2/1 24/37/1 25/65/1
f 24/37/1 4/66/1 25/65/1
f 49/36/2 53/39/2 21/7/2
f 49/36/2 65/35/2 53/39/2
f 65/35/2 16/50/2 53/39/2
f 39/33/3 48/46/3 15/28/3
f 39/33/3 64/32/3 48/46/3
f 64/32/3 20/13/3 48/46/3
f 34/30/3 45/67/3 7/68/3
f 34/30/3 63/29/3 45/67/3
f 63/29/3 17/52/3 45/67/3
f 29/27/2 50/42/2 19/16/2
f 29/27/2 62/26/2 50/42/2
f 62/26/2 21/7/2 50/42/2
f 32/24/1 23/69/1 9/56/1
f 32/24/1 61/23/1 23/69/1
f 61/23/1 3/54/1 23/69/1
f 35/21/1 30/70/1 1/71/1
f 35/21/1 60/20/1 30/70/1
f 60/20/1 9/56/1 30/70/1
f 47/18/2 25/72/2 4/73/2
f 47/18/2 59/17/2 25/72/2
f 59/17/2 12/57/2 25/72/2
f 51/15/3 27/74/3 17/52/3
f 51/15/3 58/14/3 27/74/3
f 58/14/3 1/59/3 27/74/3
f 52/12/3 40/41/3 20/13/3
f 52/12/3 57/11/3 40/41/3
f 57/11/3 11/60/3 40/41/3
f 41/9/2 36/75/2 12/57/2
f 41/9/2 56/8/2 36/75/2
f 56/8/2 3/64/2 36/75/2
f 22/6/1 42/43/1 11/19/1
f 22/6/1 55/5/1 42/43/1
f 55/5/1 13/22/1 42/43/1
f 37/3/1 43/44/1 13/22/1
f 37/3/1 54/2/1 43/44/1
f 54/2/1 12/55/1 43/44/1
