# Blender v2.79 (sub 0) OBJ File: 'untitled.blend'
# www.blender.org
mtllib level.008.mtl
o level.008_Cube.176
v 29.171843 -2.155736 0.287953
v 29.171839 4.397681 0.287955
v 22.598005 -2.155737 0.287951
v 22.813507 4.397680 0.287953
v 28.314184 4.688808 15.313850
v 21.901056 4.543147 15.285885
v 22.028919 -1.718162 15.009328
v 28.445698 -1.703400 15.026738
v 28.743013 4.543244 7.800903
v 22.357281 4.470414 7.786920
v 22.313461 -1.936950 7.648640
v 28.808771 -1.929568 7.657346
v 29.171841 1.120972 0.287954
v 28.379942 1.492704 15.170295
v 28.775892 1.306838 7.729125
v 28.627235 -1.816484 11.342041
v 28.528599 4.616026 11.557376
v 22.129168 4.506781 11.536401
v 22.171190 -1.827556 11.328981
v 28.577917 1.399771 11.449709
v 28.939779 4.476452 4.353565
v 22.566624 4.437039 4.345998
v 22.444025 -2.037341 4.271167
v 28.975368 -2.033346 4.275879
v 28.957573 1.221553 4.314722
v 25.884926 -2.155737 0.287952
v 25.992674 4.397680 0.287954
v 25.237309 -1.710781 15.018033
v 25.107620 4.615977 15.299868
v 25.550146 4.506829 7.793911
v 25.561117 -1.933259 7.652992
v 25.328884 4.561403 11.546888
v 25.399214 -1.822020 11.335511
v 25.709698 -2.035343 4.273523
v 25.753201 4.456746 4.349782
v 29.171841 2.759326 0.287955
v 24.241465 -2.155737 0.287952
v 24.403090 4.397680 0.287954
v 22.705757 1.120971 0.287952
v 29.055807 4.437066 2.320760
v 22.690067 4.417359 2.316976
v 22.521015 -2.096539 2.279559
v 28.536465 -1.759942 13.184390
v 26.841503 -1.707091 15.022386
v 21.964987 1.412493 15.147607
v 23.504337 4.579562 15.292876
v 28.347061 3.090756 15.242072
v 28.635805 4.579635 9.679141
v 22.243225 4.488597 9.661661
v 22.242327 -1.882253 9.488811
v 28.892071 -1.981457 5.966611
v 28.759453 2.925041 7.765014
v 23.953714 4.488621 7.790415
v 22.335371 1.266732 7.717779
v 27.184944 -1.931414 7.655169
v 29.171841 -0.517382 0.287954
v 28.412821 -0.105348 15.098516
v 28.792332 -0.311365 7.693235
v 28.866734 1.264196 6.021923
v 28.478930 1.446237 13.310002
v 28.718004 -1.873026 9.499694
v 28.421392 4.652417 13.435614
v 22.015112 4.524964 13.411143
v 22.100054 -1.772859 13.169154
v 28.676905 1.353305 9.589418
v 28.553257 3.007898 11.503543
v 28.602575 -0.208356 11.395876
v 23.729027 4.534092 11.541644
v 22.150179 1.339612 11.432692
v 27.013224 -1.819252 11.338777
v 28.841396 4.509848 6.077234
v 22.461952 4.453726 6.066458
v 22.378744 -1.987145 5.959903
v 29.073605 -2.094541 2.281916
v 29.064707 1.171263 2.301338
v 28.948675 2.849003 4.334144
v 27.342531 -2.034345 4.274701
v 22.505323 1.199849 4.308582
v 24.159912 4.446892 4.347889
v 28.966469 -0.405897 4.295300
v 27.528385 -2.155736 0.287953
v 27.582256 4.397681 0.287955
v 23.633114 -1.714471 15.013680
v 26.710903 4.652393 15.306859
v 27.146580 4.525036 7.797407
v 23.937290 -1.935104 7.650816
v 26.928740 4.588714 11.552133
v 23.785202 -1.824788 11.332246
v 24.076860 -2.036342 4.272345
v 27.346491 4.466599 4.351674
v 25.872936 4.427213 2.318868
v 25.797312 -2.095540 2.280738
v 25.480164 -1.877639 9.494253
v 25.439516 4.534116 9.670401
v 25.635406 -1.984301 5.963257
v 25.651674 4.481787 6.071846
v 25.218252 4.588690 13.423377
v 25.318262 -1.766400 13.176772
v 23.704248 -1.769168 13.173508
v 22.079044 1.394309 13.272864
v 26.821535 4.625105 13.430370
v 28.511806 -0.151815 13.238224
v 28.883173 -0.354008 5.986033
v 27.248106 4.499995 6.075342
v 22.440042 1.250045 5.997318
v 24.002571 -1.985300 5.962079
v 28.857838 2.891645 6.041345
v 28.454269 3.054365 13.363835
v 28.660463 2.971508 9.625307
v 28.701563 -0.254823 9.535584
v 27.039373 4.561427 9.675645
v 22.264235 1.321429 9.557952
v 23.856337 -1.879485 9.492076
v 29.064705 2.809617 2.301339
v 24.153851 -2.095541 2.280737
v 22.628765 1.180169 2.279560
v 27.466227 4.437066 2.320760
v 29.073605 -0.456187 2.281917
v 24.283354 4.427213 2.318867
v 27.430145 -2.094542 2.281916
v 27.094177 -1.874872 9.497518
v 23.843082 4.515908 9.666905
v 27.259235 -1.982456 5.965434
v 24.058384 4.471934 6.069954
v 23.618393 4.561379 13.418134
v 26.922457 -1.762710 13.181125
vt 0.214343 0.829527
vt 0.203025 0.842032
vt 0.202956 0.829114
vt 0.040132 0.957546
vt 0.030934 0.940583
vt 0.040832 0.940380
vt 0.190285 0.965071
vt 0.199100 0.974902
vt 0.190265 0.975364
vt 0.094396 0.923988
vt 0.103866 0.915388
vt 0.104424 0.924044
vt 0.055935 0.923770
vt 0.064774 0.915052
vt 0.065138 0.923822
vt 0.190360 0.925594
vt 0.199138 0.934561
vt 0.190342 0.935040
vt 0.078788 0.957546
vt 0.070058 0.940176
vt 0.079142 0.939990
vt 0.214343 0.780020
vt 0.202888 0.791442
vt 0.202824 0.779587
vt 0.056485 0.941414
vt 0.065412 0.932644
vt 0.065776 0.941414
vt 0.095318 0.941414
vt 0.104885 0.932757
vt 0.105442 0.941414
vt 0.075068 0.941414
vt 0.084732 0.932701
vt 0.085193 0.941414
vt 0.074340 0.923874
vt 0.083907 0.915218
vt 0.084368 0.923931
vt 0.190324 0.944486
vt 0.199120 0.954308
vt 0.190304 0.954779
vt 0.060289 0.957546
vt 0.050911 0.940380
vt 0.060809 0.940176
vt 0.214343 0.803712
vt 0.202956 0.816206
vt 0.202887 0.803288
vt 0.034568 0.941414
vt 0.045252 0.932592
vt 0.045527 0.941414
vt 0.214343 0.752080
vt 0.202824 0.765617
vt 0.202750 0.751636
vt 0.100604 0.957546
vt 0.090049 0.939990
vt 0.100762 0.939769
vt 0.190402 0.903314
vt 0.199159 0.913967
vt 0.190381 0.914454
vt 0.034229 0.923647
vt 0.044807 0.914887
vt 0.045082 0.923709
vt 0.172888 0.904305
vt 0.181624 0.914950
vt 0.172846 0.915436
vt 0.191156 0.751191
vt 0.179712 0.764739
vt 0.179562 0.750747
vt 0.191432 0.802864
vt 0.180114 0.815369
vt 0.179976 0.802440
vt 0.172732 0.945444
vt 0.181508 0.955258
vt 0.172693 0.955728
vt 0.191305 0.779154
vt 0.179913 0.790586
vt 0.179786 0.778721
vt 0.172803 0.926567
vt 0.181563 0.935527
vt 0.172768 0.936006
vt 0.172654 0.966013
vt 0.181450 0.975835
vt 0.172614 0.976298
vt 0.191570 0.828701
vt 0.180321 0.841216
vt 0.180183 0.828287
vt 0.214343 0.842435
vt 0.030054 0.957546
vt 0.199100 0.964600
vt 0.093935 0.915275
vt 0.055660 0.914948
vt 0.199138 0.925107
vt 0.069539 0.957546
vt 0.214343 0.791866
vt 0.056210 0.932592
vt 0.094857 0.932701
vt 0.074704 0.932644
vt 0.073976 0.915105
vt 0.199120 0.944007
vt 0.050211 0.957546
vt 0.214343 0.816619
vt 0.034399 0.932531
vt 0.214343 0.766051
vt 0.089696 0.957546
vt 0.199159 0.902819
vt 0.034059 0.914764
vt 0.181645 0.903810
vt 0.191231 0.765173
vt 0.191501 0.815782
vt 0.181528 0.944965
vt 0.191368 0.791009
vt 0.181581 0.926081
vt 0.181469 0.965542
vt 0.191639 0.841619
vt 0.180390 0.854134
vt 0.169072 0.853732
vt 0.191708 0.854537
vt 0.190246 0.985657
vt 0.168520 0.802017
vt 0.168796 0.827874
vt 0.168267 0.778287
vt 0.044637 0.906004
vt 0.055385 0.906126
vt 0.033889 0.905881
vt 0.207916 0.913472
vt 0.207916 0.924621
vt 0.207916 0.902323
vt 0.079495 0.922433
vt 0.041531 0.923213
vt 0.207916 0.953829
vt 0.207916 0.964129
vt 0.207916 0.943527
vt 0.083543 0.906448
vt 0.093474 0.906561
vt 0.073613 0.906335
vt 0.114452 0.924101
vt 0.061328 0.922807
vt 0.207916 0.934074
vt 0.064499 0.906231
vt 0.103405 0.906675
vt 0.113336 0.906788
vt 0.207916 0.974431
vt 0.207916 0.984732
vt 0.020855 0.940583
vt 0.021735 0.923620
vt 0.019975 0.957546
vt 0.203025 0.854940
vt 0.214343 0.855343
vt 0.168934 0.840803
vt 0.181411 0.986120
vt 0.172575 0.986583
vt 0.168394 0.790152
vt 0.168658 0.814945
vt 0.168118 0.764295
vt 0.167969 0.750302
vt 0.090208 0.922213
vt 0.100920 0.921993
vt 0.093749 0.919609
vt 0.087382 0.907743
vt 0.094423 0.907942
vt 0.051430 0.923010
vt 0.115010 0.932757
vt 0.115568 0.941414
vt 0.070411 0.922620
vt 0.113894 0.915445
vt 0.199081 0.985194
vt 0.031633 0.923417
vn -0.0017 0.9995 -0.0303
vn 0.9992 0.0054 0.0385
vn 0.0226 -0.9996 0.0159
vn -0.9984 -0.0182 -0.0527
vn -0.9986 -0.0090 -0.0529
vn 0.0114 -0.9998 0.0152
vn 0.9990 -0.0194 0.0392
vn -0.0006 0.9995 -0.0302
vn -0.9983 -0.0089 -0.0568
vn -0.9982 -0.0180 -0.0566
vn -0.9983 -0.0134 -0.0567
vn -0.9985 -0.0135 -0.0528
vn 0.0170 -0.9997 0.0155
vn 0.9992 -0.0077 0.0389
vn -0.0011 0.9995 -0.0302
vn -0.9984 -0.0048 -0.0569
vn 0.0000 0.9995 -0.0302
vn 0.9987 -0.0328 0.0396
vn 0.0062 -0.9999 0.0149
vn -0.9986 -0.0048 -0.0530
vn 0.0062 -0.9999 0.0101
vn -0.0000 0.9995 -0.0307
vn -0.0011 0.9995 -0.0307
vn 0.0170 -0.9998 0.0107
vn -0.0006 0.9995 -0.0307
vn 0.0114 -0.9999 0.0104
vn 0.0227 -0.9997 0.0111
vn -0.0017 0.9995 -0.0308
vn -0.0022 0.9996 -0.0298
vn 0.9980 0.0177 0.0605
vn 0.0170 -0.9996 0.0203
vn -0.9987 -0.0137 -0.0488
vn -0.9988 -0.0049 -0.0491
vn 0.0062 -0.9998 0.0197
vn 0.9981 -0.0081 0.0608
vn -0.0011 0.9996 -0.0298
vn -0.9988 -0.0091 -0.0489
vn 0.0114 -0.9997 0.0200
vn 0.9981 0.0046 0.0607
vn -0.0017 0.9996 -0.0298
vn -0.9986 0.0000 -0.0531
vn -0.0006 0.9996 -0.0297
vn 0.9980 -0.0196 0.0609
vn 0.0000 -0.9998 0.0194
vn -0.9988 0.0000 -0.0492
vn -0.0000 -0.9999 0.0145
vn -0.0022 0.9995 -0.0303
usemtl Material
s off
f 19/1/1 99/2/1 88/3/1
f 18/4/2 100/5/2 69/6/2
f 32/7/3 101/8/3 97/9/3
f 20/10/4 102/11/4 60/12/4
f 25/13/5 103/14/5 59/15/5
f 35/16/6 104/17/6 96/18/6
f 22/19/7 105/20/7 78/21/7
f 23/22/8 106/23/8 89/24/8
f 21/25/9 107/26/9 71/27/9
f 17/28/10 108/29/10 62/30/10
f 9/31/11 109/32/11 48/33/11
f 15/34/12 110/35/12 65/36/12
f 30/37/13 111/38/13 94/39/13
f 10/40/14 112/41/14 54/42/14
f 11/43/15 113/44/15 86/45/15
f 2/46/16 114/47/16 40/48/16
f 3/49/17 115/50/17 37/51/17
f 4/52/18 116/53/18 39/54/18
f 27/55/19 117/56/19 91/57/19
f 13/58/20 118/59/20 75/60/20
f 4/61/21 119/62/21 41/63/21
f 26/64/22 120/65/22 81/66/22
f 31/67/23 121/68/23 55/69/23
f 10/70/24 122/71/24 49/72/24
f 34/73/25 123/74/25 77/75/25
f 22/76/26 124/77/26 72/78/26
f 18/79/27 125/80/27 63/81/27
f 33/82/28 126/83/28 70/84/28
f 19/1/29 64/85/29 99/2/29
f 18/4/30 63/86/30 100/5/30
f 32/7/31 87/87/31 101/8/31
f 20/10/32 67/88/32 102/11/32
f 25/13/33 80/89/33 103/14/33
f 35/16/34 90/90/34 104/17/34
f 22/19/35 72/91/35 105/20/35
f 23/22/36 73/92/36 106/23/36
f 21/25/20 76/93/20 107/26/20
f 17/28/12 66/94/12 108/29/12
f 9/31/5 52/95/5 109/32/5
f 15/34/37 58/96/37 110/35/37
f 30/37/38 85/97/38 111/38/38
f 10/40/39 49/98/39 112/41/39
f 11/43/40 50/99/40 113/44/40
f 2/46/41 36/100/41 114/47/41
f 3/49/42 42/101/42 115/50/42
f 4/52/43 41/102/43 116/53/43
f 27/55/44 82/103/44 117/56/44
f 13/58/45 56/104/45 118/59/45
f 4/61/46 38/105/46 119/62/46
f 26/64/8 92/106/8 120/65/8
f 31/67/1 93/107/1 121/68/1
f 10/70/6 53/108/6 122/71/6
f 34/73/15 95/109/15 123/74/15
f 22/76/19 79/110/19 124/77/19
f 18/79/13 68/111/13 125/80/13
f 33/82/47 98/112/47 126/83/47
f 126/83/47 44/113/47 8/114/47
f 126/83/47 98/112/47 44/113/47
f 98/112/47 28/115/47 44/113/47
f 125/80/13 97/9/13 29/116/13
f 125/80/13 68/111/13 97/9/13
f 68/111/13 32/7/13 97/9/13
f 124/77/19 96/18/19 30/37/19
f 124/77/19 79/110/19 96/18/19
f 79/110/19 35/16/19 96/18/19
f 123/74/15 55/69/15 12/117/15
f 123/74/15 95/109/15 55/69/15
f 95/109/15 31/67/15 55/69/15
f 122/71/6 94/39/6 32/7/6
f 122/71/6 53/108/6 94/39/6
f 53/108/6 30/37/6 94/39/6
f 121/68/1 70/84/1 16/118/1
f 121/68/1 93/107/1 70/84/1
f 93/107/1 33/82/1 70/84/1
f 120/65/8 77/75/8 24/119/8
f 120/65/8 92/106/8 77/75/8
f 92/106/8 34/73/8 77/75/8
f 119/62/46 91/57/46 35/16/46
f 119/62/46 38/105/46 91/57/46
f 38/105/46 27/55/46 91/57/46
f 118/59/45 74/120/45 24/121/45
f 118/59/45 56/104/45 74/120/45
f 56/104/45 1/122/45 74/120/45
f 117/56/44 40/123/44 21/124/44
f 117/56/44 82/103/44 40/123/44
f 82/103/44 2/125/44 40/123/44
f 116/53/43 78/21/43 23/126/43
f 116/53/43 41/102/43 78/21/43
f 41/102/43 22/19/43 78/21/43
f 115/50/42 89/24/42 34/73/42
f 115/50/42 42/101/42 89/24/42
f 42/101/42 23/22/42 89/24/42
f 114/47/41 75/60/41 25/13/41
f 114/47/41 36/100/41 75/60/41
f 36/100/41 13/58/41 75/60/41
f 113/44/40 88/3/40 33/82/40
f 113/44/40 50/99/40 88/3/40
f 50/99/40 19/1/40 88/3/40
f 112/41/39 69/6/39 19/127/39
f 112/41/39 49/98/39 69/6/39
f 49/98/39 18/4/39 69/6/39
f 111/38/38 48/128/38 17/129/38
f 111/38/38 85/97/38 48/128/38
f 85/97/38 9/130/38 48/128/38
f 110/35/37 61/131/37 16/132/37
f 110/35/37 58/96/37 61/131/37
f 58/96/37 12/133/37 61/131/37
f 109/32/5 65/36/5 20/10/5
f 109/32/5 52/95/5 65/36/5
f 52/95/5 15/34/5 65/36/5
f 108/29/12 60/12/12 14/134/12
f 108/29/12 66/94/12 60/12/12
f 66/94/12 20/10/12 60/12/12
f 107/26/20 59/15/20 15/34/20
f 107/26/20 76/93/20 59/15/20
f 76/93/20 25/13/20 59/15/20
f 106/23/36 86/45/36 31/67/36
f 106/23/36 73/92/36 86/45/36
f 73/92/36 11/43/36 86/45/36
f 105/20/35 54/42/35 11/135/35
f 105/20/35 72/91/35 54/42/35
f 72/91/35 10/40/35 54/42/35
f 104/17/34 71/136/34 9/130/34
f 104/17/34 90/90/34 71/136/34
f 90/90/34 21/124/34 71/136/34
f 103/14/33 51/137/33 12/133/33
f 103/14/33 80/89/33 51/137/33
f 80/89/33 24/121/33 51/137/33
f 102/11/32 43/138/32 8/139/32
f 102/11/32 67/88/32 43/138/32
f 67/88/32 16/132/32 43/138/32
f 101/8/31 62/140/31 5/141/31
f 101/8/31 87/87/31 62/140/31
f 87/87/31 17/129/31 62/140/31
f 100/5/30 45/142/30 7/143/30
f 100/5/30 63/86/30 45/142/30
f 63/86/30 6/144/30 45/142/30
f 99/2/29 83/145/29 28/115/29
f 99/2/29 64/85/29 83/145/29
f 64/85/29 7/146/29 83/145/29
f 70/84/28 43/147/28 16/118/28
f 70/84/28 126/83/28 43/147/28
f 126/83/28 8/114/28 43/147/28
f 63/81/27 46/148/27 6/149/27
f 63/81/27 125/80/27 46/148/27
f 125/80/27 29/116/27 46/148/27
f 72/78/26 53/108/26 10/70/26
f 72/78/26 124/77/26 53/108/26
f 124/77/26 30/37/26 53/108/26
f 77/75/25 51/150/25 24/119/25
f 77/75/25 123/74/25 51/150/25
f 123/74/25 12/117/25 51/150/25
f 49/72/24 68/111/24 18/79/24
f 49/72/24 122/71/24 68/111/24
f 122/71/24 32/7/24 68/111/24
f 55/69/23 61/151/23 12/117/23
f 55/69/23 121/68/23 61/151/23
f 121/68/23 16/118/23 61/151/23
f 81/66/22 74/152/22 1/153/22
f 81/66/22 120/65/22 74/152/22
f 120/65/22 24/119/22 74/152/22
f 41/63/21 79/110/21 22/76/21
f 41/63/21 119/62/21 79/110/21
f 119/62/21 35/16/21 79/110/21
f 75/60/20 80/89/20 25/13/20
f 75/60/20 118/59/20 80/89/20
f 118/59/20 24/121/20 80/89/20
f 91/57/19 90/90/19 35/16/19
f 91/57/19 117/56/19 90/90/19
f 117/56/19 21/124/19 90/90/19
f 39/54/18 42/154/18 3/155/18
f 39/54/18 116/53/18 42/154/18
f 116/156/18 23/157/18 42/158/18
f 37/51/17 92/106/17 26/64/17
f 37/51/17 115/50/17 92/106/17
f 115/50/17 34/73/17 92/106/17
f 40/48/16 76/93/16 21/25/16
f 40/48/16 114/47/16 76/93/16
f 114/47/16 25/13/16 76/93/16
f 86/45/15 93/107/15 31/67/15
f 86/45/15 113/44/15 93/107/15
f 113/44/15 33/82/15 93/107/15
f 54/42/14 50/159/14 11/135/14
f 54/42/14 112/41/14 50/159/14
f 112/41/14 19/127/14 50/159/14
f 94/39/13 87/87/13 32/7/13
f 94/39/13 111/38/13 87/87/13
f 111/38/13 17/129/13 87/87/13
f 65/36/12 67/88/12 20/10/12
f 65/36/12 110/35/12 67/88/12
f 110/35/12 16/132/12 67/88/12
f 48/33/11 66/94/11 17/28/11
f 48/33/11 109/32/11 66/94/11
f 109/32/11 20/10/11 66/94/11
f 62/30/10 47/160/10 5/161/10
f 62/30/10 108/29/10 47/160/10
f 108/29/10 14/134/10 47/160/10
f 71/27/9 52/95/9 9/31/9
f 71/27/9 107/26/9 52/95/9
f 107/26/9 15/34/9 52/95/9
f 89/24/8 95/109/8 34/73/8
f 89/24/8 106/23/8 95/109/8
f 106/23/8 31/67/8 95/109/8
f 78/21/7 73/162/7 23/126/7
f 78/21/7 105/20/7 73/162/7
f 105/20/7 11/135/7 73/162/7
f 96/18/6 85/97/6 30/37/6
f 96/18/6 104/17/6 85/97/6
f 104/17/6 9/130/6 85/97/6
f 59/15/5 58/96/5 15/34/5
f 59/15/5 103/14/5 58/96/5
f 103/14/5 12/133/5 58/96/5
f 60/12/4 57/163/4 14/134/4
f 60/12/4 102/11/4 57/163/4
f 102/11/4 8/139/4 57/163/4
f 97/9/3 84/164/3 29/116/3
f 97/9/3 101/8/3 84/164/3
f 101/8/3 5/141/3 84/164/3
f 69/6/2 64/165/2 19/127/2
f 69/6/2 100/5/2 64/165/2
f 100/5/2 7/143/2 64/165/2
f 88/3/1 98/112/1 33/82/1
f 88/3/1 99/2/1 98/112/1
f 99/2/1 28/115/1 98/112/1
