# Blender v2.79 (sub 0) OBJ File: 'untitled.blend'
# www.blender.org
mtllib level.014.mtl
o level.014_Cube.182
v 1.214488 1.515360 39.860111
v -2.409837 2.710693 39.860111
v 2.409820 5.139684 39.860111
v -1.214504 6.335017 39.860111
v 1.443132 1.680711 36.244793
v 2.228542 5.390356 35.896507
v -3.106634 5.416727 44.601788
v -1.491546 0.818564 44.601788
v 3.106617 2.433651 44.601788
v 1.491529 7.031813 44.601788
v -1.812170 4.522855 39.860111
v -2.299090 3.117646 44.601788
v -1.449870 6.164806 36.138485
v -2.243284 2.480388 36.218510
v -1.844395 4.322258 36.178696
v 2.299073 4.732732 44.601788
v -0.807552 6.224269 44.601788
v -2.702862 4.267186 44.601788
v -0.597674 2.113027 39.860111
v 1.812154 3.327522 39.860111
v -1.513337 5.428936 39.860111
v 0.597658 5.737351 39.860111
v -1.332187 6.249911 37.999298
v 2.319181 5.265020 37.878311
v -1.950692 1.764629 42.230942
v 2.160553 1.974505 42.230942
v 1.835837 3.535533 36.070648
v 1.328810 1.598035 38.052452
v 3.812888 1.323434 36.257500
v -2.160569 5.875872 42.230942
v 1.950674 6.085749 42.230942
v 1.895301 5.882273 44.601788
v -1.957093 5.820498 44.601788
v 0.807535 1.626108 44.601788
v -1.895318 1.968105 44.601788
v -2.111004 3.616775 39.860111
v -2.500976 3.692416 44.601788
v -2.055630 3.820251 42.230942
v -1.828283 4.422557 38.019405
v -2.326560 2.595541 38.039310
v -2.043840 3.401323 36.198601
v 0.389336 5.777582 36.017494
v -1.647133 5.243532 36.158588
v -0.400076 2.080549 36.231651
v 2.702845 3.583192 44.601788
v 0.341988 6.628041 44.601788
v -2.904747 4.841957 44.601788
v 1.926476 3.410198 38.052452
v 2.354446 4.936208 42.230942
v 2.758218 3.786667 42.230942
v -1.011028 6.279643 42.230942
v 0.138512 6.683415 42.230942
v -0.138529 1.166962 42.230942
v -2.257516 4.395020 42.230942
v -2.459402 4.969791 42.230942
v -2.354464 2.914169 42.230942
v -2.127116 3.516476 38.019405
v 0.507019 5.862687 37.878311
v -1.631020 5.343831 37.999298
v -0.514398 1.997874 38.039310
vt 0.054893 0.828254
vt 0.043314 0.815879
vt 0.056742 0.815646
vt 0.038207 0.646147
vt 0.048521 0.647341
vt 0.047613 0.667961
vt 0.060433 0.654366
vt 0.070297 0.657586
vt 0.065062 0.677604
vt 0.071575 0.716434
vt 0.053085 0.700848
vt 0.072527 0.694298
vt 0.050962 0.680698
vt 0.045892 0.680249
vt 0.049365 0.659951
vt 0.031092 0.637628
vt 0.030888 0.658264
vt 0.020750 0.657365
vt 0.063564 0.806650
vt 0.051388 0.800535
vt 0.063742 0.800339
vt 0.189653 0.933373
vt 0.179674 0.943770
vt 0.179491 0.933564
vt 0.063209 0.819275
vt 0.050891 0.813061
vt 0.063386 0.812962
vt 0.184912 0.796186
vt 0.172166 0.784050
vt 0.184912 0.783275
vt 0.042607 0.828254
vt 0.079464 0.650925
vt 0.068241 0.670349
vt 0.069149 0.649731
vt 0.024288 0.685552
vt 0.031247 0.665849
vt 0.040653 0.687663
vt 0.099891 0.667248
vt 0.084791 0.684045
vt 0.090026 0.664027
vt 0.038558 0.690605
vt 0.049495 0.672486
vt 0.054125 0.695724
vt 0.055831 0.721517
vt 0.030685 0.678900
vt 0.039227 0.659052
vt 0.035754 0.679349
vt 0.064446 0.640781
vt 0.057704 0.660739
vt 0.056108 0.639992
vt 0.039430 0.638416
vt 0.051068 0.806749
vt 0.189653 0.944241
vt 0.050570 0.819275
vt 0.172041 0.796743
vt 0.159295 0.784607
vt 0.159420 0.771914
vt 0.159170 0.797300
vt 0.038252 0.813061
vt 0.038572 0.806848
vt 0.037931 0.819275
vt 0.179674 0.954638
vt 0.169695 0.954168
vt 0.189653 0.955109
vt 0.038893 0.800634
vt 0.039213 0.794421
vt 0.047769 0.639204
vt 0.044296 0.659502
vt 0.040823 0.679799
vt 0.037341 0.705933
vt 0.034595 0.685262
vt 0.040087 0.726602
vt 0.069691 0.700842
vt 0.074927 0.680824
vt 0.080162 0.660806
vt 0.057018 0.689774
vt 0.057927 0.669155
vt 0.058835 0.648536
vt 0.031028 0.815879
vt 0.031735 0.803504
vt 0.030321 0.828254
vt 0.172166 0.771139
vt 0.184912 0.770363
vt 0.169512 0.943961
vt 0.169329 0.933755
vt 0.051567 0.794225
vt 0.063921 0.794029
vt 0.020546 0.678000
vt 0.010407 0.677101
vt 0.054036 0.678712
vt 0.073478 0.672161
vt 0.050899 0.847209
vt 0.038838 0.836730
vt 0.051774 0.836986
vt 0.045163 0.803271
vt 0.058591 0.803038
vn -0.9755 0.2120 0.0580
vn -0.9423 -0.3310 -0.0504
vn 0.3310 -0.9423 -0.0504
vn -0.3310 0.9423 -0.0504
vn 0.9260 0.3253 0.1915
vn 0.9423 0.3310 -0.0504
vn 0.9760 -0.2101 0.0579
vn -0.2021 -0.9777 0.0575
vn 0.9778 -0.2093 0.0028
vn 0.2112 0.9757 0.0580
vn -0.9487 0.3129 -0.0457
vn -0.9049 0.2985 0.3033
vn -0.2985 -0.9049 0.3033
vn 0.2985 0.9049 0.3033
vn 0.9049 -0.2985 0.3033
vn 0.9497 -0.3132 0.0047
vn 0.9496 -0.3132 0.0088
vn -0.3129 -0.9487 -0.0457
vn 0.9487 -0.3129 -0.0457
vn 0.3129 0.9487 -0.0457
vn -0.0085 -0.0917 -0.9958
usemtl Material
s off
f 5/1/1 48/2/1 27/3/1
f 9/4/2 45/5/2 50/6/2
f 10/7/3 46/8/3 52/9/3
f 1/10/4 53/11/4 26/12/4
f 7/13/5 47/14/5 55/15/5
f 2/16/6 56/17/6 25/18/6
f 15/19/7 57/20/7 41/21/7
f 6/22/8 58/23/8 42/24/8
f 13/25/9 59/26/9 43/27/9
f 14/28/10 60/29/10 44/30/10
f 5/1/11 28/31/11 48/2/11
f 10/32/2 31/33/2 32/34/2
f 1/35/12 26/36/12 20/37/12
f 7/38/3 30/39/3 33/40/3
f 3/41/13 31/42/13 22/43/13
f 1/10/14 19/44/14 53/11/14
f 12/45/5 38/46/5 37/47/5
f 4/48/15 30/49/15 21/50/15
f 2/16/16 36/51/16 56/17/16
f 15/19/17 39/52/17 57/20/17
f 6/22/18 24/53/18 58/23/18
f 13/25/19 23/54/19 59/26/19
f 14/28/20 40/55/20 60/29/20
f 60/29/20 19/56/20 1/57/20
f 60/29/20 40/55/20 19/56/20
f 40/55/20 2/58/20 19/56/20
f 59/26/19 21/59/19 11/60/19
f 59/26/19 23/54/19 21/59/19
f 23/54/19 4/61/19 21/59/19
f 58/23/18 22/62/18 4/63/18
f 58/23/18 24/53/18 22/62/18
f 24/53/18 3/64/18 22/62/18
f 57/20/17 36/65/17 2/66/17
f 57/20/17 39/52/17 36/65/17
f 39/52/17 11/60/17 36/65/17
f 56/17/16 38/46/16 12/45/16
f 56/17/16 36/51/16 38/46/16
f 36/51/16 11/67/16 38/46/16
f 21/50/15 55/15/15 11/67/15
f 21/50/15 30/49/15 55/15/15
f 30/49/15 7/13/15 55/15/15
f 37/47/5 54/68/5 18/69/5
f 37/47/5 38/46/5 54/68/5
f 38/46/5 11/67/5 54/68/5
f 53/11/14 25/70/14 8/71/14
f 53/11/14 19/44/14 25/70/14
f 19/44/14 2/72/14 25/70/14
f 22/43/13 52/9/13 4/73/13
f 22/43/13 31/42/13 52/9/13
f 31/42/13 10/7/13 52/9/13
f 33/40/3 51/74/3 17/75/3
f 33/40/3 30/39/3 51/74/3
f 30/39/3 4/73/3 51/74/3
f 20/37/12 50/6/12 3/76/12
f 20/37/12 26/36/12 50/6/12
f 26/36/12 9/4/12 50/6/12
f 32/34/2 49/77/2 16/78/2
f 32/34/2 31/33/2 49/77/2
f 31/33/2 3/76/2 49/77/2
f 48/2/11 20/79/11 3/80/11
f 48/2/11 28/31/11 20/79/11
f 28/31/11 1/81/11 20/79/11
f 44/30/10 28/82/10 5/83/10
f 44/30/10 60/29/10 28/82/10
f 60/29/10 1/57/10 28/82/10
f 43/27/9 39/52/9 15/19/9
f 43/27/9 59/26/9 39/52/9
f 59/26/9 11/60/9 39/52/9
f 42/24/8 23/84/8 13/85/8
f 42/24/8 58/23/8 23/84/8
f 58/23/8 4/63/8 23/84/8
f 41/21/7 40/86/7 14/87/7
f 41/21/7 57/20/7 40/86/7
f 57/20/7 2/66/7 40/86/7
f 25/18/6 35/88/6 8/89/6
f 25/18/6 56/17/6 35/88/6
f 56/17/6 12/45/6 35/88/6
f 55/15/5 54/68/5 11/67/5
f 55/15/5 47/14/5 54/68/5
f 47/14/5 18/69/5 54/68/5
f 26/12/4 34/90/4 9/91/4
f 26/12/4 53/11/4 34/90/4
f 53/11/4 8/71/4 34/90/4
f 52/9/3 51/74/3 4/73/3
f 52/9/3 46/8/3 51/74/3
f 46/8/3 17/75/3 51/74/3
f 50/6/2 49/77/2 3/76/2
f 50/6/2 45/5/2 49/77/2
f 45/5/2 16/78/2 49/77/2
f 27/92/21 29/93/21 5/94/21
f 27/3/1 24/95/1 6/96/1
f 27/3/1 48/2/1 24/95/1
f 48/2/1 3/80/1 24/95/1
